G04*
G04 #@! TF.GenerationSoftware,Altium Limited,Altium Designer,21.3.2 (30)*
G04*
G04 Layer_Physical_Order=2*
G04 Layer_Color=16711680*
%FSLAX25Y25*%
%MOIN*%
G70*
G04*
G04 #@! TF.SameCoordinates,6AE65C0D-1D2A-47B7-BFB0-4F28CD664EAD*
G04*
G04*
G04 #@! TF.FilePolarity,Positive*
G04*
G01*
G75*
%ADD12C,0.02362*%
%ADD13C,0.11811*%
%ADD14R,0.11811X0.59055*%
%ADD15C,0.01000*%
G36*
X16513Y178223D02*
X16457Y178150D01*
X16408Y178072D01*
X16366Y177987D01*
X16330Y177896D01*
X16300Y177800D01*
X16277Y177698D01*
X16261Y177589D01*
X16251Y177475D01*
X16248Y177355D01*
X15248D01*
X15245Y177475D01*
X15235Y177589D01*
X15219Y177698D01*
X15196Y177800D01*
X15166Y177896D01*
X15130Y177987D01*
X15088Y178072D01*
X15039Y178150D01*
X14983Y178223D01*
X14921Y178290D01*
X16575D01*
X16513Y178223D01*
D02*
G37*
G36*
X75568Y158538D02*
X75512Y158465D01*
X75463Y158387D01*
X75421Y158302D01*
X75385Y158211D01*
X75355Y158115D01*
X75333Y158013D01*
X75316Y157904D01*
X75306Y157790D01*
X75303Y157670D01*
X74303D01*
X74300Y157790D01*
X74290Y157904D01*
X74274Y158013D01*
X74251Y158115D01*
X74221Y158211D01*
X74186Y158302D01*
X74143Y158387D01*
X74094Y158465D01*
X74038Y158538D01*
X73976Y158605D01*
X75630D01*
X75568Y158538D01*
D02*
G37*
G36*
X114938Y138853D02*
X114882Y138780D01*
X114833Y138702D01*
X114791Y138617D01*
X114755Y138526D01*
X114725Y138430D01*
X114703Y138328D01*
X114686Y138219D01*
X114676Y138105D01*
X114673Y137985D01*
X113673D01*
X113670Y138105D01*
X113660Y138219D01*
X113644Y138328D01*
X113621Y138430D01*
X113592Y138526D01*
X113556Y138617D01*
X113513Y138702D01*
X113464Y138780D01*
X113409Y138853D01*
X113347Y138920D01*
X115000D01*
X114938Y138853D01*
D02*
G37*
G36*
X105236Y129935D02*
X105151Y129905D01*
X105076Y129854D01*
X105011Y129783D01*
X104956Y129692D01*
X104911Y129581D01*
X104876Y129449D01*
X104851Y129298D01*
X104836Y129125D01*
X104831Y128933D01*
X103831D01*
X103826Y129125D01*
X103811Y129298D01*
X103786Y129449D01*
X103751Y129581D01*
X103706Y129692D01*
X103651Y129783D01*
X103586Y129854D01*
X103511Y129905D01*
X103426Y129935D01*
X103331Y129945D01*
X105331D01*
X105236Y129935D01*
D02*
G37*
G36*
X85551D02*
X85466Y129905D01*
X85391Y129854D01*
X85326Y129783D01*
X85271Y129692D01*
X85226Y129581D01*
X85191Y129449D01*
X85166Y129298D01*
X85151Y129125D01*
X85146Y128933D01*
X84146D01*
X84141Y129125D01*
X84126Y129298D01*
X84101Y129449D01*
X84066Y129581D01*
X84021Y129692D01*
X83966Y129783D01*
X83901Y129854D01*
X83826Y129905D01*
X83741Y129935D01*
X83646Y129945D01*
X85646D01*
X85551Y129935D01*
D02*
G37*
G36*
X65866D02*
X65781Y129905D01*
X65706Y129854D01*
X65641Y129783D01*
X65586Y129692D01*
X65541Y129581D01*
X65506Y129449D01*
X65481Y129298D01*
X65466Y129125D01*
X65461Y128933D01*
X64461D01*
X64456Y129125D01*
X64441Y129298D01*
X64416Y129449D01*
X64381Y129581D01*
X64336Y129692D01*
X64281Y129783D01*
X64216Y129854D01*
X64141Y129905D01*
X64056Y129935D01*
X63961Y129945D01*
X65961D01*
X65866Y129935D01*
D02*
G37*
G36*
X46181D02*
X46096Y129905D01*
X46021Y129854D01*
X45956Y129783D01*
X45901Y129692D01*
X45856Y129581D01*
X45821Y129449D01*
X45796Y129298D01*
X45781Y129125D01*
X45776Y128933D01*
X44776D01*
X44771Y129125D01*
X44756Y129298D01*
X44731Y129449D01*
X44696Y129581D01*
X44651Y129692D01*
X44596Y129783D01*
X44531Y129854D01*
X44456Y129905D01*
X44371Y129935D01*
X44276Y129945D01*
X46276D01*
X46181Y129935D01*
D02*
G37*
G36*
X26496D02*
X26411Y129905D01*
X26336Y129854D01*
X26271Y129783D01*
X26216Y129692D01*
X26171Y129581D01*
X26136Y129449D01*
X26111Y129298D01*
X26096Y129125D01*
X26091Y128933D01*
X25091D01*
X25086Y129125D01*
X25071Y129298D01*
X25046Y129449D01*
X25011Y129581D01*
X24966Y129692D01*
X24911Y129783D01*
X24846Y129854D01*
X24771Y129905D01*
X24686Y129935D01*
X24591Y129945D01*
X26591D01*
X26496Y129935D01*
D02*
G37*
G36*
X6810D02*
X6725Y129905D01*
X6650Y129854D01*
X6585Y129783D01*
X6531Y129692D01*
X6486Y129581D01*
X6451Y129449D01*
X6425Y129298D01*
X6410Y129125D01*
X6406Y128933D01*
X5406D01*
X5401Y129125D01*
X5385Y129298D01*
X5361Y129449D01*
X5325Y129581D01*
X5280Y129692D01*
X5226Y129783D01*
X5161Y129854D01*
X5085Y129905D01*
X5001Y129935D01*
X4905Y129945D01*
X6905D01*
X6810Y129935D01*
D02*
G37*
G36*
X92078Y109424D02*
X92208Y109315D01*
X92332Y109226D01*
X92451Y109156D01*
X92565Y109107D01*
X92672Y109077D01*
X92775Y109066D01*
X92871Y109076D01*
X92963Y109105D01*
X93048Y109153D01*
X91634Y107739D01*
X91683Y107825D01*
X91712Y107916D01*
X91721Y108013D01*
X91711Y108115D01*
X91681Y108223D01*
X91631Y108336D01*
X91562Y108455D01*
X91473Y108580D01*
X91364Y108710D01*
X91235Y108845D01*
X91942Y109552D01*
X92078Y109424D01*
D02*
G37*
G36*
X63077Y103331D02*
X63051Y103426D01*
X63007Y103511D01*
X62946Y103586D01*
X62866Y103651D01*
X62768Y103706D01*
X62653Y103751D01*
X62520Y103786D01*
X62369Y103811D01*
X62200Y103826D01*
X62013Y103831D01*
Y104831D01*
X62200Y104836D01*
X62369Y104851D01*
X62520Y104876D01*
X62653Y104911D01*
X62768Y104956D01*
X62866Y105011D01*
X62946Y105076D01*
X63007Y105151D01*
X63051Y105236D01*
X63077Y105331D01*
Y103331D01*
D02*
G37*
G36*
X92078Y89739D02*
X92208Y89630D01*
X92332Y89541D01*
X92451Y89471D01*
X92565Y89422D01*
X92672Y89392D01*
X92775Y89381D01*
X92871Y89391D01*
X92963Y89420D01*
X93048Y89468D01*
X91634Y88054D01*
X91683Y88140D01*
X91712Y88231D01*
X91721Y88328D01*
X91711Y88430D01*
X91681Y88538D01*
X91631Y88651D01*
X91562Y88770D01*
X91473Y88894D01*
X91364Y89025D01*
X91235Y89160D01*
X91942Y89867D01*
X92078Y89739D01*
D02*
G37*
G36*
X63077Y83646D02*
X63051Y83741D01*
X63007Y83826D01*
X62946Y83901D01*
X62866Y83966D01*
X62768Y84021D01*
X62653Y84066D01*
X62520Y84101D01*
X62369Y84126D01*
X62200Y84141D01*
X62013Y84146D01*
Y85146D01*
X62200Y85151D01*
X62369Y85166D01*
X62520Y85191D01*
X62653Y85226D01*
X62768Y85271D01*
X62866Y85326D01*
X62946Y85391D01*
X63007Y85466D01*
X63051Y85551D01*
X63077Y85646D01*
Y83646D01*
D02*
G37*
G36*
X101678Y59632D02*
X101550Y59497D01*
X101441Y59367D01*
X101352Y59242D01*
X101282Y59123D01*
X101233Y59010D01*
X101203Y58902D01*
X101192Y58800D01*
X101202Y58703D01*
X101231Y58612D01*
X101279Y58526D01*
X99865Y59941D01*
X99951Y59892D01*
X100042Y59863D01*
X100139Y59854D01*
X100241Y59864D01*
X100349Y59894D01*
X100462Y59944D01*
X100581Y60013D01*
X100706Y60102D01*
X100836Y60211D01*
X100971Y60340D01*
X101678Y59632D01*
D02*
G37*
G36*
X74119D02*
X73991Y59497D01*
X73882Y59367D01*
X73793Y59242D01*
X73723Y59123D01*
X73674Y59010D01*
X73643Y58902D01*
X73633Y58800D01*
X73642Y58703D01*
X73672Y58612D01*
X73720Y58526D01*
X72306Y59941D01*
X72392Y59892D01*
X72483Y59863D01*
X72580Y59854D01*
X72682Y59864D01*
X72790Y59894D01*
X72903Y59944D01*
X73022Y60013D01*
X73146Y60102D01*
X73277Y60211D01*
X73412Y60340D01*
X74119Y59632D01*
D02*
G37*
G36*
X129237D02*
X129109Y59497D01*
X129000Y59367D01*
X128911Y59242D01*
X128841Y59123D01*
X128792Y59010D01*
X128762Y58902D01*
X128751Y58800D01*
X128761Y58703D01*
X128790Y58612D01*
X128838Y58526D01*
X127424Y59941D01*
X127510Y59892D01*
X127601Y59863D01*
X127698Y59854D01*
X127800Y59864D01*
X127908Y59894D01*
X128021Y59944D01*
X128140Y60013D01*
X128265Y60102D01*
X128395Y60211D01*
X128530Y60340D01*
X129237Y59632D01*
D02*
G37*
G36*
X119501Y89867D02*
X119637Y89739D01*
X119767Y89630D01*
X119891Y89541D01*
X120010Y89471D01*
X120124Y89422D01*
X120231Y89392D01*
X120334Y89381D01*
X120431Y89391D01*
X120522Y89420D01*
X120607Y89468D01*
X119193Y88054D01*
X119242Y88140D01*
X119271Y88231D01*
X119280Y88328D01*
X119270Y88430D01*
X119240Y88538D01*
X119190Y88651D01*
X119121Y88770D01*
X119032Y88894D01*
X118923Y89025D01*
X118794Y89160D01*
X119501Y89867D01*
D02*
G37*
G36*
X156796Y59632D02*
X156668Y59497D01*
X156559Y59367D01*
X156470Y59242D01*
X156401Y59123D01*
X156351Y59010D01*
X156321Y58902D01*
X156310Y58800D01*
X156320Y58703D01*
X156349Y58612D01*
X156397Y58526D01*
X154983Y59941D01*
X155069Y59892D01*
X155160Y59863D01*
X155257Y59854D01*
X155359Y59864D01*
X155467Y59894D01*
X155580Y59944D01*
X155699Y60013D01*
X155824Y60102D01*
X155954Y60211D01*
X156089Y60340D01*
X156796Y59632D01*
D02*
G37*
G36*
X147060Y89867D02*
X147196Y89739D01*
X147326Y89630D01*
X147450Y89541D01*
X147569Y89471D01*
X147683Y89422D01*
X147791Y89392D01*
X147893Y89381D01*
X147990Y89391D01*
X148081Y89420D01*
X148166Y89468D01*
X146752Y88054D01*
X146801Y88140D01*
X146830Y88231D01*
X146839Y88328D01*
X146829Y88430D01*
X146799Y88538D01*
X146749Y88651D01*
X146680Y88770D01*
X146591Y88894D01*
X146482Y89025D01*
X146353Y89160D01*
X147060Y89867D01*
D02*
G37*
G36*
X119501Y109552D02*
X119637Y109424D01*
X119767Y109315D01*
X119891Y109226D01*
X120010Y109156D01*
X120124Y109107D01*
X120231Y109077D01*
X120334Y109066D01*
X120431Y109076D01*
X120522Y109105D01*
X120607Y109153D01*
X119193Y107739D01*
X119242Y107825D01*
X119271Y107916D01*
X119280Y108013D01*
X119270Y108115D01*
X119240Y108223D01*
X119190Y108336D01*
X119121Y108455D01*
X119032Y108580D01*
X118923Y108710D01*
X118794Y108845D01*
X119501Y109552D01*
D02*
G37*
G36*
X123516Y128933D02*
X123511Y129125D01*
X123496Y129298D01*
X123471Y129449D01*
X123436Y129581D01*
X123391Y129692D01*
X123336Y129783D01*
X123271Y129854D01*
X123196Y129905D01*
X123111Y129935D01*
X123016Y129945D01*
X125016D01*
X124921Y129935D01*
X124836Y129905D01*
X124761Y129854D01*
X124696Y129783D01*
X124641Y129692D01*
X124596Y129581D01*
X124561Y129449D01*
X124536Y129298D01*
X124521Y129125D01*
X124516Y128933D01*
X123516D01*
D02*
G37*
G36*
X152075Y111215D02*
X152080Y111028D01*
X152095Y110859D01*
X152120Y110708D01*
X152155Y110575D01*
X152200Y110460D01*
X152255Y110362D01*
X152320Y110283D01*
X152395Y110221D01*
X152480Y110177D01*
X152575Y110151D01*
X150575D01*
X150670Y110177D01*
X150755Y110221D01*
X150830Y110283D01*
X150895Y110362D01*
X150950Y110460D01*
X150995Y110575D01*
X151030Y110708D01*
X151055Y110859D01*
X151070Y111028D01*
X151075Y111215D01*
X152075D01*
D02*
G37*
G36*
X143201Y128933D02*
X143196Y129125D01*
X143181Y129298D01*
X143156Y129449D01*
X143121Y129581D01*
X143076Y129692D01*
X143021Y129783D01*
X142956Y129854D01*
X142881Y129905D01*
X142796Y129935D01*
X142701Y129945D01*
X144701D01*
X144606Y129935D01*
X144521Y129905D01*
X144446Y129854D01*
X144381Y129783D01*
X144326Y129692D01*
X144281Y129581D01*
X144246Y129449D01*
X144221Y129298D01*
X144206Y129125D01*
X144201Y128933D01*
X143201D01*
D02*
G37*
G36*
X184355Y59632D02*
X184227Y59497D01*
X184118Y59367D01*
X184029Y59242D01*
X183959Y59123D01*
X183910Y59010D01*
X183880Y58902D01*
X183869Y58800D01*
X183879Y58703D01*
X183908Y58612D01*
X183957Y58526D01*
X182542Y59941D01*
X182628Y59892D01*
X182719Y59863D01*
X182816Y59854D01*
X182918Y59864D01*
X183026Y59894D01*
X183139Y59944D01*
X183258Y60013D01*
X183383Y60102D01*
X183513Y60211D01*
X183648Y60340D01*
X184355Y59632D01*
D02*
G37*
G36*
X174619Y89867D02*
X174755Y89739D01*
X174885Y89630D01*
X175010Y89541D01*
X175128Y89471D01*
X175242Y89422D01*
X175350Y89392D01*
X175452Y89381D01*
X175549Y89391D01*
X175640Y89420D01*
X175725Y89468D01*
X174311Y88054D01*
X174360Y88140D01*
X174389Y88231D01*
X174398Y88328D01*
X174388Y88430D01*
X174358Y88538D01*
X174308Y88651D01*
X174239Y88770D01*
X174150Y88894D01*
X174041Y89025D01*
X173912Y89160D01*
X174619Y89867D01*
D02*
G37*
G36*
X179634Y111215D02*
X179639Y111028D01*
X179654Y110859D01*
X179679Y110708D01*
X179714Y110575D01*
X179759Y110460D01*
X179814Y110362D01*
X179879Y110283D01*
X179954Y110221D01*
X180039Y110177D01*
X180134Y110151D01*
X178134D01*
X178229Y110177D01*
X178314Y110221D01*
X178389Y110283D01*
X178454Y110362D01*
X178509Y110460D01*
X178554Y110575D01*
X178589Y110708D01*
X178614Y110859D01*
X178629Y111028D01*
X178634Y111215D01*
X179634D01*
D02*
G37*
G36*
X190445Y98615D02*
X190442Y98735D01*
X190432Y98849D01*
X190416Y98957D01*
X190393Y99060D01*
X190363Y99156D01*
X190327Y99247D01*
X190285Y99331D01*
X190236Y99410D01*
X190180Y99483D01*
X190118Y99550D01*
X191772D01*
X191710Y99483D01*
X191654Y99410D01*
X191605Y99331D01*
X191562Y99247D01*
X191527Y99156D01*
X191497Y99060D01*
X191474Y98957D01*
X191458Y98849D01*
X191448Y98735D01*
X191445Y98615D01*
X190445D01*
D02*
G37*
G36*
X160353Y118467D02*
X160266Y118550D01*
X160178Y118624D01*
X160090Y118689D01*
X160002Y118745D01*
X159913Y118792D01*
X159823Y118831D01*
X159733Y118861D01*
X159643Y118882D01*
X159552Y118894D01*
X159461Y118898D01*
X160630Y120067D01*
X160633Y119976D01*
X160646Y119885D01*
X160667Y119794D01*
X160696Y119704D01*
X160735Y119615D01*
X160783Y119526D01*
X160839Y119438D01*
X160904Y119349D01*
X160977Y119262D01*
X161060Y119175D01*
X160353Y118467D01*
D02*
G37*
G36*
X162886Y128933D02*
X162881Y129125D01*
X162866Y129298D01*
X162841Y129449D01*
X162806Y129581D01*
X162761Y129692D01*
X162706Y129783D01*
X162641Y129854D01*
X162566Y129905D01*
X162481Y129935D01*
X162386Y129945D01*
X164386D01*
X164291Y129935D01*
X164206Y129905D01*
X164131Y129854D01*
X164066Y129783D01*
X164011Y129692D01*
X163966Y129581D01*
X163931Y129449D01*
X163906Y129298D01*
X163891Y129125D01*
X163886Y128933D01*
X162886D01*
D02*
G37*
G36*
X182571D02*
X182566Y129125D01*
X182551Y129298D01*
X182526Y129449D01*
X182491Y129581D01*
X182446Y129692D01*
X182391Y129783D01*
X182326Y129854D01*
X182251Y129905D01*
X182166Y129935D01*
X182071Y129945D01*
X184071D01*
X183976Y129935D01*
X183891Y129905D01*
X183816Y129854D01*
X183751Y129783D01*
X183696Y129692D01*
X183651Y129581D01*
X183616Y129449D01*
X183591Y129298D01*
X183576Y129125D01*
X183571Y128933D01*
X182571D01*
D02*
G37*
G36*
X380826Y129935D02*
X380741Y129905D01*
X380666Y129854D01*
X380601Y129783D01*
X380546Y129692D01*
X380501Y129581D01*
X380466Y129449D01*
X380441Y129298D01*
X380426Y129125D01*
X380421Y128933D01*
X379421D01*
X379416Y129125D01*
X379401Y129298D01*
X379376Y129449D01*
X379341Y129581D01*
X379296Y129692D01*
X379241Y129783D01*
X379176Y129854D01*
X379101Y129905D01*
X379016Y129935D01*
X378921Y129945D01*
X380921D01*
X380826Y129935D01*
D02*
G37*
G36*
X361141D02*
X361056Y129905D01*
X360981Y129854D01*
X360916Y129783D01*
X360861Y129692D01*
X360816Y129581D01*
X360781Y129449D01*
X360756Y129298D01*
X360741Y129125D01*
X360736Y128933D01*
X359736D01*
X359731Y129125D01*
X359716Y129298D01*
X359691Y129449D01*
X359656Y129581D01*
X359611Y129692D01*
X359556Y129783D01*
X359491Y129854D01*
X359416Y129905D01*
X359331Y129935D01*
X359236Y129945D01*
X361236D01*
X361141Y129935D01*
D02*
G37*
G36*
X341456D02*
X341371Y129905D01*
X341296Y129854D01*
X341231Y129783D01*
X341176Y129692D01*
X341131Y129581D01*
X341096Y129449D01*
X341071Y129298D01*
X341056Y129125D01*
X341051Y128933D01*
X340051D01*
X340046Y129125D01*
X340031Y129298D01*
X340006Y129449D01*
X339971Y129581D01*
X339926Y129692D01*
X339871Y129783D01*
X339806Y129854D01*
X339731Y129905D01*
X339646Y129935D01*
X339551Y129945D01*
X341551D01*
X341456Y129935D01*
D02*
G37*
G36*
X321771D02*
X321686Y129905D01*
X321611Y129854D01*
X321546Y129783D01*
X321491Y129692D01*
X321446Y129581D01*
X321411Y129449D01*
X321386Y129298D01*
X321371Y129125D01*
X321366Y128933D01*
X320366D01*
X320361Y129125D01*
X320346Y129298D01*
X320321Y129449D01*
X320286Y129581D01*
X320241Y129692D01*
X320186Y129783D01*
X320121Y129854D01*
X320046Y129905D01*
X319961Y129935D01*
X319866Y129945D01*
X321866D01*
X321771Y129935D01*
D02*
G37*
G36*
X302086D02*
X302001Y129905D01*
X301926Y129854D01*
X301861Y129783D01*
X301806Y129692D01*
X301761Y129581D01*
X301726Y129449D01*
X301701Y129298D01*
X301686Y129125D01*
X301681Y128933D01*
X300681D01*
X300676Y129125D01*
X300661Y129298D01*
X300636Y129449D01*
X300601Y129581D01*
X300556Y129692D01*
X300501Y129783D01*
X300436Y129854D01*
X300361Y129905D01*
X300276Y129935D01*
X300181Y129945D01*
X302181D01*
X302086Y129935D01*
D02*
G37*
G36*
X282401D02*
X282316Y129905D01*
X282241Y129854D01*
X282176Y129783D01*
X282121Y129692D01*
X282076Y129581D01*
X282041Y129449D01*
X282016Y129298D01*
X282001Y129125D01*
X281996Y128933D01*
X280996D01*
X280991Y129125D01*
X280976Y129298D01*
X280951Y129449D01*
X280916Y129581D01*
X280871Y129692D01*
X280816Y129783D01*
X280751Y129854D01*
X280676Y129905D01*
X280591Y129935D01*
X280496Y129945D01*
X282496D01*
X282401Y129935D01*
D02*
G37*
G36*
X262716D02*
X262631Y129905D01*
X262556Y129854D01*
X262491Y129783D01*
X262436Y129692D01*
X262391Y129581D01*
X262356Y129449D01*
X262331Y129298D01*
X262316Y129125D01*
X262311Y128933D01*
X261311D01*
X261306Y129125D01*
X261291Y129298D01*
X261266Y129449D01*
X261231Y129581D01*
X261186Y129692D01*
X261131Y129783D01*
X261066Y129854D01*
X260991Y129905D01*
X260906Y129935D01*
X260811Y129945D01*
X262811D01*
X262716Y129935D01*
D02*
G37*
G36*
X243031D02*
X242946Y129905D01*
X242871Y129854D01*
X242806Y129783D01*
X242751Y129692D01*
X242706Y129581D01*
X242671Y129449D01*
X242646Y129298D01*
X242631Y129125D01*
X242626Y128933D01*
X241626D01*
X241621Y129125D01*
X241606Y129298D01*
X241581Y129449D01*
X241546Y129581D01*
X241501Y129692D01*
X241446Y129783D01*
X241381Y129854D01*
X241306Y129905D01*
X241221Y129935D01*
X241126Y129945D01*
X243126D01*
X243031Y129935D01*
D02*
G37*
G36*
X223346D02*
X223261Y129905D01*
X223186Y129854D01*
X223121Y129783D01*
X223066Y129692D01*
X223021Y129581D01*
X222986Y129449D01*
X222961Y129298D01*
X222946Y129125D01*
X222941Y128933D01*
X221941D01*
X221936Y129125D01*
X221921Y129298D01*
X221896Y129449D01*
X221861Y129581D01*
X221816Y129692D01*
X221761Y129783D01*
X221696Y129854D01*
X221621Y129905D01*
X221536Y129935D01*
X221441Y129945D01*
X223441D01*
X223346Y129935D01*
D02*
G37*
G36*
X203661D02*
X203576Y129905D01*
X203501Y129854D01*
X203436Y129783D01*
X203381Y129692D01*
X203336Y129581D01*
X203301Y129449D01*
X203276Y129298D01*
X203261Y129125D01*
X203256Y128933D01*
X202256D01*
X202251Y129125D01*
X202236Y129298D01*
X202211Y129449D01*
X202176Y129581D01*
X202131Y129692D01*
X202076Y129783D01*
X202011Y129854D01*
X201936Y129905D01*
X201851Y129935D01*
X201756Y129945D01*
X203756D01*
X203661Y129935D01*
D02*
G37*
G36*
X207198Y111028D02*
X207213Y110859D01*
X207238Y110708D01*
X207273Y110575D01*
X207318Y110460D01*
X207373Y110362D01*
X207438Y110283D01*
X207513Y110221D01*
X207598Y110177D01*
X207693Y110151D01*
X205693D01*
X205788Y110177D01*
X205873Y110221D01*
X205948Y110283D01*
X206013Y110362D01*
X206068Y110460D01*
X206113Y110575D01*
X206148Y110708D01*
X206173Y110859D01*
X206188Y111028D01*
X206193Y111215D01*
X207193D01*
X207198Y111028D01*
D02*
G37*
G36*
X294592Y108845D02*
X294463Y108710D01*
X294354Y108580D01*
X294265Y108455D01*
X294196Y108336D01*
X294146Y108223D01*
X294116Y108115D01*
X294106Y108013D01*
X294115Y107916D01*
X294144Y107825D01*
X294193Y107739D01*
X292778Y109153D01*
X292864Y109105D01*
X292955Y109076D01*
X293052Y109066D01*
X293154Y109077D01*
X293262Y109107D01*
X293375Y109156D01*
X293494Y109226D01*
X293619Y109315D01*
X293749Y109424D01*
X293884Y109552D01*
X294592Y108845D01*
D02*
G37*
G36*
X267033D02*
X266904Y108710D01*
X266795Y108580D01*
X266706Y108455D01*
X266637Y108336D01*
X266587Y108223D01*
X266557Y108115D01*
X266547Y108013D01*
X266556Y107916D01*
X266585Y107825D01*
X266634Y107739D01*
X265219Y109153D01*
X265305Y109105D01*
X265396Y109076D01*
X265493Y109066D01*
X265595Y109077D01*
X265703Y109107D01*
X265816Y109156D01*
X265935Y109226D01*
X266060Y109315D01*
X266190Y109424D01*
X266325Y109552D01*
X267033Y108845D01*
D02*
G37*
G36*
X239474D02*
X239345Y108710D01*
X239236Y108580D01*
X239147Y108455D01*
X239078Y108336D01*
X239028Y108223D01*
X238998Y108115D01*
X238987Y108013D01*
X238997Y107916D01*
X239026Y107825D01*
X239075Y107739D01*
X237660Y109153D01*
X237746Y109105D01*
X237837Y109076D01*
X237934Y109066D01*
X238036Y109077D01*
X238144Y109107D01*
X238257Y109156D01*
X238376Y109226D01*
X238501Y109315D01*
X238631Y109424D01*
X238766Y109552D01*
X239474Y108845D01*
D02*
G37*
G36*
X322776Y105236D02*
X322819Y105151D01*
X322881Y105076D01*
X322961Y105011D01*
X323058Y104956D01*
X323174Y104911D01*
X323307Y104876D01*
X323458Y104851D01*
X323627Y104836D01*
X323814Y104831D01*
Y103831D01*
X323627Y103826D01*
X323458Y103811D01*
X323307Y103786D01*
X323174Y103751D01*
X323058Y103706D01*
X322961Y103651D01*
X322881Y103586D01*
X322819Y103511D01*
X322776Y103426D01*
X322749Y103331D01*
Y105331D01*
X322776Y105236D01*
D02*
G37*
G36*
X294592Y89160D02*
X294463Y89025D01*
X294354Y88894D01*
X294265Y88770D01*
X294196Y88651D01*
X294146Y88538D01*
X294116Y88430D01*
X294106Y88328D01*
X294115Y88231D01*
X294144Y88140D01*
X294193Y88054D01*
X292778Y89468D01*
X292864Y89420D01*
X292955Y89391D01*
X293052Y89381D01*
X293154Y89392D01*
X293262Y89422D01*
X293375Y89471D01*
X293494Y89541D01*
X293619Y89630D01*
X293749Y89739D01*
X293884Y89867D01*
X294592Y89160D01*
D02*
G37*
G36*
X267033D02*
X266904Y89025D01*
X266795Y88894D01*
X266706Y88770D01*
X266637Y88651D01*
X266587Y88538D01*
X266557Y88430D01*
X266547Y88328D01*
X266556Y88231D01*
X266585Y88140D01*
X266634Y88054D01*
X265219Y89468D01*
X265305Y89420D01*
X265396Y89391D01*
X265493Y89381D01*
X265595Y89392D01*
X265703Y89422D01*
X265816Y89471D01*
X265935Y89541D01*
X266060Y89630D01*
X266190Y89739D01*
X266325Y89867D01*
X267033Y89160D01*
D02*
G37*
G36*
X239474D02*
X239345Y89025D01*
X239236Y88894D01*
X239147Y88770D01*
X239078Y88651D01*
X239028Y88538D01*
X238998Y88430D01*
X238987Y88328D01*
X238997Y88231D01*
X239026Y88140D01*
X239075Y88054D01*
X237660Y89468D01*
X237746Y89420D01*
X237837Y89391D01*
X237934Y89381D01*
X238036Y89392D01*
X238144Y89422D01*
X238257Y89471D01*
X238376Y89541D01*
X238501Y89630D01*
X238631Y89739D01*
X238766Y89867D01*
X239474Y89160D01*
D02*
G37*
G36*
X211914D02*
X211786Y89025D01*
X211677Y88894D01*
X211588Y88770D01*
X211519Y88651D01*
X211469Y88538D01*
X211439Y88430D01*
X211428Y88328D01*
X211438Y88231D01*
X211467Y88140D01*
X211515Y88054D01*
X210101Y89468D01*
X210187Y89420D01*
X210278Y89391D01*
X210375Y89381D01*
X210477Y89392D01*
X210585Y89422D01*
X210698Y89471D01*
X210817Y89541D01*
X210942Y89630D01*
X211072Y89739D01*
X211207Y89867D01*
X211914Y89160D01*
D02*
G37*
G36*
X322776Y85551D02*
X322819Y85466D01*
X322881Y85391D01*
X322961Y85326D01*
X323058Y85271D01*
X323174Y85226D01*
X323307Y85191D01*
X323458Y85166D01*
X323627Y85151D01*
X323814Y85146D01*
Y84146D01*
X323627Y84141D01*
X323458Y84126D01*
X323307Y84101D01*
X323174Y84066D01*
X323058Y84021D01*
X322961Y83966D01*
X322881Y83901D01*
X322819Y83826D01*
X322776Y83741D01*
X322749Y83646D01*
Y85646D01*
X322776Y85551D01*
D02*
G37*
G36*
X197615Y79798D02*
X197559Y79725D01*
X197511Y79646D01*
X197468Y79562D01*
X197432Y79471D01*
X197403Y79375D01*
X197380Y79272D01*
X197363Y79164D01*
X197354Y79050D01*
X197350Y78930D01*
X196350D01*
X196347Y79050D01*
X196337Y79164D01*
X196321Y79272D01*
X196298Y79375D01*
X196269Y79471D01*
X196233Y79562D01*
X196190Y79646D01*
X196141Y79725D01*
X196086Y79798D01*
X196024Y79865D01*
X197677D01*
X197615Y79798D01*
D02*
G37*
G36*
X235017Y64050D02*
X234961Y63977D01*
X234912Y63898D01*
X234870Y63814D01*
X234834Y63723D01*
X234804Y63627D01*
X234781Y63524D01*
X234765Y63416D01*
X234755Y63302D01*
X234752Y63182D01*
X233752D01*
X233749Y63302D01*
X233739Y63416D01*
X233723Y63524D01*
X233700Y63627D01*
X233670Y63723D01*
X233634Y63814D01*
X233592Y63898D01*
X233543Y63977D01*
X233487Y64050D01*
X233425Y64117D01*
X235079D01*
X235017Y64050D01*
D02*
G37*
G36*
X234757Y61816D02*
X234772Y61647D01*
X234797Y61496D01*
X234832Y61363D01*
X234877Y61247D01*
X234932Y61150D01*
X234997Y61070D01*
X235072Y61008D01*
X235157Y60964D01*
X235252Y60938D01*
X233252D01*
X233347Y60964D01*
X233432Y61008D01*
X233507Y61070D01*
X233572Y61150D01*
X233627Y61247D01*
X233672Y61363D01*
X233707Y61496D01*
X233732Y61647D01*
X233747Y61816D01*
X233752Y62002D01*
X234752D01*
X234757Y61816D01*
D02*
G37*
G36*
X202314Y60211D02*
X202444Y60102D01*
X202569Y60013D01*
X202688Y59944D01*
X202801Y59894D01*
X202909Y59864D01*
X203011Y59854D01*
X203108Y59863D01*
X203199Y59892D01*
X203285Y59941D01*
X201870Y58526D01*
X201919Y58612D01*
X201948Y58703D01*
X201957Y58800D01*
X201947Y58902D01*
X201917Y59010D01*
X201867Y59123D01*
X201798Y59242D01*
X201709Y59367D01*
X201600Y59497D01*
X201471Y59632D01*
X202179Y60340D01*
X202314Y60211D01*
D02*
G37*
G36*
X317834Y49272D02*
X317749Y49228D01*
X317674Y49166D01*
X317609Y49086D01*
X317554Y48989D01*
X317509Y48874D01*
X317474Y48740D01*
X317449Y48589D01*
X317434Y48421D01*
X317429Y48234D01*
X316429D01*
X316424Y48421D01*
X316409Y48589D01*
X316384Y48740D01*
X316349Y48874D01*
X316304Y48989D01*
X316249Y49086D01*
X316184Y49166D01*
X316109Y49228D01*
X316024Y49272D01*
X315929Y49298D01*
X317929D01*
X317834Y49272D01*
D02*
G37*
G36*
X290275D02*
X290190Y49228D01*
X290115Y49166D01*
X290050Y49086D01*
X289995Y48989D01*
X289950Y48874D01*
X289915Y48740D01*
X289890Y48589D01*
X289875Y48421D01*
X289870Y48234D01*
X288870D01*
X288865Y48421D01*
X288850Y48589D01*
X288825Y48740D01*
X288790Y48874D01*
X288745Y48989D01*
X288690Y49086D01*
X288625Y49166D01*
X288550Y49228D01*
X288465Y49272D01*
X288370Y49298D01*
X290370D01*
X290275Y49272D01*
D02*
G37*
G36*
X262716D02*
X262631Y49228D01*
X262556Y49166D01*
X262491Y49086D01*
X262436Y48989D01*
X262391Y48874D01*
X262356Y48740D01*
X262331Y48589D01*
X262316Y48421D01*
X262311Y48234D01*
X261311D01*
X261306Y48421D01*
X261291Y48589D01*
X261266Y48740D01*
X261231Y48874D01*
X261186Y48989D01*
X261131Y49086D01*
X261066Y49166D01*
X260991Y49228D01*
X260906Y49272D01*
X260811Y49298D01*
X262811D01*
X262716Y49272D01*
D02*
G37*
G36*
X262314Y46541D02*
X262324Y46426D01*
X262340Y46318D01*
X262363Y46216D01*
X262393Y46119D01*
X262429Y46029D01*
X262471Y45944D01*
X262520Y45865D01*
X262576Y45792D01*
X262638Y45725D01*
X260984D01*
X261046Y45792D01*
X261102Y45865D01*
X261151Y45944D01*
X261193Y46029D01*
X261229Y46119D01*
X261259Y46216D01*
X261282Y46318D01*
X261298Y46426D01*
X261308Y46541D01*
X261311Y46661D01*
X262311D01*
X262314Y46541D01*
D02*
G37*
G36*
X289873Y31186D02*
X289883Y31072D01*
X289899Y30964D01*
X289922Y30861D01*
X289952Y30765D01*
X289988Y30674D01*
X290030Y30590D01*
X290079Y30511D01*
X290135Y30438D01*
X290197Y30371D01*
X288543D01*
X288605Y30438D01*
X288661Y30511D01*
X288710Y30590D01*
X288752Y30674D01*
X288788Y30765D01*
X288818Y30861D01*
X288841Y30964D01*
X288857Y31072D01*
X288867Y31186D01*
X288870Y31306D01*
X289870D01*
X289873Y31186D01*
D02*
G37*
G36*
X317432Y11501D02*
X317442Y11387D01*
X317459Y11279D01*
X317481Y11176D01*
X317511Y11080D01*
X317547Y10989D01*
X317589Y10905D01*
X317638Y10826D01*
X317694Y10753D01*
X317756Y10686D01*
X316102D01*
X316164Y10753D01*
X316220Y10826D01*
X316269Y10905D01*
X316312Y10989D01*
X316347Y11080D01*
X316377Y11176D01*
X316400Y11279D01*
X316416Y11387D01*
X316426Y11501D01*
X316429Y11621D01*
X317429D01*
X317432Y11501D01*
D02*
G37*
D12*
X159449Y120079D02*
D03*
X196850Y80709D02*
D03*
X190945Y100394D02*
D03*
X114173Y139764D02*
D03*
X74803Y159449D02*
D03*
X316929Y9843D02*
D03*
X289370Y29528D02*
D03*
X261811Y44882D02*
D03*
X234252Y64961D02*
D03*
X15748Y179134D02*
D03*
D13*
X234252Y55118D02*
D03*
X68898Y84646D02*
D03*
Y104331D02*
D03*
X206693D02*
D03*
X234252Y84646D02*
D03*
X289370Y104331D02*
D03*
X206693Y84646D02*
D03*
X261811D02*
D03*
X289370D02*
D03*
X234252Y104331D02*
D03*
X316929D02*
D03*
X261811D02*
D03*
X316929Y84646D02*
D03*
X96457Y104331D02*
D03*
X151575D02*
D03*
Y84646D02*
D03*
X96457D02*
D03*
X124016D02*
D03*
X179134D02*
D03*
Y104331D02*
D03*
X124016D02*
D03*
X206693Y55118D02*
D03*
X316929D02*
D03*
X289370D02*
D03*
X261811D02*
D03*
X151575D02*
D03*
X124016D02*
D03*
X96457D02*
D03*
X68898D02*
D03*
X179134D02*
D03*
D14*
X5906Y159449D02*
D03*
X379921D02*
D03*
X360236D02*
D03*
X340551D02*
D03*
X320866D02*
D03*
X301181D02*
D03*
X281496D02*
D03*
X261811D02*
D03*
X242126D02*
D03*
X222441D02*
D03*
X202756D02*
D03*
X183071D02*
D03*
X163386D02*
D03*
X143701D02*
D03*
X124016D02*
D03*
X104331D02*
D03*
X84646D02*
D03*
X64961D02*
D03*
X45276D02*
D03*
X25591D02*
D03*
D15*
X316929Y84646D02*
X346457D01*
X379921Y118110D02*
Y159449D01*
X346457Y84646D02*
X379921Y118110D01*
X316929Y104331D02*
X342520D01*
X360236Y122047D02*
Y159449D01*
X342520Y104331D02*
X360236Y122047D01*
X340551Y124016D02*
Y159449D01*
X332677Y116142D02*
X340551Y124016D01*
X311811Y116142D02*
X332677D01*
X303150Y107480D02*
X311811Y116142D01*
X308268Y123228D02*
X318110D01*
X289370Y104331D02*
X308268Y123228D01*
X318110D02*
X320866Y125984D01*
X289370Y84646D02*
X303150Y98425D01*
Y107480D01*
X320866Y125984D02*
Y159449D01*
X360236D02*
X360236Y159449D01*
X275591Y106299D02*
X285827Y116535D01*
X275591Y98425D02*
Y106299D01*
X285827Y116535D02*
X293307D01*
X301181Y124409D01*
Y159449D01*
X261811Y84646D02*
X275591Y98425D01*
X261811Y104331D02*
X281496Y124016D01*
Y159449D01*
X248031Y98425D02*
Y106693D01*
X261811Y120473D02*
Y159449D01*
X248031Y106693D02*
X261811Y120473D01*
X234252Y84646D02*
X248031Y98425D01*
X242126Y112205D02*
Y159449D01*
X234252Y104331D02*
X242126Y112205D01*
X64961Y125984D02*
Y159449D01*
Y125984D02*
X68504Y122441D01*
X78347D01*
X96457Y104331D01*
X45276Y124016D02*
X52756Y116535D01*
X70079D01*
X82677Y103937D01*
Y98425D02*
Y103937D01*
X84646Y126378D02*
X88189Y122835D01*
X98819D02*
X113386Y108268D01*
X88189Y122835D02*
X98819D01*
X74803Y131102D02*
X89370Y116535D01*
X98819D01*
X107087Y108268D01*
X84646Y126378D02*
Y159449D01*
X113386Y95276D02*
Y108268D01*
X96457Y55118D02*
X107087Y65748D01*
Y108268D01*
X113386Y95276D02*
X124016Y84646D01*
X114173Y127953D02*
Y139764D01*
Y127953D02*
X134646Y107480D01*
Y65748D02*
Y107480D01*
X124016Y126772D02*
X140945Y109843D01*
Y95276D02*
Y109843D01*
X124016Y126772D02*
Y159449D01*
X151575Y104331D02*
Y115354D01*
X143701Y123228D02*
Y159449D01*
Y123228D02*
X151575Y115354D01*
X140945Y95276D02*
X151575Y84646D01*
X124016Y55118D02*
X134646Y65748D01*
X159449Y120079D02*
X163386Y116142D01*
Y66929D02*
Y116142D01*
X151575Y55118D02*
X163386Y66929D01*
Y124016D02*
X169291Y118110D01*
Y94488D02*
Y118110D01*
X163386Y124016D02*
Y159449D01*
X169291Y94488D02*
X179134Y84646D01*
X196850Y64961D02*
X206693Y55118D01*
X196850Y64961D02*
Y80709D01*
X179134Y55118D02*
X190945Y66929D01*
Y100394D01*
X222441D02*
Y159449D01*
X206693Y84646D02*
X222441Y100394D01*
X202756Y122047D02*
Y159449D01*
Y122047D02*
X206693Y118110D01*
Y104331D02*
Y118110D01*
X179134Y104331D02*
Y118110D01*
X183071Y122047D01*
Y159449D01*
X74803Y131102D02*
Y159449D01*
X316929Y9843D02*
Y55118D01*
X289370Y29528D02*
Y55118D01*
X261811Y44882D02*
Y55118D01*
X234252D02*
Y64961D01*
X80709Y66929D02*
Y88583D01*
X68898Y55118D02*
X80709Y66929D01*
X74803Y94488D02*
X80709Y88583D01*
X45276Y94488D02*
X74803D01*
X25591Y125984D02*
X47244Y104331D01*
X68898D01*
X25591Y125984D02*
Y159449D01*
X15748Y124016D02*
Y179134D01*
Y124016D02*
X45276Y94488D01*
X104331Y124016D02*
Y159449D01*
Y124016D02*
X124016Y104331D01*
X82677Y98425D02*
X96457Y84646D01*
X45276Y124016D02*
Y159449D01*
X5906Y122047D02*
Y159449D01*
X43307Y84646D02*
X68898D01*
X5906Y122047D02*
X43307Y84646D01*
M02*
