G04*
G04 #@! TF.GenerationSoftware,Altium Limited,Altium Designer,21.3.2 (30)*
G04*
G04 Layer_Color=8421504*
%FSLAX25Y25*%
%MOIN*%
G70*
G04*
G04 #@! TF.SameCoordinates,0941D6B8-9053-4ACA-ABC4-2B4951EE2B0C*
G04*
G04*
G04 #@! TF.FilePolarity,Positive*
G04*
G01*
G75*
%ADD18R,0.03150X0.03150*%
%ADD19R,0.03150X0.03150*%
%ADD20R,0.19685X0.05118*%
%ADD21R,0.05906X0.05906*%
%ADD22R,0.01575X0.06299*%
%ADD23O,0.00984X0.06102*%
%ADD24O,0.06102X0.00984*%
%ADD25R,0.03543X0.03740*%
%ADD26R,0.04724X0.03150*%
%ADD27R,0.04724X0.04724*%
G04:AMPARAMS|DCode=28|XSize=37.4mil|YSize=84.65mil|CornerRadius=1.87mil|HoleSize=0mil|Usage=FLASHONLY|Rotation=180.000|XOffset=0mil|YOffset=0mil|HoleType=Round|Shape=RoundedRectangle|*
%AMROUNDEDRECTD28*
21,1,0.03740,0.08091,0,0,180.0*
21,1,0.03366,0.08465,0,0,180.0*
1,1,0.00374,-0.01683,0.04045*
1,1,0.00374,0.01683,0.04045*
1,1,0.00374,0.01683,-0.04045*
1,1,0.00374,-0.01683,-0.04045*
%
%ADD28ROUNDEDRECTD28*%
G04:AMPARAMS|DCode=29|XSize=127.95mil|YSize=84.65mil|CornerRadius=4.23mil|HoleSize=0mil|Usage=FLASHONLY|Rotation=180.000|XOffset=0mil|YOffset=0mil|HoleType=Round|Shape=RoundedRectangle|*
%AMROUNDEDRECTD29*
21,1,0.12795,0.07618,0,0,180.0*
21,1,0.11949,0.08465,0,0,180.0*
1,1,0.00847,-0.05974,0.03809*
1,1,0.00847,0.05974,0.03809*
1,1,0.00847,0.05974,-0.03809*
1,1,0.00847,-0.05974,-0.03809*
%
%ADD29ROUNDEDRECTD29*%
%ADD30C,0.02000*%
G36*
X228454Y63484D02*
X228346Y63582D01*
X228225Y63670D01*
X228091Y63747D01*
X227943Y63814D01*
X227783Y63871D01*
X227608Y63917D01*
X227421Y63954D01*
X227221Y63979D01*
X227007Y63995D01*
X226780Y64000D01*
Y66000D01*
X227007Y66005D01*
X227421Y66046D01*
X227608Y66083D01*
X227783Y66129D01*
X227943Y66186D01*
X228091Y66253D01*
X228225Y66330D01*
X228346Y66418D01*
X228454Y66516D01*
Y63484D01*
D02*
G37*
D18*
X286299Y170000D02*
D03*
X280000D02*
D03*
X266299D02*
D03*
X260000D02*
D03*
X238701D02*
D03*
X245000D02*
D03*
X200000Y20000D02*
D03*
X206299D02*
D03*
X150000D02*
D03*
X156299D02*
D03*
X300000D02*
D03*
X306299D02*
D03*
X251299Y60000D02*
D03*
X245000D02*
D03*
Y50000D02*
D03*
X251299D02*
D03*
X281299D02*
D03*
X275000D02*
D03*
X281299Y60000D02*
D03*
X275000D02*
D03*
X290224Y135000D02*
D03*
X283925D02*
D03*
X290224Y126673D02*
D03*
X283925D02*
D03*
X287205Y100000D02*
D03*
X280906D02*
D03*
X229933Y105020D02*
D03*
X236232D02*
D03*
X63701Y154842D02*
D03*
X70000D02*
D03*
Y145000D02*
D03*
X63701D02*
D03*
Y134843D02*
D03*
X70000D02*
D03*
Y125000D02*
D03*
X63701D02*
D03*
X152500Y145000D02*
D03*
X146201D02*
D03*
X152500Y155000D02*
D03*
X146201D02*
D03*
X152500Y165000D02*
D03*
X146201D02*
D03*
X152500Y175000D02*
D03*
X146201D02*
D03*
X152500Y185000D02*
D03*
X146201D02*
D03*
X152500Y195000D02*
D03*
X146201D02*
D03*
X152500Y205000D02*
D03*
X146201D02*
D03*
X152500Y215000D02*
D03*
X146201D02*
D03*
X152500Y225000D02*
D03*
X146201D02*
D03*
X152500Y235000D02*
D03*
X146201D02*
D03*
X55000Y320000D02*
D03*
X61299D02*
D03*
Y245000D02*
D03*
X55000D02*
D03*
Y260000D02*
D03*
X61299D02*
D03*
Y275000D02*
D03*
X55000D02*
D03*
Y290000D02*
D03*
X61299D02*
D03*
Y305000D02*
D03*
X55000D02*
D03*
D19*
X255157Y152992D02*
D03*
Y146693D02*
D03*
X277000Y81201D02*
D03*
Y87500D02*
D03*
X268000D02*
D03*
Y81201D02*
D03*
X260032Y87500D02*
D03*
Y81201D02*
D03*
D20*
X245000Y185000D02*
D03*
X279646D02*
D03*
D21*
X250000Y10000D02*
D03*
X279921D02*
D03*
D22*
X259842Y20728D02*
D03*
X262402D02*
D03*
X264961D02*
D03*
X267520D02*
D03*
X270079D02*
D03*
D23*
X270905Y131693D02*
D03*
X268937D02*
D03*
X266968D02*
D03*
X265000D02*
D03*
X263032D02*
D03*
X261063D02*
D03*
X259095D02*
D03*
X257126D02*
D03*
X255157D02*
D03*
X253189D02*
D03*
X251220D02*
D03*
X249252D02*
D03*
Y100000D02*
D03*
X251220D02*
D03*
X253189D02*
D03*
X255157D02*
D03*
X257126D02*
D03*
X259095D02*
D03*
X261063D02*
D03*
X263032D02*
D03*
X265000D02*
D03*
X266968D02*
D03*
X268937D02*
D03*
X270905D02*
D03*
D24*
X244232Y126673D02*
D03*
Y124705D02*
D03*
Y122736D02*
D03*
Y120768D02*
D03*
Y118799D02*
D03*
Y116831D02*
D03*
Y114862D02*
D03*
Y112894D02*
D03*
Y110925D02*
D03*
Y108957D02*
D03*
Y106988D02*
D03*
Y105020D02*
D03*
X275925D02*
D03*
Y106988D02*
D03*
Y108957D02*
D03*
Y110925D02*
D03*
Y112894D02*
D03*
Y114862D02*
D03*
Y116831D02*
D03*
Y118799D02*
D03*
Y120768D02*
D03*
Y122736D02*
D03*
Y124705D02*
D03*
Y126673D02*
D03*
D25*
X80000Y125000D02*
D03*
X83740Y134843D02*
D03*
X87480Y125000D02*
D03*
X80000Y145000D02*
D03*
X83740Y154842D02*
D03*
X87480Y145000D02*
D03*
D26*
X44921Y320000D02*
D03*
X15000D02*
D03*
X44921Y290000D02*
D03*
X15000D02*
D03*
X44921Y260000D02*
D03*
X15000D02*
D03*
D27*
X35000Y45000D02*
D03*
Y53000D02*
D03*
X180000D02*
D03*
Y45000D02*
D03*
X130000Y53000D02*
D03*
Y45000D02*
D03*
X115000Y53000D02*
D03*
Y45000D02*
D03*
X195000Y53000D02*
D03*
Y45000D02*
D03*
X20000Y53000D02*
D03*
Y45000D02*
D03*
X100000Y53000D02*
D03*
Y45000D02*
D03*
X85000Y53000D02*
D03*
Y45000D02*
D03*
D28*
X145945Y40000D02*
D03*
X155000D02*
D03*
X164055D02*
D03*
X50945D02*
D03*
X60000D02*
D03*
X69055D02*
D03*
D29*
X155000Y62835D02*
D03*
X60000D02*
D03*
D30*
X170000Y65000D02*
X230000D01*
M02*
