G04*
G04 #@! TF.GenerationSoftware,Altium Limited,Altium Designer,21.3.2 (30)*
G04*
G04 Layer_Color=65535*
%FSLAX25Y25*%
%MOIN*%
G70*
G04*
G04 #@! TF.SameCoordinates,0941D6B8-9053-4ACA-ABC4-2B4951EE2B0C*
G04*
G04*
G04 #@! TF.FilePolarity,Positive*
G04*
G01*
G75*
%ADD10C,0.00984*%
%ADD11C,0.02362*%
%ADD12C,0.00787*%
%ADD13C,0.00700*%
%ADD14C,0.00394*%
%ADD15C,0.00800*%
%ADD16C,0.01000*%
%ADD17R,0.10000X0.05000*%
G36*
X73550Y30950D02*
X66450D01*
X69950Y27450D01*
Y27350D01*
X73550Y30950D01*
D02*
G37*
D10*
X274055Y131693D02*
X273317Y132119D01*
Y131267D01*
X274055Y131693D01*
X146492Y47417D02*
X145754Y47844D01*
Y46991D01*
X146492Y47417D01*
X51492D02*
X50754Y47844D01*
Y46991D01*
X51492Y47417D01*
D11*
X268543Y123130D02*
X268099Y124053D01*
X267099Y124281D01*
X266298Y123642D01*
Y122617D01*
X267099Y121978D01*
X268099Y122206D01*
X268543Y123130D01*
D12*
X277638Y172362D02*
X288661D01*
X277638Y167638D02*
Y172362D01*
Y167638D02*
X288661D01*
Y172362D01*
X257638Y167638D02*
Y172362D01*
X268661D01*
Y167638D02*
Y172362D01*
X257638Y167638D02*
X268661D01*
X236339D02*
X247362D01*
Y172362D01*
X236339D02*
X247362D01*
X236339Y167638D02*
Y172362D01*
X252795Y144331D02*
Y155354D01*
Y144331D02*
X257520D01*
Y155354D01*
X252795D02*
X257520D01*
X239685Y193861D02*
X284961D01*
X239685Y176145D02*
X284961D01*
Y188940D02*
Y193861D01*
Y176145D02*
Y181066D01*
X239685Y188940D02*
Y193861D01*
Y176145D02*
Y181066D01*
X208661Y17638D02*
Y22362D01*
X197638Y17638D02*
X208661D01*
X197638D02*
Y22362D01*
X208661D01*
X158661Y17638D02*
Y22362D01*
X147638Y17638D02*
X158661D01*
X147638D02*
Y22362D01*
X158661D01*
X308661Y17638D02*
Y22362D01*
X297638Y17638D02*
X308661D01*
X297638D02*
Y22362D01*
X308661D01*
X250000Y158D02*
Y6457D01*
Y158D02*
X280118D01*
Y6260D01*
X250000Y21614D02*
X258268D01*
X250000Y13740D02*
Y21614D01*
X279921Y13740D02*
Y21614D01*
X271654D02*
X279921D01*
X242638Y57638D02*
Y62362D01*
X253661D01*
Y57638D02*
Y62362D01*
X242638Y57638D02*
X253661D01*
X253661Y47638D02*
Y52362D01*
X242638Y47638D02*
X253661D01*
X242638D02*
Y52362D01*
X253661D01*
X272638Y47638D02*
Y52362D01*
X283661D01*
Y47638D02*
Y52362D01*
X272638Y47638D02*
X283661D01*
X272638Y57638D02*
Y62362D01*
X283661D01*
Y57638D02*
Y62362D01*
X272638Y57638D02*
X283661D01*
X279362Y78839D02*
Y89862D01*
X274638D02*
X279362D01*
X274638Y78839D02*
Y89862D01*
Y78839D02*
X279362D01*
X265638Y78839D02*
Y89862D01*
Y78839D02*
X270362D01*
Y89862D01*
X265638D02*
X270362D01*
X257669Y78839D02*
Y89862D01*
Y78839D02*
X262394D01*
Y89862D01*
X257669D02*
X262394D01*
X281563Y132638D02*
Y137362D01*
X292587D01*
Y132638D02*
Y137362D01*
X281563Y132638D02*
X292587D01*
X281563Y129035D02*
X292587D01*
X281563Y124311D02*
Y129035D01*
Y124311D02*
X292587D01*
Y129035D01*
X278543Y102362D02*
X289567D01*
X278543Y97638D02*
Y102362D01*
Y97638D02*
X289567D01*
Y102362D01*
X227571Y102657D02*
X238595D01*
Y107382D01*
X227571D02*
X238595D01*
X227571Y102657D02*
Y107382D01*
X248858Y127067D02*
X271299D01*
X248858Y104626D02*
X271299D01*
Y127067D01*
X248858Y104626D02*
Y127067D01*
X72362Y152480D02*
Y157205D01*
X61339Y152480D02*
X72362D01*
X61339D02*
Y157205D01*
X72362D01*
X61339Y142638D02*
Y147362D01*
X72362D01*
Y142638D02*
Y147362D01*
X61339Y142638D02*
X72362D01*
X72362Y132480D02*
Y137205D01*
X61339Y132480D02*
X72362D01*
X61339D02*
Y137205D01*
X72362D01*
X61339Y122638D02*
Y127362D01*
X72362D01*
Y122638D02*
Y127362D01*
X61339Y122638D02*
X72362D01*
X78031Y134646D02*
X81083D01*
X86398D02*
X89449D01*
Y127756D02*
Y134646D01*
X82657Y125197D02*
X84823D01*
X78031Y127756D02*
Y134646D01*
Y154646D02*
X81083D01*
X86398D02*
X89449D01*
Y147756D02*
Y154646D01*
X82657Y145197D02*
X84823D01*
X78031Y147756D02*
Y154646D01*
X143839Y142638D02*
Y147362D01*
X154862D01*
Y142638D02*
Y147362D01*
X143839Y142638D02*
X154862D01*
X143839Y152638D02*
Y157362D01*
X154862D01*
Y152638D02*
Y157362D01*
X143839Y152638D02*
X154862D01*
X143839Y162638D02*
Y167362D01*
X154862D01*
Y162638D02*
Y167362D01*
X143839Y162638D02*
X154862D01*
X143839Y172638D02*
Y177362D01*
X154862D01*
Y172638D02*
Y177362D01*
X143839Y172638D02*
X154862D01*
X143839Y182638D02*
Y187362D01*
X154862D01*
Y182638D02*
Y187362D01*
X143839Y182638D02*
X154862D01*
X143839Y192638D02*
Y197362D01*
X154862D01*
Y192638D02*
Y197362D01*
X143839Y192638D02*
X154862D01*
X143839Y202638D02*
Y207362D01*
X154862D01*
Y202638D02*
Y207362D01*
X143839Y202638D02*
X154862D01*
X143839Y212638D02*
Y217362D01*
X154862D01*
Y212638D02*
Y217362D01*
X143839Y212638D02*
X154862D01*
X143839Y222638D02*
Y227362D01*
X154862D01*
Y222638D02*
Y227362D01*
X143839Y222638D02*
X154862D01*
X143839Y232638D02*
Y237362D01*
X154862D01*
Y232638D02*
Y237362D01*
X143839Y232638D02*
X154862D01*
X52638Y317638D02*
X63661D01*
Y322362D01*
X52638D02*
X63661D01*
X52638Y317638D02*
Y322362D01*
Y242638D02*
Y247362D01*
X63661D01*
Y242638D02*
Y247362D01*
X52638Y242638D02*
X63661D01*
X52638Y257638D02*
X63661D01*
Y262362D01*
X52638D02*
X63661D01*
X52638Y257638D02*
Y262362D01*
Y272638D02*
Y277362D01*
X63661D01*
Y272638D02*
Y277362D01*
X52638Y272638D02*
X63661D01*
X52638Y287638D02*
X63661D01*
Y292362D01*
X52638D02*
X63661D01*
X52638Y287638D02*
Y292362D01*
Y302638D02*
Y307362D01*
X63661D01*
Y302638D02*
Y307362D01*
X52638Y302638D02*
X63661D01*
X41061Y312700D02*
Y317200D01*
Y322800D02*
Y327300D01*
X18861D02*
X41061D01*
X18861Y312700D02*
X41061D01*
X18861D02*
Y317200D01*
Y322800D02*
Y327300D01*
X41061Y282700D02*
Y287200D01*
Y292800D02*
Y297300D01*
X18861D02*
X41061D01*
X18861Y282700D02*
X41061D01*
X18861D02*
Y287200D01*
Y292800D02*
Y297300D01*
X41061Y252700D02*
Y257200D01*
Y262800D02*
Y267300D01*
X18861D02*
X41061D01*
X18861Y252700D02*
X41061D01*
X18861D02*
Y257200D01*
Y262800D02*
Y267300D01*
X31752Y56185D02*
X38150D01*
Y41815D02*
Y56185D01*
X31752Y41815D02*
X38150D01*
X31752D02*
Y56185D01*
X176752Y41815D02*
Y56185D01*
Y41815D02*
X183150D01*
Y56185D01*
X176752D02*
X183150D01*
X142205Y45118D02*
X167795D01*
X142205Y57717D02*
X167795D01*
X142205Y45118D02*
Y57717D01*
X167795Y45118D02*
Y57717D01*
X126752Y41815D02*
Y56185D01*
Y41815D02*
X133150D01*
Y56185D01*
X126752D02*
X133150D01*
X111752Y41815D02*
Y56185D01*
Y41815D02*
X118150D01*
Y56185D01*
X111752D02*
X118150D01*
X191752Y41815D02*
Y56185D01*
Y41815D02*
X198150D01*
Y56185D01*
X191752D02*
X198150D01*
X47205Y45118D02*
X72795D01*
X47205Y57717D02*
X72795D01*
X47205Y45118D02*
Y57717D01*
X72795Y45118D02*
Y57717D01*
X16752Y41815D02*
Y56185D01*
Y41815D02*
X23150D01*
Y56185D01*
X16752D02*
X23150D01*
X96752Y41815D02*
Y56185D01*
Y41815D02*
X103150D01*
Y56185D01*
X96752D02*
X103150D01*
X81752Y41815D02*
Y56185D01*
Y41815D02*
X88150D01*
Y56185D01*
X81752D02*
X88150D01*
X235984Y-34500D02*
Y-1000D01*
X194000Y-34500D02*
X235984D01*
X194000D02*
Y-1000D01*
X235984D01*
X185984Y-34500D02*
Y-1000D01*
X144000Y-34500D02*
X185984D01*
X144000D02*
Y-1000D01*
X185984D01*
D13*
X47900Y23000D02*
Y26000D01*
Y23000D02*
X52900D01*
Y26000D01*
X67800Y22900D02*
Y25900D01*
Y22900D02*
X72800D01*
Y25900D01*
X40000Y2000D02*
Y16000D01*
X80000Y2000D02*
Y26000D01*
X40000D02*
X80000D01*
X40000Y16000D02*
Y26000D01*
Y2000D02*
X80000D01*
D14*
X247450Y58800D02*
Y61200D01*
Y60000D02*
X248850Y58800D01*
X247450Y60000D02*
X248850Y61200D01*
Y58800D02*
Y61200D01*
X277450Y58800D02*
Y61200D01*
Y60000D02*
X278850Y58800D01*
X277450Y60000D02*
X278850Y61200D01*
Y58800D02*
Y61200D01*
D15*
X24961Y317500D02*
Y322500D01*
Y317500D02*
X34961D01*
Y322500D01*
X24961D02*
X34961D01*
X24961Y287500D02*
Y292500D01*
Y287500D02*
X34961D01*
Y292500D01*
X24961D02*
X34961D01*
X24961Y257500D02*
Y262500D01*
Y257500D02*
X34961D01*
Y262500D01*
X24961D02*
X34961D01*
D16*
X157000Y357000D02*
Y362998D01*
X159999D01*
X160999Y361998D01*
Y359999D01*
X159999Y358999D01*
X157000D01*
X158999D02*
X160999Y357000D01*
X163998D02*
X165997D01*
X166997Y357999D01*
Y359999D01*
X165997Y360998D01*
X163998D01*
X162998Y359999D01*
Y357999D01*
X163998Y357000D01*
X168996Y362998D02*
Y357000D01*
X171995D01*
X172995Y357999D01*
Y358999D01*
Y359999D01*
X171995Y360998D01*
X168996D01*
X175994Y357000D02*
X177993D01*
X178993Y357999D01*
Y359999D01*
X177993Y360998D01*
X175994D01*
X174994Y359999D01*
Y357999D01*
X175994Y357000D01*
X181992Y361998D02*
Y360998D01*
X180992D01*
X182992D01*
X181992D01*
Y357999D01*
X182992Y357000D01*
X185991Y356000D02*
X189989D01*
X191989Y362998D02*
Y358999D01*
X193988Y357000D01*
X195987Y358999D01*
Y362998D01*
X201985Y357000D02*
X197987D01*
X201985Y360998D01*
Y361998D01*
X200986Y362998D01*
X198986D01*
X197987Y361998D01*
X203985Y357000D02*
Y357999D01*
X204984D01*
Y357000D01*
X203985D01*
X208983Y361998D02*
X209983Y362998D01*
X211982D01*
X212982Y361998D01*
Y357999D01*
X211982Y357000D01*
X209983D01*
X208983Y357999D01*
Y361998D01*
X282001Y89498D02*
X285999D01*
Y87499D01*
X285333Y86833D01*
X284000D01*
X283334Y87499D01*
Y89498D01*
Y88165D02*
X282001Y86833D01*
Y85500D02*
Y84167D01*
Y84833D01*
X285999D01*
X285333Y85500D01*
Y82167D02*
X285999Y81501D01*
Y80168D01*
X285333Y79502D01*
X284666D01*
X284000Y80168D01*
X283334Y79502D01*
X282667D01*
X282001Y80168D01*
Y81501D01*
X282667Y82167D01*
X283334D01*
X284000Y81501D01*
X284666Y82167D01*
X285333D01*
X284000Y81501D02*
Y80168D01*
X323667Y106332D02*
X323001Y106999D01*
X321668D01*
X321001Y106332D01*
Y103666D01*
X321668Y103000D01*
X323001D01*
X323667Y103666D01*
Y104999D01*
X322334D01*
X325000Y103000D02*
Y106999D01*
X327666Y103000D01*
Y106999D01*
X328999D02*
Y103000D01*
X330998D01*
X331664Y103666D01*
Y106332D01*
X330998Y106999D01*
X328999D01*
X327666Y96332D02*
X326999Y96999D01*
X325666D01*
X325000Y96332D01*
Y95666D01*
X325666Y94999D01*
X326999D01*
X327666Y94333D01*
Y93666D01*
X326999Y93000D01*
X325666D01*
X325000Y93666D01*
X331664Y96999D02*
X330332Y96332D01*
X328999Y94999D01*
Y93666D01*
X329665Y93000D01*
X330998D01*
X331664Y93666D01*
Y94333D01*
X330998Y94999D01*
X328999D01*
X327666Y46332D02*
X326999Y46999D01*
X325666D01*
X325000Y46332D01*
Y45666D01*
X325666Y44999D01*
X326999D01*
X327666Y44333D01*
Y43666D01*
X326999Y43000D01*
X325666D01*
X325000Y43666D01*
X328999Y43000D02*
X330332D01*
X329665D01*
Y46999D01*
X328999Y46332D01*
X327666Y56332D02*
X326999Y56999D01*
X325666D01*
X325000Y56332D01*
Y55666D01*
X325666Y54999D01*
X326999D01*
X327666Y54333D01*
Y53666D01*
X326999Y53000D01*
X325666D01*
X325000Y53666D01*
X331664Y53000D02*
X328999D01*
X331664Y55666D01*
Y56332D01*
X330998Y56999D01*
X329665D01*
X328999Y56332D01*
X327666Y66332D02*
X326999Y66999D01*
X325666D01*
X325000Y66332D01*
Y65666D01*
X325666Y64999D01*
X326999D01*
X327666Y64333D01*
Y63666D01*
X326999Y63000D01*
X325666D01*
X325000Y63666D01*
X328999Y66332D02*
X329665Y66999D01*
X330998D01*
X331664Y66332D01*
Y65666D01*
X330998Y64999D01*
X330332D01*
X330998D01*
X331664Y64333D01*
Y63666D01*
X330998Y63000D01*
X329665D01*
X328999Y63666D01*
X327666Y76332D02*
X326999Y76999D01*
X325666D01*
X325000Y76332D01*
Y75666D01*
X325666Y74999D01*
X326999D01*
X327666Y74333D01*
Y73666D01*
X326999Y73000D01*
X325666D01*
X325000Y73666D01*
X330998Y73000D02*
Y76999D01*
X328999Y74999D01*
X331664D01*
X327666Y86332D02*
X326999Y86999D01*
X325666D01*
X325000Y86332D01*
Y85666D01*
X325666Y84999D01*
X326999D01*
X327666Y84333D01*
Y83666D01*
X326999Y83000D01*
X325666D01*
X325000Y83666D01*
X331664Y86999D02*
X328999D01*
Y84999D01*
X330332Y85666D01*
X330998D01*
X331664Y84999D01*
Y83666D01*
X330998Y83000D01*
X329665D01*
X328999Y83666D01*
X281167Y164333D02*
X280501Y164999D01*
X279168D01*
X278502Y164333D01*
Y161667D01*
X279168Y161001D01*
X280501D01*
X281167Y161667D01*
X282500Y161001D02*
X283833D01*
X283167D01*
Y164999D01*
X282500Y164333D01*
X285833D02*
X286499Y164999D01*
X287832D01*
X288498Y164333D01*
Y161667D01*
X287832Y161001D01*
X286499D01*
X285833Y161667D01*
Y164333D01*
X260168Y161001D02*
Y164999D01*
X262167D01*
X262834Y164333D01*
Y163000D01*
X262167Y162334D01*
X260168D01*
X261501D02*
X262834Y161001D01*
X264166Y161667D02*
X264833Y161001D01*
X266166D01*
X266832Y161667D01*
Y164333D01*
X266166Y164999D01*
X264833D01*
X264166Y164333D01*
Y163666D01*
X264833Y163000D01*
X266832D01*
X239667Y164333D02*
X239001Y164999D01*
X237668D01*
X237002Y164333D01*
Y161667D01*
X237668Y161001D01*
X239001D01*
X239667Y161667D01*
X241000Y161001D02*
X242333D01*
X241667D01*
Y164999D01*
X241000Y164333D01*
X246332Y161001D02*
Y164999D01*
X244333Y163000D01*
X246998D01*
X262667Y151333D02*
X262001Y151999D01*
X260668D01*
X260002Y151333D01*
Y148667D01*
X260668Y148001D01*
X262001D01*
X262667Y148667D01*
X264000Y148001D02*
X265333D01*
X264667D01*
Y151999D01*
X264000Y151333D01*
X269998Y151999D02*
X268666Y151333D01*
X267333Y150000D01*
Y148667D01*
X267999Y148001D01*
X269332D01*
X269998Y148667D01*
Y149334D01*
X269332Y150000D01*
X267333D01*
X200334Y28333D02*
X199668Y28999D01*
X198335D01*
X197668Y28333D01*
Y25667D01*
X198335Y25001D01*
X199668D01*
X200334Y25667D01*
X204333Y25001D02*
X201667D01*
X204333Y27666D01*
Y28333D01*
X203666Y28999D01*
X202333D01*
X201667Y28333D01*
X208332Y28999D02*
X205666D01*
Y27000D01*
X206999Y27666D01*
X207665D01*
X208332Y27000D01*
Y25667D01*
X207665Y25001D01*
X206332D01*
X205666Y25667D01*
X150334Y28333D02*
X149668Y28999D01*
X148335D01*
X147668Y28333D01*
Y25667D01*
X148335Y25001D01*
X149668D01*
X150334Y25667D01*
X154333Y25001D02*
X151667D01*
X154333Y27666D01*
Y28333D01*
X153666Y28999D01*
X152333D01*
X151667Y28333D01*
X155666D02*
X156332Y28999D01*
X157665D01*
X158332Y28333D01*
Y27666D01*
X157665Y27000D01*
X156999D01*
X157665D01*
X158332Y26334D01*
Y25667D01*
X157665Y25001D01*
X156332D01*
X155666Y25667D01*
X300667Y28333D02*
X300001Y28999D01*
X298668D01*
X298002Y28333D01*
Y25667D01*
X298668Y25001D01*
X300001D01*
X300667Y25667D01*
X302000Y25001D02*
X303333D01*
X302667D01*
Y28999D01*
X302000Y28333D01*
X305333Y25667D02*
X305999Y25001D01*
X307332D01*
X307998Y25667D01*
Y28333D01*
X307332Y28999D01*
X305999D01*
X305333Y28333D01*
Y27666D01*
X305999Y27000D01*
X307998D01*
X263001Y11333D02*
X262334Y11999D01*
X261001D01*
X260335Y11333D01*
Y8667D01*
X261001Y8001D01*
X262334D01*
X263001Y8667D01*
X264334Y8001D02*
Y11999D01*
X266999Y8001D01*
Y11999D01*
X268332Y8001D02*
X269665D01*
X268999D01*
Y11999D01*
X268332Y11333D01*
X256834Y61999D02*
Y58001D01*
X259500D01*
X260833D02*
X262166D01*
X261499D01*
Y61999D01*
X260833Y61333D01*
X256834Y48001D02*
Y51999D01*
X258834D01*
X259500Y51333D01*
Y50000D01*
X258834Y49334D01*
X256834D01*
X258167D02*
X259500Y48001D01*
X260833D02*
X262166D01*
X261499D01*
Y51999D01*
X260833Y51333D01*
X286502Y48001D02*
Y51999D01*
X288501D01*
X289167Y51333D01*
Y50000D01*
X288501Y49334D01*
X286502D01*
X287835D02*
X289167Y48001D01*
X290500D02*
X291833D01*
X291167D01*
Y51999D01*
X290500Y51333D01*
X295832Y48001D02*
Y51999D01*
X293833Y50000D01*
X296498D01*
X286168Y61999D02*
Y58001D01*
X288834D01*
X292832D02*
X290166D01*
X292832Y60666D01*
Y61333D01*
X292166Y61999D01*
X290833D01*
X290166Y61333D01*
X266001Y76332D02*
X269999D01*
Y74332D01*
X269333Y73666D01*
X268000D01*
X267334Y74332D01*
Y76332D01*
Y74999D02*
X266001Y73666D01*
Y69667D02*
Y72333D01*
X268666Y69667D01*
X269333D01*
X269999Y70333D01*
Y71666D01*
X269333Y72333D01*
Y68334D02*
X269999Y67668D01*
Y66335D01*
X269333Y65668D01*
X266667D01*
X266001Y66335D01*
Y67668D01*
X266667Y68334D01*
X269333D01*
X258001Y76498D02*
X261999D01*
Y74499D01*
X261333Y73833D01*
X260000D01*
X259334Y74499D01*
Y76498D01*
Y75165D02*
X258001Y73833D01*
Y72500D02*
Y71167D01*
Y71833D01*
X261999D01*
X261333Y72500D01*
X258667Y69167D02*
X258001Y68501D01*
Y67168D01*
X258667Y66502D01*
X261333D01*
X261999Y67168D01*
Y68501D01*
X261333Y69167D01*
X260666D01*
X260000Y68501D01*
Y66502D01*
X295668Y133001D02*
Y136999D01*
X297667D01*
X298334Y136333D01*
Y135000D01*
X297667Y134334D01*
X295668D01*
X297001D02*
X298334Y133001D01*
X299667D02*
X301000D01*
X300333D01*
Y136999D01*
X299667Y136333D01*
X302999Y133001D02*
X304332D01*
X303665D01*
Y136999D01*
X302999Y136333D01*
X298167Y128033D02*
X297501Y128699D01*
X296168D01*
X295502Y128033D01*
Y125367D01*
X296168Y124701D01*
X297501D01*
X298167Y125367D01*
X299500Y124701D02*
X300833D01*
X300167D01*
Y128699D01*
X299500Y128033D01*
X302833Y128699D02*
X305498D01*
Y128033D01*
X302833Y125367D01*
Y124701D01*
X294667Y101333D02*
X294001Y101999D01*
X292668D01*
X292002Y101333D01*
Y98667D01*
X292668Y98001D01*
X294001D01*
X294667Y98667D01*
X296000Y98001D02*
X297333D01*
X296667D01*
Y101999D01*
X296000Y101333D01*
X299333D02*
X299999Y101999D01*
X301332D01*
X301998Y101333D01*
Y100666D01*
X301332Y100000D01*
X301998Y99334D01*
Y98667D01*
X301332Y98001D01*
X299999D01*
X299333Y98667D01*
Y99334D01*
X299999Y100000D01*
X299333Y100666D01*
Y101333D01*
X299999Y100000D02*
X301332D01*
X230667Y113333D02*
X230001Y113999D01*
X228668D01*
X228002Y113333D01*
Y110667D01*
X228668Y110001D01*
X230001D01*
X230667Y110667D01*
X232000Y110001D02*
X233333D01*
X232667D01*
Y113999D01*
X232000Y113333D01*
X237998Y113999D02*
X235333D01*
Y112000D01*
X236666Y112666D01*
X237332D01*
X237998Y112000D01*
Y110667D01*
X237332Y110001D01*
X235999D01*
X235333Y110667D01*
X256668Y117999D02*
Y114667D01*
X257334Y114001D01*
X258667D01*
X259334Y114667D01*
Y117999D01*
X262666Y114001D02*
Y117999D01*
X260666Y116000D01*
X263332D01*
X51668Y153001D02*
Y156999D01*
X53667D01*
X54334Y156333D01*
Y155000D01*
X53667Y154333D01*
X51668D01*
X53001D02*
X54334Y153001D01*
X57666D02*
Y156999D01*
X55667Y155000D01*
X58332D01*
X51668Y143001D02*
Y146999D01*
X53667D01*
X54334Y146333D01*
Y145000D01*
X53667Y144334D01*
X51668D01*
X53001D02*
X54334Y143001D01*
X58332Y146999D02*
X55667D01*
Y145000D01*
X56999Y145667D01*
X57666D01*
X58332Y145000D01*
Y143667D01*
X57666Y143001D01*
X56333D01*
X55667Y143667D01*
X51668Y133001D02*
Y136999D01*
X53667D01*
X54334Y136333D01*
Y135000D01*
X53667Y134334D01*
X51668D01*
X53001D02*
X54334Y133001D01*
X58332D02*
X55667D01*
X58332Y135667D01*
Y136333D01*
X57666Y136999D01*
X56333D01*
X55667Y136333D01*
X51668Y123001D02*
Y126999D01*
X53667D01*
X54334Y126333D01*
Y125000D01*
X53667Y124334D01*
X51668D01*
X53001D02*
X54334Y123001D01*
X55667Y126333D02*
X56333Y126999D01*
X57666D01*
X58332Y126333D01*
Y125666D01*
X57666Y125000D01*
X56999D01*
X57666D01*
X58332Y124334D01*
Y123667D01*
X57666Y123001D01*
X56333D01*
X55667Y123667D01*
X95000Y128667D02*
Y131333D01*
X94334Y131999D01*
X93001D01*
X92334Y131333D01*
Y128667D01*
X93001Y128001D01*
X94334D01*
X93667Y129333D02*
X95000Y128001D01*
X94334D02*
X95000Y128667D01*
X96333Y128001D02*
X97666D01*
X96999D01*
Y131999D01*
X96333Y131333D01*
X94834Y148667D02*
Y151333D01*
X94167Y151999D01*
X92834D01*
X92168Y151333D01*
Y148667D01*
X92834Y148001D01*
X94167D01*
X93501Y149334D02*
X94834Y148001D01*
X94167D02*
X94834Y148667D01*
X98832Y148001D02*
X96166D01*
X98832Y150666D01*
Y151333D01*
X98166Y151999D01*
X96833D01*
X96166Y151333D01*
X131168Y143001D02*
Y146999D01*
X133168D01*
X133834Y146333D01*
Y145000D01*
X133168Y144334D01*
X131168D01*
X132501D02*
X133834Y143001D01*
X137833D02*
X135167D01*
X137833Y145667D01*
Y146333D01*
X137167Y146999D01*
X135834D01*
X135167Y146333D01*
X141165Y143001D02*
Y146999D01*
X139166Y145000D01*
X141832D01*
X131168Y153001D02*
Y156999D01*
X133168D01*
X133834Y156333D01*
Y155000D01*
X133168Y154333D01*
X131168D01*
X132501D02*
X133834Y153001D01*
X137833D02*
X135167D01*
X137833Y155666D01*
Y156333D01*
X137167Y156999D01*
X135834D01*
X135167Y156333D01*
X139166D02*
X139832Y156999D01*
X141165D01*
X141832Y156333D01*
Y155666D01*
X141165Y155000D01*
X140499D01*
X141165D01*
X141832Y154333D01*
Y153667D01*
X141165Y153001D01*
X139832D01*
X139166Y153667D01*
X131168Y163001D02*
Y166999D01*
X133168D01*
X133834Y166333D01*
Y165000D01*
X133168Y164333D01*
X131168D01*
X132501D02*
X133834Y163001D01*
X137833D02*
X135167D01*
X137833Y165666D01*
Y166333D01*
X137167Y166999D01*
X135834D01*
X135167Y166333D01*
X141832Y163001D02*
X139166D01*
X141832Y165666D01*
Y166333D01*
X141165Y166999D01*
X139832D01*
X139166Y166333D01*
X131835Y172501D02*
Y176499D01*
X133834D01*
X134501Y175833D01*
Y174500D01*
X133834Y173834D01*
X131835D01*
X133168D02*
X134501Y172501D01*
X138499D02*
X135834D01*
X138499Y175166D01*
Y175833D01*
X137833Y176499D01*
X136500D01*
X135834Y175833D01*
X139832Y172501D02*
X141165D01*
X140499D01*
Y176499D01*
X139832Y175833D01*
X131502Y183001D02*
Y186999D01*
X133501D01*
X134167Y186333D01*
Y185000D01*
X133501Y184334D01*
X131502D01*
X132834D02*
X134167Y183001D01*
X135500D02*
X136833D01*
X136167D01*
Y186999D01*
X135500Y186333D01*
X138833Y186999D02*
X141498D01*
Y186333D01*
X138833Y183667D01*
Y183001D01*
X131502Y193001D02*
Y196999D01*
X133501D01*
X134167Y196333D01*
Y195000D01*
X133501Y194334D01*
X131502D01*
X132834D02*
X134167Y193001D01*
X135500D02*
X136833D01*
X136167D01*
Y196999D01*
X135500Y196333D01*
X141498Y196999D02*
X140165Y196333D01*
X138833Y195000D01*
Y193667D01*
X139499Y193001D01*
X140832D01*
X141498Y193667D01*
Y194334D01*
X140832Y195000D01*
X138833D01*
X131502Y203001D02*
Y206999D01*
X133501D01*
X134167Y206333D01*
Y205000D01*
X133501Y204333D01*
X131502D01*
X132834D02*
X134167Y203001D01*
X135500D02*
X136833D01*
X136167D01*
Y206999D01*
X135500Y206333D01*
X141498Y206999D02*
X138833D01*
Y205000D01*
X140165Y205666D01*
X140832D01*
X141498Y205000D01*
Y203667D01*
X140832Y203001D01*
X139499D01*
X138833Y203667D01*
X131502Y213001D02*
Y216999D01*
X133501D01*
X134167Y216333D01*
Y215000D01*
X133501Y214334D01*
X131502D01*
X132834D02*
X134167Y213001D01*
X135500D02*
X136833D01*
X136167D01*
Y216999D01*
X135500Y216333D01*
X138833D02*
X139499Y216999D01*
X140832D01*
X141498Y216333D01*
Y215666D01*
X140832Y215000D01*
X140165D01*
X140832D01*
X141498Y214334D01*
Y213667D01*
X140832Y213001D01*
X139499D01*
X138833Y213667D01*
X131502Y223001D02*
Y226999D01*
X133501D01*
X134167Y226333D01*
Y225000D01*
X133501Y224334D01*
X131502D01*
X132834D02*
X134167Y223001D01*
X135500D02*
X136833D01*
X136167D01*
Y226999D01*
X135500Y226333D01*
X141498Y223001D02*
X138833D01*
X141498Y225666D01*
Y226333D01*
X140832Y226999D01*
X139499D01*
X138833Y226333D01*
X131502Y233001D02*
Y236999D01*
X133501D01*
X134167Y236333D01*
Y235000D01*
X133501Y234334D01*
X131502D01*
X132834D02*
X134167Y233001D01*
X135500D02*
X136833D01*
X136167D01*
Y236999D01*
X135500Y236333D01*
X138833D02*
X139499Y236999D01*
X140832D01*
X141498Y236333D01*
Y233667D01*
X140832Y233001D01*
X139499D01*
X138833Y233667D01*
Y236333D01*
X70334Y321333D02*
X69667Y321999D01*
X68334D01*
X67668Y321333D01*
Y318667D01*
X68334Y318001D01*
X69667D01*
X70334Y318667D01*
X71667Y318001D02*
X72999D01*
X72333D01*
Y321999D01*
X71667Y321333D01*
X77665Y318001D02*
X74999D01*
X77665Y320666D01*
Y321333D01*
X76998Y321999D01*
X75665D01*
X74999Y321333D01*
X67668Y243001D02*
Y246999D01*
X69667D01*
X70334Y246333D01*
Y245000D01*
X69667Y244334D01*
X67668D01*
X69001D02*
X70334Y243001D01*
X74332Y246999D02*
X72999Y246333D01*
X71667Y245000D01*
Y243667D01*
X72333Y243001D01*
X73666D01*
X74332Y243667D01*
Y244334D01*
X73666Y245000D01*
X71667D01*
X70334Y261333D02*
X69667Y261999D01*
X68334D01*
X67668Y261333D01*
Y258667D01*
X68334Y258001D01*
X69667D01*
X70334Y258667D01*
X71667Y258001D02*
X72999D01*
X72333D01*
Y261999D01*
X71667Y261333D01*
X74999Y258001D02*
X76332D01*
X75665D01*
Y261999D01*
X74999Y261333D01*
X67668Y273001D02*
Y276999D01*
X69667D01*
X70334Y276333D01*
Y275000D01*
X69667Y274334D01*
X67668D01*
X69001D02*
X70334Y273001D01*
X71667Y276333D02*
X72333Y276999D01*
X73666D01*
X74332Y276333D01*
Y275666D01*
X73666Y275000D01*
X74332Y274334D01*
Y273667D01*
X73666Y273001D01*
X72333D01*
X71667Y273667D01*
Y274334D01*
X72333Y275000D01*
X71667Y275666D01*
Y276333D01*
X72333Y275000D02*
X73666D01*
X70334Y291333D02*
X69667Y291999D01*
X68334D01*
X67668Y291333D01*
Y288667D01*
X68334Y288001D01*
X69667D01*
X70334Y288667D01*
X71667Y288001D02*
X72999D01*
X72333D01*
Y291999D01*
X71667Y291333D01*
X74999D02*
X75665Y291999D01*
X76998D01*
X77665Y291333D01*
Y290666D01*
X76998Y290000D01*
X76332D01*
X76998D01*
X77665Y289334D01*
Y288667D01*
X76998Y288001D01*
X75665D01*
X74999Y288667D01*
X67668Y303001D02*
Y306999D01*
X69667D01*
X70334Y306333D01*
Y305000D01*
X69667Y304334D01*
X67668D01*
X69001D02*
X70334Y303001D01*
X71667Y306999D02*
X74332D01*
Y306333D01*
X71667Y303667D01*
Y303001D01*
X25000Y304499D02*
Y300500D01*
X26999D01*
X27666Y301166D01*
Y301833D01*
X26999Y302499D01*
X25000D01*
X26999D01*
X27666Y303166D01*
Y303832D01*
X26999Y304499D01*
X25000D01*
X28999D02*
X31664D01*
X30332D01*
Y300500D01*
X35663D02*
X32997D01*
X35663Y303166D01*
Y303832D01*
X34997Y304499D01*
X33664D01*
X32997Y303832D01*
X25000Y334499D02*
Y330500D01*
X26999D01*
X27666Y331166D01*
Y331833D01*
X26999Y332499D01*
X25000D01*
X26999D01*
X27666Y333166D01*
Y333832D01*
X26999Y334499D01*
X25000D01*
X28999D02*
X31664D01*
X30332D01*
Y330500D01*
X32997D02*
X34330D01*
X33664D01*
Y334499D01*
X32997Y333832D01*
X25000Y270500D02*
Y274499D01*
X26999D01*
X27666Y273832D01*
Y272499D01*
X26999Y271833D01*
X25000D01*
X26333D02*
X27666Y270500D01*
X31664Y273832D02*
X30998Y274499D01*
X29665D01*
X28999Y273832D01*
Y273166D01*
X29665Y272499D01*
X30998D01*
X31664Y271833D01*
Y271166D01*
X30998Y270500D01*
X29665D01*
X28999Y271166D01*
X32997Y274499D02*
X35663D01*
X34330D01*
Y270500D01*
X151668Y53499D02*
Y50167D01*
X152334Y49501D01*
X153667D01*
X154333Y50167D01*
Y53499D01*
X158332Y49501D02*
X155666D01*
X158332Y52166D01*
Y52833D01*
X157666Y53499D01*
X156333D01*
X155666Y52833D01*
X57334Y53499D02*
Y50167D01*
X58001Y49501D01*
X59334D01*
X60000Y50167D01*
Y53499D01*
X61333Y49501D02*
X62666D01*
X61999D01*
Y53499D01*
X61333Y52833D01*
X195066Y62932D02*
X194399Y63599D01*
X193067D01*
X192400Y62932D01*
Y60266D01*
X193067Y59600D01*
X194399D01*
X195066Y60266D01*
X196399Y62932D02*
X197065Y63599D01*
X198398D01*
X199065Y62932D01*
Y62266D01*
X198398Y61599D01*
X199065Y60933D01*
Y60266D01*
X198398Y59600D01*
X197065D01*
X196399Y60266D01*
Y60933D01*
X197065Y61599D01*
X196399Y62266D01*
Y62932D01*
X197065Y61599D02*
X198398D01*
X180066Y62932D02*
X179399Y63599D01*
X178067D01*
X177400Y62932D01*
Y60266D01*
X178067Y59600D01*
X179399D01*
X180066Y60266D01*
X181399Y63599D02*
X184064D01*
Y62932D01*
X181399Y60266D01*
Y59600D01*
X115066Y62932D02*
X114399Y63599D01*
X113066D01*
X112400Y62932D01*
Y60266D01*
X113066Y59600D01*
X114399D01*
X115066Y60266D01*
X119064Y63599D02*
X117732Y62932D01*
X116399Y61599D01*
Y60266D01*
X117065Y59600D01*
X118398D01*
X119064Y60266D01*
Y60933D01*
X118398Y61599D01*
X116399D01*
X130066Y62932D02*
X129399Y63599D01*
X128067D01*
X127400Y62932D01*
Y60266D01*
X128067Y59600D01*
X129399D01*
X130066Y60266D01*
X134064Y63599D02*
X131399D01*
Y61599D01*
X132732Y62266D01*
X133398D01*
X134064Y61599D01*
Y60266D01*
X133398Y59600D01*
X132065D01*
X131399Y60266D01*
X20066Y62932D02*
X19399Y63599D01*
X18067D01*
X17400Y62932D01*
Y60266D01*
X18067Y59600D01*
X19399D01*
X20066Y60266D01*
X23398Y59600D02*
Y63599D01*
X21399Y61599D01*
X24065D01*
X35066Y62932D02*
X34399Y63599D01*
X33066D01*
X32400Y62932D01*
Y60266D01*
X33066Y59600D01*
X34399D01*
X35066Y60266D01*
X36399Y62932D02*
X37065Y63599D01*
X38398D01*
X39064Y62932D01*
Y62266D01*
X38398Y61599D01*
X37732D01*
X38398D01*
X39064Y60933D01*
Y60266D01*
X38398Y59600D01*
X37065D01*
X36399Y60266D01*
X100066Y62932D02*
X99399Y63599D01*
X98066D01*
X97400Y62932D01*
Y60266D01*
X98066Y59600D01*
X99399D01*
X100066Y60266D01*
X104065Y59600D02*
X101399D01*
X104065Y62266D01*
Y62932D01*
X103398Y63599D01*
X102065D01*
X101399Y62932D01*
X85066D02*
X84399Y63599D01*
X83066D01*
X82400Y62932D01*
Y60266D01*
X83066Y59600D01*
X84399D01*
X85066Y60266D01*
X86399Y59600D02*
X87732D01*
X87065D01*
Y63599D01*
X86399Y62932D01*
D17*
X29960Y320000D02*
D03*
X29958Y290000D02*
D03*
X29956Y260000D02*
D03*
M02*
