G04*
G04 #@! TF.GenerationSoftware,Altium Limited,Altium Designer,21.3.2 (30)*
G04*
G04 Layer_Color=32896*
%FSLAX25Y25*%
%MOIN*%
G70*
G04*
G04 #@! TF.SameCoordinates,0941D6B8-9053-4ACA-ABC4-2B4951EE2B0C*
G04*
G04*
G04 #@! TF.FilePolarity,Positive*
G04*
G01*
G75*
%ADD10C,0.00984*%
%ADD11C,0.02362*%
%ADD12C,0.00787*%
%ADD15C,0.00800*%
%ADD16C,0.01000*%
G36*
X95000Y282716D02*
X92638Y286260D01*
X97362D01*
X95000Y282716D01*
D02*
G37*
G36*
X80000D02*
X77638Y286260D01*
X82362D01*
X80000Y282716D01*
D02*
G37*
G36*
X65000D02*
X62638Y286260D01*
X67362D01*
X65000Y282716D01*
D02*
G37*
G36*
X50000D02*
X47638Y286260D01*
X52362D01*
X50000Y282716D01*
D02*
G37*
G36*
X35000D02*
X32638Y286260D01*
X37362D01*
X35000Y282716D01*
D02*
G37*
G36*
X20000D02*
X17638Y286260D01*
X22362D01*
X20000Y282716D01*
D02*
G37*
G36*
X65000Y252716D02*
X62638Y256260D01*
X67362D01*
X65000Y252716D01*
D02*
G37*
G36*
X50000D02*
X47638Y256260D01*
X52362D01*
X50000Y252716D01*
D02*
G37*
G36*
X35000D02*
X32638Y256260D01*
X37362D01*
X35000Y252716D01*
D02*
G37*
G36*
X20000D02*
X17638Y256260D01*
X22362D01*
X20000Y252716D01*
D02*
G37*
G36*
X97362Y173740D02*
X92638D01*
X95000Y177284D01*
X97362Y173740D01*
D02*
G37*
G36*
X82362D02*
X77638D01*
X80000Y177284D01*
X82362Y173740D01*
D02*
G37*
G36*
X67362D02*
X62638D01*
X65000Y177284D01*
X67362Y173740D01*
D02*
G37*
G36*
X52362D02*
X47638D01*
X50000Y177284D01*
X52362Y173740D01*
D02*
G37*
G36*
X37362D02*
X32638D01*
X35000Y177284D01*
X37362Y173740D01*
D02*
G37*
G36*
X22362D02*
X17638D01*
X20000Y177284D01*
X22362Y173740D01*
D02*
G37*
G36*
X52362Y144370D02*
X47638D01*
X50000Y147913D01*
X52362Y144370D01*
D02*
G37*
G36*
X97362Y143740D02*
X92638D01*
X95000Y147283D01*
X97362Y143740D01*
D02*
G37*
G36*
X82362D02*
X77638D01*
X80000Y147283D01*
X82362Y143740D01*
D02*
G37*
G36*
X67362D02*
X62638D01*
X65000Y147283D01*
X67362Y143740D01*
D02*
G37*
G36*
X37362D02*
X32638D01*
X35000Y147283D01*
X37362Y143740D01*
D02*
G37*
G36*
X22362D02*
X17638D01*
X20000Y147283D01*
X22362Y143740D01*
D02*
G37*
G36*
X340000Y282716D02*
X337638Y286260D01*
X342362D01*
X340000Y282716D01*
D02*
G37*
G36*
X325000D02*
X322638Y286260D01*
X327362D01*
X325000Y282716D01*
D02*
G37*
G36*
X310000D02*
X307638Y286260D01*
X312362D01*
X310000Y282716D01*
D02*
G37*
G36*
X295000D02*
X292638Y286260D01*
X297362D01*
X295000Y282716D01*
D02*
G37*
G36*
X280000D02*
X277638Y286260D01*
X282362D01*
X280000Y282716D01*
D02*
G37*
G36*
X265000D02*
X262638Y286260D01*
X267362D01*
X265000Y282716D01*
D02*
G37*
G36*
X250000D02*
X247638Y286260D01*
X252362D01*
X250000Y282716D01*
D02*
G37*
G36*
X235000D02*
X232638Y286260D01*
X237362D01*
X235000Y282716D01*
D02*
G37*
G36*
X125000D02*
X122638Y286260D01*
X127362D01*
X125000Y282716D01*
D02*
G37*
G36*
X110000D02*
X107638Y286260D01*
X112362D01*
X110000Y282716D01*
D02*
G37*
G36*
X340000Y252716D02*
X337638Y256260D01*
X342362D01*
X340000Y252716D01*
D02*
G37*
G36*
X325000D02*
X322638Y256260D01*
X327362D01*
X325000Y252716D01*
D02*
G37*
G36*
X310000D02*
X307638Y256260D01*
X312362D01*
X310000Y252716D01*
D02*
G37*
G36*
X295000D02*
X292638Y256260D01*
X297362D01*
X295000Y252716D01*
D02*
G37*
G36*
X280000D02*
X277638Y256260D01*
X282362D01*
X280000Y252716D01*
D02*
G37*
G36*
X265000D02*
X262638Y256260D01*
X267362D01*
X265000Y252716D01*
D02*
G37*
G36*
X250000D02*
X247638Y256260D01*
X252362D01*
X250000Y252716D01*
D02*
G37*
G36*
X235000D02*
X232638Y256260D01*
X237362D01*
X235000Y252716D01*
D02*
G37*
G36*
X127362Y173740D02*
X122638D01*
X125000Y177284D01*
X127362Y173740D01*
D02*
G37*
G36*
X112362D02*
X107638D01*
X110000Y177284D01*
X112362Y173740D01*
D02*
G37*
G36*
X127362Y143740D02*
X122638D01*
X125000Y147283D01*
X127362Y143740D01*
D02*
G37*
G36*
X112362D02*
X107638D01*
X110000Y147283D01*
X112362Y143740D01*
D02*
G37*
D10*
X297244Y330000D02*
X296506Y330426D01*
Y329574D01*
X297244Y330000D01*
X237244D02*
X236506Y330426D01*
Y329574D01*
X237244Y330000D01*
X22244D02*
X21506Y330426D01*
Y329574D01*
X22244Y330000D01*
X82244D02*
X81506Y330426D01*
Y329574D01*
X82244Y330000D01*
X63740Y100000D02*
X63002Y100426D01*
Y99574D01*
X63740Y100000D01*
X123740D02*
X123002Y100426D01*
Y99574D01*
X123740Y100000D01*
D11*
X303130Y321535D02*
X302685Y322459D01*
X301686Y322687D01*
X300885Y322048D01*
Y321023D01*
X301686Y320384D01*
X302685Y320612D01*
X303130Y321535D01*
X243130D02*
X242685Y322459D01*
X241686Y322687D01*
X240885Y322048D01*
Y321023D01*
X241686Y320384D01*
X242685Y320612D01*
X243130Y321535D01*
X28130D02*
X27685Y322459D01*
X26686Y322687D01*
X25885Y322048D01*
Y321023D01*
X26686Y320384D01*
X27685Y320612D01*
X28130Y321535D01*
X88130D02*
X87685Y322459D01*
X86686Y322687D01*
X85885Y322048D01*
Y321023D01*
X86686Y320384D01*
X87685Y320612D01*
X88130Y321535D01*
X59232Y108465D02*
X58788Y109388D01*
X57788Y109616D01*
X56987Y108977D01*
Y107952D01*
X57788Y107313D01*
X58788Y107541D01*
X59232Y108465D01*
X119232D02*
X118788Y109388D01*
X117788Y109616D01*
X116987Y108977D01*
Y107952D01*
X117788Y107313D01*
X118788Y107541D01*
X119232Y108465D01*
D12*
X298012Y325472D02*
X336988D01*
X298012Y313268D02*
X336988D01*
X298012D02*
Y325472D01*
X336988Y313268D02*
Y325472D01*
X238012D02*
X276988D01*
X238012Y313268D02*
X276988D01*
X238012D02*
Y325472D01*
X276988Y313268D02*
Y325472D01*
X61988Y313268D02*
Y325472D01*
X23012Y313268D02*
Y325472D01*
Y313268D02*
X61988D01*
X23012Y325472D02*
X61988D01*
X83012D02*
X121988D01*
X83012Y313268D02*
X121988D01*
X83012D02*
Y325472D01*
X121988Y313268D02*
Y325472D01*
X23012Y104528D02*
X61988D01*
X23012Y116732D02*
X61988D01*
Y104528D02*
Y116732D01*
X23012Y104528D02*
Y116732D01*
X83012Y104528D02*
X121988D01*
X83012Y116732D02*
X121988D01*
Y104528D02*
Y116732D01*
X83012Y104528D02*
Y116732D01*
X335000Y50000D02*
X345000D01*
X335000Y110000D02*
X345000D01*
X335000Y40000D02*
Y110000D01*
Y40000D02*
X345000D01*
Y110000D01*
D15*
X337638Y256260D02*
X340000Y252716D01*
X342362Y256260D01*
X337638D02*
X342362D01*
X337638Y252323D02*
X342362D01*
X322638Y256260D02*
X325000Y252716D01*
X327362Y256260D01*
X322638D02*
X327362D01*
X322638Y252323D02*
X327362D01*
X307638Y256260D02*
X310000Y252716D01*
X312362Y256260D01*
X307638D02*
X312362D01*
X307638Y252323D02*
X312362D01*
X292638Y256260D02*
X295000Y252716D01*
X297362Y256260D01*
X292638D02*
X297362D01*
X292638Y252323D02*
X297362D01*
X277638Y256260D02*
X280000Y252716D01*
X282362Y256260D01*
X277638D02*
X282362D01*
X277638Y252323D02*
X282362D01*
X262638Y256260D02*
X265000Y252716D01*
X267362Y256260D01*
X262638D02*
X267362D01*
X262638Y252323D02*
X267362D01*
X247638Y256260D02*
X250000Y252716D01*
X252362Y256260D01*
X247638D02*
X252362D01*
X247638Y252323D02*
X252362D01*
X232638Y256260D02*
X235000Y252716D01*
X237362Y256260D01*
X232638D02*
X237362D01*
X232638Y252323D02*
X237362D01*
X232638Y286260D02*
X235000Y282716D01*
X237362Y286260D01*
X232638D02*
X237362D01*
X232638Y282323D02*
X237362D01*
X247638Y286260D02*
X250000Y282716D01*
X252362Y286260D01*
X247638D02*
X252362D01*
X247638Y282323D02*
X252362D01*
X262638Y286260D02*
X265000Y282716D01*
X267362Y286260D01*
X262638D02*
X267362D01*
X262638Y282323D02*
X267362D01*
X292638Y286260D02*
X295000Y282716D01*
X297362Y286260D01*
X292638D02*
X297362D01*
X292638Y282323D02*
X297362D01*
X307638Y286260D02*
X310000Y282716D01*
X312362Y286260D01*
X307638D02*
X312362D01*
X307638Y282323D02*
X312362D01*
X322638Y286260D02*
X325000Y282716D01*
X327362Y286260D01*
X322638D02*
X327362D01*
X322638Y282323D02*
X327362D01*
X337638Y286260D02*
X340000Y282716D01*
X342362Y286260D01*
X337638D02*
X342362D01*
X337638Y282323D02*
X342362D01*
X17638Y256260D02*
X20000Y252716D01*
X22362Y256260D01*
X17638D02*
X22362D01*
X17638Y252323D02*
X22362D01*
X32638Y256260D02*
X35000Y252716D01*
X37362Y256260D01*
X32638D02*
X37362D01*
X32638Y252323D02*
X37362D01*
X47638D02*
X52362D01*
X47638Y256260D02*
X52362D01*
X50000Y252716D02*
X52362Y256260D01*
X47638D02*
X50000Y252716D01*
X62638Y256260D02*
X65000Y252716D01*
X67362Y256260D01*
X62638D02*
X67362D01*
X62638Y252323D02*
X67362D01*
X17638Y286260D02*
X20000Y282716D01*
X22362Y286260D01*
X17638D02*
X22362D01*
X17638Y282323D02*
X22362D01*
X32638Y286260D02*
X35000Y282716D01*
X37362Y286260D01*
X32638D02*
X37362D01*
X32638Y282323D02*
X37362D01*
X47638Y286260D02*
X50000Y282716D01*
X52362Y286260D01*
X47638D02*
X52362D01*
X47638Y282323D02*
X52362D01*
X62638Y286260D02*
X65000Y282716D01*
X67362Y286260D01*
X62638D02*
X67362D01*
X62638Y282323D02*
X67362D01*
X77638Y286260D02*
X80000Y282716D01*
X82362Y286260D01*
X77638D02*
X82362D01*
X77638Y282323D02*
X82362D01*
X92638Y286260D02*
X95000Y282716D01*
X97362Y286260D01*
X92638D02*
X97362D01*
X92638Y282323D02*
X97362D01*
X107638Y286260D02*
X110000Y282716D01*
X112362Y286260D01*
X107638D02*
X112362D01*
X107638Y282323D02*
X112362D01*
X122638Y286260D02*
X125000Y282716D01*
X127362Y286260D01*
X122638D02*
X127362D01*
X122638Y282323D02*
X127362D01*
X35000Y177284D02*
X37362Y173740D01*
X32638D02*
X35000Y177284D01*
X32638Y173740D02*
X37362D01*
X32638Y177677D02*
X37362D01*
X50000Y177284D02*
X52362Y173740D01*
X47638D02*
X50000Y177284D01*
X47638Y173740D02*
X52362D01*
X47638Y177677D02*
X52362D01*
X65000Y177284D02*
X67362Y173740D01*
X62638D02*
X65000Y177284D01*
X62638Y173740D02*
X67362D01*
X62638Y177677D02*
X67362D01*
X80000Y177284D02*
X82362Y173740D01*
X77638D02*
X80000Y177284D01*
X77638Y173740D02*
X82362D01*
X77638Y177677D02*
X82362D01*
X95000Y177284D02*
X97362Y173740D01*
X92638D02*
X95000Y177284D01*
X92638Y173740D02*
X97362D01*
X92638Y177677D02*
X97362D01*
X110000Y177284D02*
X112362Y173740D01*
X107638D02*
X110000Y177284D01*
X107638Y173740D02*
X112362D01*
X107638Y177677D02*
X112362D01*
X125000Y177284D02*
X127362Y173740D01*
X122638D02*
X125000Y177284D01*
X122638Y173740D02*
X127362D01*
X122638Y177677D02*
X127362D01*
X125000Y147283D02*
X127362Y143740D01*
X122638D02*
X125000Y147283D01*
X122638Y143740D02*
X127362D01*
X122638Y147677D02*
X127362D01*
X110000Y147283D02*
X112362Y143740D01*
X107638D02*
X110000Y147283D01*
X107638Y143740D02*
X112362D01*
X107638Y147677D02*
X112362D01*
X95000Y147283D02*
X97362Y143740D01*
X92638D02*
X95000Y147283D01*
X92638Y143740D02*
X97362D01*
X92638Y147677D02*
X97362D01*
X80000Y147283D02*
X82362Y143740D01*
X77638D02*
X80000Y147283D01*
X77638Y143740D02*
X82362D01*
X77638Y147677D02*
X82362D01*
X65000Y147283D02*
X67362Y143740D01*
X62638D02*
X65000Y147283D01*
X62638Y143740D02*
X67362D01*
X62638Y147677D02*
X67362D01*
X50000Y147913D02*
X52362Y144370D01*
X47638D02*
X50000Y147913D01*
X47638Y144370D02*
X52362D01*
X47638Y148307D02*
X52362D01*
X35000Y147283D02*
X37362Y143740D01*
X32638D02*
X35000Y147283D01*
X32638Y143740D02*
X37362D01*
X32638Y147677D02*
X37362D01*
X20000Y177284D02*
X22362Y173740D01*
X17638D02*
X20000Y177284D01*
X17638Y173740D02*
X22362D01*
X17638Y177677D02*
X22362D01*
X20000Y147283D02*
X22362Y143740D01*
X17638D02*
X20000Y147283D01*
X17638Y143740D02*
X22362D01*
X17638Y147677D02*
X22362D01*
X277638Y286260D02*
X280000Y282716D01*
X282362Y286260D01*
X277638D02*
X282362D01*
X277638Y282323D02*
X282362D01*
D16*
X330334Y151332D02*
X331001Y151999D01*
X332334D01*
X333000Y151332D01*
Y150666D01*
X332334Y149999D01*
X331001D01*
X330334Y149333D01*
Y148667D01*
X331001Y148000D01*
X332334D01*
X333000Y148667D01*
X329001Y151999D02*
Y148000D01*
X327002D01*
X326336Y148667D01*
Y151332D01*
X327002Y151999D01*
X329001D01*
X325003Y148000D02*
Y150666D01*
X323670Y151999D01*
X322337Y150666D01*
Y148000D01*
Y149999D01*
X325003D01*
X329834Y141332D02*
X330501Y141999D01*
X331834D01*
X332500Y141332D01*
Y140666D01*
X331834Y139999D01*
X330501D01*
X329834Y139333D01*
Y138666D01*
X330501Y138000D01*
X331834D01*
X332500Y138666D01*
X325835Y141332D02*
X326502Y141999D01*
X327835D01*
X328501Y141332D01*
Y138666D01*
X327835Y138000D01*
X326502D01*
X325835Y138666D01*
X324503Y141999D02*
Y138000D01*
X321837D01*
X329834Y131332D02*
X330501Y131999D01*
X331834D01*
X332500Y131332D01*
Y128666D01*
X331834Y128000D01*
X330501D01*
X329834Y128666D01*
Y129999D01*
X331167D01*
X328501Y128000D02*
Y131999D01*
X325835Y128000D01*
Y131999D01*
X324503D02*
Y128000D01*
X322503D01*
X321837Y128666D01*
Y131332D01*
X322503Y131999D01*
X324503D01*
X332500Y121999D02*
Y119333D01*
X331167Y118000D01*
X329834Y119333D01*
Y121999D01*
X325835Y121332D02*
X326502Y121999D01*
X327835D01*
X328501Y121332D01*
Y118667D01*
X327835Y118000D01*
X326502D01*
X325835Y118667D01*
X321837Y121332D02*
X322503Y121999D01*
X323836D01*
X324503Y121332D01*
Y118667D01*
X323836Y118000D01*
X322503D01*
X321837Y118667D01*
X117501Y33998D02*
X119167D01*
X120000Y33165D01*
Y29833D01*
X119167Y29000D01*
X117501D01*
X116668Y29833D01*
Y33165D01*
X117501Y33998D01*
X115002Y29000D02*
Y33998D01*
X111669Y29000D01*
Y33998D01*
X52000Y26999D02*
X48001D01*
X50001Y28999D02*
Y25000D01*
X72000Y27000D02*
X68001D01*
X201999Y16666D02*
Y14000D01*
X199999D01*
X200666Y15333D01*
Y15999D01*
X199999Y16666D01*
X198667D01*
X198000Y15999D01*
Y14667D01*
X198667Y14000D01*
X201999Y17999D02*
X199333D01*
X198000Y19332D01*
X199333Y20664D01*
X201999D01*
X208000Y14000D02*
X211999D01*
Y15999D01*
X211332Y16666D01*
X209999D01*
X209333Y15999D01*
Y14000D01*
Y15333D02*
X208000Y16666D01*
X211999Y17999D02*
X208000Y20664D01*
X211999D02*
X208000Y17999D01*
Y21997D02*
Y23330D01*
Y22664D01*
X211999D01*
X211332Y21997D01*
X221999Y14000D02*
Y16666D01*
Y15333D01*
X218000D01*
X221999Y17999D02*
X218000Y20664D01*
X221999D02*
X218000Y17999D01*
Y21997D02*
Y23330D01*
Y22664D01*
X221999D01*
X221332Y21997D01*
X231332Y16666D02*
X231999Y15999D01*
Y14667D01*
X231332Y14000D01*
X228666D01*
X228000Y14667D01*
Y15999D01*
X228666Y16666D01*
X229999D01*
Y15333D01*
X228000Y17999D02*
X231999D01*
X228000Y20664D01*
X231999D01*
Y21997D02*
X228000D01*
Y23997D01*
X228666Y24663D01*
X231332D01*
X231999Y23997D01*
Y21997D01*
X151999Y16666D02*
Y14000D01*
X149999D01*
X150666Y15333D01*
Y15999D01*
X149999Y16666D01*
X148667D01*
X148000Y15999D01*
Y14667D01*
X148667Y14000D01*
X151999Y17999D02*
X149333D01*
X148000Y19332D01*
X149333Y20664D01*
X151999D01*
X161332Y16666D02*
X161999Y15999D01*
Y14667D01*
X161332Y14000D01*
X158667D01*
X158000Y14667D01*
Y15999D01*
X158667Y16666D01*
X159999D01*
Y15333D01*
X158000Y17999D02*
X161999D01*
X158000Y20664D01*
X161999D01*
Y21997D02*
X158000D01*
Y23997D01*
X158667Y24663D01*
X161332D01*
X161999Y23997D01*
Y21997D01*
X168000Y14000D02*
X171999D01*
Y15999D01*
X171332Y16666D01*
X169999D01*
X169333Y15999D01*
Y14000D01*
Y15333D02*
X168000Y16666D01*
X171999Y17999D02*
X168000Y20664D01*
X171999D02*
X168000Y17999D01*
X171332Y21997D02*
X171999Y22664D01*
Y23997D01*
X171332Y24663D01*
X170666D01*
X169999Y23997D01*
Y23330D01*
Y23997D01*
X169333Y24663D01*
X168667D01*
X168000Y23997D01*
Y22664D01*
X168667Y21997D01*
X181999Y14000D02*
Y16666D01*
Y15333D01*
X178000D01*
X181999Y17999D02*
X178000Y20664D01*
X181999D02*
X178000Y17999D01*
X181332Y21997D02*
X181999Y22664D01*
Y23997D01*
X181332Y24663D01*
X180666D01*
X179999Y23997D01*
Y23330D01*
Y23997D01*
X179333Y24663D01*
X178666D01*
X178000Y23997D01*
Y22664D01*
X178666Y21997D01*
X331332Y16666D02*
X331999Y15999D01*
Y14667D01*
X331332Y14000D01*
X328666D01*
X328000Y14667D01*
Y15999D01*
X328666Y16666D01*
X329999D01*
Y15333D01*
X328000Y17999D02*
X331999D01*
X328000Y20664D01*
X331999D01*
Y21997D02*
X328000D01*
Y23997D01*
X328666Y24663D01*
X331332D01*
X331999Y23997D01*
Y21997D01*
X321332Y16666D02*
X321999Y15999D01*
Y14667D01*
X321332Y14000D01*
X320666D01*
X319999Y14667D01*
Y15999D01*
X319333Y16666D01*
X318666D01*
X318000Y15999D01*
Y14667D01*
X318666Y14000D01*
X321999Y17999D02*
X318000D01*
X319333Y19332D01*
X318000Y20664D01*
X321999D01*
X321332Y24663D02*
X321999Y23997D01*
Y22664D01*
X321332Y21997D01*
X318666D01*
X318000Y22664D01*
Y23997D01*
X318666Y24663D01*
X321999Y25996D02*
X318000D01*
Y28662D01*
X321999Y29995D02*
X318000D01*
X319333D01*
X321999Y32661D01*
X319999Y30661D01*
X318000Y32661D01*
X311332Y16666D02*
X311999Y15999D01*
Y14667D01*
X311332Y14000D01*
X310666D01*
X309999Y14667D01*
Y15999D01*
X309333Y16666D01*
X308666D01*
X308000Y15999D01*
Y14667D01*
X308666Y14000D01*
X311999Y17999D02*
X308000D01*
X309333Y19332D01*
X308000Y20664D01*
X311999D01*
Y21997D02*
X308000D01*
Y23997D01*
X308666Y24663D01*
X311332D01*
X311999Y23997D01*
Y21997D01*
Y25996D02*
Y27329D01*
Y26663D01*
X308000D01*
Y25996D01*
Y27329D01*
X311999Y31328D02*
Y29995D01*
X311332Y29328D01*
X308666D01*
X308000Y29995D01*
Y31328D01*
X308666Y31994D01*
X311332D01*
X311999Y31328D01*
X301332Y14000D02*
X301999Y14667D01*
Y15999D01*
X301332Y16666D01*
X300666D01*
X299999Y15999D01*
Y15333D01*
Y15999D01*
X299333Y16666D01*
X298666D01*
X298000Y15999D01*
Y14667D01*
X298666Y14000D01*
X301999Y17999D02*
X299333D01*
X298000Y19332D01*
X299333Y20664D01*
X301999D01*
X301332Y21997D02*
X301999Y22664D01*
Y23997D01*
X301332Y24663D01*
X300666D01*
X299999Y23997D01*
Y23330D01*
Y23997D01*
X299333Y24663D01*
X298666D01*
X298000Y23997D01*
Y22664D01*
X298666Y21997D01*
X328334Y106332D02*
X329001Y106999D01*
X330334D01*
X331000Y106332D01*
Y103666D01*
X330334Y103000D01*
X329001D01*
X328334Y103666D01*
Y104999D01*
X329667D01*
X327001Y103000D02*
Y106999D01*
X324336Y103000D01*
Y106999D01*
X323003D02*
Y103000D01*
X321003D01*
X320337Y103666D01*
Y106332D01*
X321003Y106999D01*
X323003D01*
X328334Y96332D02*
X329001Y96999D01*
X330334D01*
X331000Y96332D01*
Y95666D01*
X330334Y94999D01*
X329001D01*
X328334Y94333D01*
Y93666D01*
X329001Y93000D01*
X330334D01*
X331000Y93666D01*
X324336Y96999D02*
X325668Y96332D01*
X327001Y94999D01*
Y93666D01*
X326335Y93000D01*
X325002D01*
X324336Y93666D01*
Y94333D01*
X325002Y94999D01*
X327001D01*
X328334Y86332D02*
X329001Y86999D01*
X330334D01*
X331000Y86332D01*
Y85666D01*
X330334Y84999D01*
X329001D01*
X328334Y84333D01*
Y83666D01*
X329001Y83000D01*
X330334D01*
X331000Y83666D01*
X324336Y86999D02*
X327001D01*
Y84999D01*
X325668Y85666D01*
X325002D01*
X324336Y84999D01*
Y83666D01*
X325002Y83000D01*
X326335D01*
X327001Y83666D01*
X328334Y76332D02*
X329001Y76999D01*
X330334D01*
X331000Y76332D01*
Y75666D01*
X330334Y74999D01*
X329001D01*
X328334Y74333D01*
Y73666D01*
X329001Y73000D01*
X330334D01*
X331000Y73666D01*
X325002Y73000D02*
Y76999D01*
X327001Y74999D01*
X324336D01*
X328334Y66332D02*
X329001Y66999D01*
X330334D01*
X331000Y66332D01*
Y65666D01*
X330334Y64999D01*
X329001D01*
X328334Y64333D01*
Y63666D01*
X329001Y63000D01*
X330334D01*
X331000Y63666D01*
X327001Y66332D02*
X326335Y66999D01*
X325002D01*
X324336Y66332D01*
Y65666D01*
X325002Y64999D01*
X325668D01*
X325002D01*
X324336Y64333D01*
Y63666D01*
X325002Y63000D01*
X326335D01*
X327001Y63666D01*
X328334Y56332D02*
X329001Y56999D01*
X330334D01*
X331000Y56332D01*
Y55666D01*
X330334Y54999D01*
X329001D01*
X328334Y54333D01*
Y53666D01*
X329001Y53000D01*
X330334D01*
X331000Y53666D01*
X324336Y53000D02*
X327001D01*
X324336Y55666D01*
Y56332D01*
X325002Y56999D01*
X326335D01*
X327001Y56332D01*
X328334Y46332D02*
X329001Y46999D01*
X330334D01*
X331000Y46332D01*
Y45666D01*
X330334Y44999D01*
X329001D01*
X328334Y44333D01*
Y43666D01*
X329001Y43000D01*
X330334D01*
X331000Y43666D01*
X327001Y43000D02*
X325668D01*
X326335D01*
Y46999D01*
X327001Y46332D01*
X348999Y249668D02*
X345001D01*
Y251668D01*
X345667Y252334D01*
X348333D01*
X348999Y251668D01*
Y249668D01*
X345001Y256333D02*
Y253667D01*
X347666Y256333D01*
X348333D01*
X348999Y255666D01*
Y254333D01*
X348333Y253667D01*
Y257666D02*
X348999Y258332D01*
Y259665D01*
X348333Y260332D01*
X345667D01*
X345001Y259665D01*
Y258332D01*
X345667Y257666D01*
X348333D01*
X333999Y250002D02*
X330001D01*
Y252001D01*
X330667Y252667D01*
X333333D01*
X333999Y252001D01*
Y250002D01*
X330001Y254000D02*
Y255333D01*
Y254667D01*
X333999D01*
X333333Y254000D01*
X330001Y259332D02*
X333999D01*
X332000Y257333D01*
Y259998D01*
X318999Y250668D02*
X315001D01*
Y252667D01*
X315667Y253334D01*
X318333D01*
X318999Y252667D01*
Y250668D01*
X315001Y254667D02*
Y256000D01*
Y255333D01*
X318999D01*
X318333Y254667D01*
X315001Y257999D02*
Y259332D01*
Y258665D01*
X318999D01*
X318333Y257999D01*
X303999Y251668D02*
X300001D01*
Y253667D01*
X300667Y254334D01*
X303333D01*
X303999Y253667D01*
Y251668D01*
Y258332D02*
Y255666D01*
X302000D01*
X302666Y256999D01*
Y257666D01*
X302000Y258332D01*
X300667D01*
X300001Y257666D01*
Y256333D01*
X300667Y255666D01*
X288999Y251002D02*
X285001D01*
Y253001D01*
X285667Y253667D01*
X288333D01*
X288999Y253001D01*
Y251002D01*
X285001Y255000D02*
Y256333D01*
Y255667D01*
X288999D01*
X288333Y255000D01*
X285667Y258333D02*
X285001Y258999D01*
Y260332D01*
X285667Y260998D01*
X288333D01*
X288999Y260332D01*
Y258999D01*
X288333Y258333D01*
X287666D01*
X287000Y258999D01*
Y260998D01*
X273999Y250002D02*
X270001D01*
Y252001D01*
X270667Y252667D01*
X273333D01*
X273999Y252001D01*
Y250002D01*
X270001Y254000D02*
Y255333D01*
Y254667D01*
X273999D01*
X273333Y254000D01*
Y257333D02*
X273999Y257999D01*
Y259332D01*
X273333Y259998D01*
X272666D01*
X272000Y259332D01*
Y258665D01*
Y259332D01*
X271334Y259998D01*
X270667D01*
X270001Y259332D01*
Y257999D01*
X270667Y257333D01*
X258999Y250002D02*
X255001D01*
Y252001D01*
X255667Y252667D01*
X258333D01*
X258999Y252001D01*
Y250002D01*
X255001Y254000D02*
Y255333D01*
Y254667D01*
X258999D01*
X258333Y254000D01*
Y257333D02*
X258999Y257999D01*
Y259332D01*
X258333Y259998D01*
X255667D01*
X255001Y259332D01*
Y257999D01*
X255667Y257333D01*
X258333D01*
X243999Y251668D02*
X240001D01*
Y253667D01*
X240667Y254334D01*
X243333D01*
X243999Y253667D01*
Y251668D01*
X240001Y257666D02*
X243999D01*
X242000Y255666D01*
Y258332D01*
X243999Y282334D02*
X240001D01*
Y284334D01*
X240667Y285000D01*
X243333D01*
X243999Y284334D01*
Y282334D01*
X240001Y286333D02*
Y287666D01*
Y286999D01*
X243999D01*
X243333Y286333D01*
X258999Y281668D02*
X255001D01*
Y283667D01*
X255667Y284334D01*
X258333D01*
X258999Y283667D01*
Y281668D01*
Y285666D02*
Y288332D01*
X258333D01*
X255667Y285666D01*
X255001D01*
X273999Y280002D02*
X270001D01*
Y282001D01*
X270667Y282667D01*
X273333D01*
X273999Y282001D01*
Y280002D01*
X270001Y284000D02*
Y285333D01*
Y284667D01*
X273999D01*
X273333Y284000D01*
X273999Y289998D02*
X273333Y288666D01*
X272000Y287333D01*
X270667D01*
X270001Y287999D01*
Y289332D01*
X270667Y289998D01*
X271334D01*
X272000Y289332D01*
Y287333D01*
X303999Y281668D02*
X300001D01*
Y283667D01*
X300667Y284334D01*
X303333D01*
X303999Y283667D01*
Y281668D01*
X300001Y288332D02*
Y285666D01*
X302666Y288332D01*
X303333D01*
X303999Y287666D01*
Y286333D01*
X303333Y285666D01*
X318999Y281668D02*
X315001D01*
Y283667D01*
X315667Y284334D01*
X318333D01*
X318999Y283667D01*
Y281668D01*
X318333Y285666D02*
X318999Y286333D01*
Y287666D01*
X318333Y288332D01*
X317666D01*
X317000Y287666D01*
X316334Y288332D01*
X315667D01*
X315001Y287666D01*
Y286333D01*
X315667Y285666D01*
X316334D01*
X317000Y286333D01*
X317666Y285666D01*
X318333D01*
X317000Y286333D02*
Y287666D01*
X333999Y280002D02*
X330001D01*
Y282001D01*
X330667Y282667D01*
X333333D01*
X333999Y282001D01*
Y280002D01*
X330001Y284000D02*
Y285333D01*
Y284667D01*
X333999D01*
X333333Y284000D01*
X333999Y287333D02*
Y289998D01*
X333333D01*
X330667Y287333D01*
X330001D01*
X348999Y279668D02*
X345001D01*
Y281668D01*
X345667Y282334D01*
X348333D01*
X348999Y281668D01*
Y279668D01*
X345001Y286333D02*
Y283667D01*
X347666Y286333D01*
X348333D01*
X348999Y285666D01*
Y284334D01*
X348333Y283667D01*
Y287666D02*
X348999Y288332D01*
Y289665D01*
X348333Y290332D01*
X347666D01*
X347000Y289665D01*
Y288999D01*
Y289665D01*
X346334Y290332D01*
X345667D01*
X345001Y289665D01*
Y288332D01*
X345667Y287666D01*
X28999Y249668D02*
X25001D01*
Y251668D01*
X25667Y252334D01*
X28333D01*
X28999Y251668D01*
Y249668D01*
X25001Y256333D02*
Y253667D01*
X27666Y256333D01*
X28333D01*
X28999Y255666D01*
Y254333D01*
X28333Y253667D01*
Y257666D02*
X28999Y258332D01*
Y259665D01*
X28333Y260332D01*
X27666D01*
X27000Y259665D01*
X26333Y260332D01*
X25667D01*
X25001Y259665D01*
Y258332D01*
X25667Y257666D01*
X26333D01*
X27000Y258332D01*
X27666Y257666D01*
X28333D01*
X27000Y258332D02*
Y259665D01*
X43999Y249668D02*
X40001D01*
Y251668D01*
X40667Y252334D01*
X43333D01*
X43999Y251668D01*
Y249668D01*
X43333Y253667D02*
X43999Y254333D01*
Y255666D01*
X43333Y256333D01*
X42666D01*
X42000Y255666D01*
Y255000D01*
Y255666D01*
X41333Y256333D01*
X40667D01*
X40001Y255666D01*
Y254333D01*
X40667Y253667D01*
X40001Y259665D02*
X43999D01*
X42000Y257666D01*
Y260332D01*
X58999Y249668D02*
X55001D01*
Y251668D01*
X55667Y252334D01*
X58333D01*
X58999Y251668D01*
Y249668D01*
X58333Y253667D02*
X58999Y254333D01*
Y255666D01*
X58333Y256333D01*
X57666D01*
X57000Y255666D01*
Y255000D01*
Y255666D01*
X56334Y256333D01*
X55667D01*
X55001Y255666D01*
Y254333D01*
X55667Y253667D01*
X58999Y257666D02*
Y260332D01*
X58333D01*
X55667Y257666D01*
X55001D01*
X73999Y249668D02*
X70001D01*
Y251668D01*
X70667Y252334D01*
X73333D01*
X73999Y251668D01*
Y249668D01*
X70001Y255666D02*
X73999D01*
X72000Y253667D01*
Y256333D01*
X70001Y260332D02*
Y257666D01*
X72666Y260332D01*
X73333D01*
X73999Y259665D01*
Y258332D01*
X73333Y257666D01*
X28999Y279668D02*
X25001D01*
Y281668D01*
X25667Y282334D01*
X28333D01*
X28999Y281668D01*
Y279668D01*
X25001Y286333D02*
Y283667D01*
X27666Y286333D01*
X28333D01*
X28999Y285666D01*
Y284333D01*
X28333Y283667D01*
X28999Y290332D02*
X28333Y288999D01*
X27000Y287666D01*
X25667D01*
X25001Y288332D01*
Y289665D01*
X25667Y290332D01*
X26333D01*
X27000Y289665D01*
Y287666D01*
X43999Y280335D02*
X40001D01*
Y282334D01*
X40667Y283001D01*
X43333D01*
X43999Y282334D01*
Y280335D01*
X43333Y284333D02*
X43999Y285000D01*
Y286333D01*
X43333Y286999D01*
X42666D01*
X42000Y286333D01*
Y285666D01*
Y286333D01*
X41333Y286999D01*
X40667D01*
X40001Y286333D01*
Y285000D01*
X40667Y284333D01*
X40001Y288332D02*
Y289665D01*
Y288999D01*
X43999D01*
X43333Y288332D01*
X58999Y279668D02*
X55001D01*
Y281668D01*
X55667Y282334D01*
X58333D01*
X58999Y281668D01*
Y279668D01*
X55001Y285666D02*
X58999D01*
X57000Y283667D01*
Y286333D01*
X58333Y287666D02*
X58999Y288332D01*
Y289665D01*
X58333Y290332D01*
X55667D01*
X55001Y289665D01*
Y288332D01*
X55667Y287666D01*
X58333D01*
X73999Y279668D02*
X70001D01*
Y281668D01*
X70667Y282334D01*
X73333D01*
X73999Y281668D01*
Y279668D01*
X70001Y285666D02*
X73999D01*
X72000Y283667D01*
Y286333D01*
X70001Y289665D02*
X73999D01*
X72000Y287666D01*
Y290332D01*
X88999Y279668D02*
X85001D01*
Y281668D01*
X85667Y282334D01*
X88333D01*
X88999Y281668D01*
Y279668D01*
X85001Y286333D02*
Y283667D01*
X87666Y286333D01*
X88333D01*
X88999Y285666D01*
Y284333D01*
X88333Y283667D01*
X85667Y287666D02*
X85001Y288332D01*
Y289665D01*
X85667Y290332D01*
X88333D01*
X88999Y289665D01*
Y288332D01*
X88333Y287666D01*
X87666D01*
X87000Y288332D01*
Y290332D01*
X103999Y279668D02*
X100001D01*
Y281668D01*
X100667Y282334D01*
X103333D01*
X103999Y281668D01*
Y279668D01*
X103333Y283667D02*
X103999Y284334D01*
Y285666D01*
X103333Y286333D01*
X102666D01*
X102000Y285666D01*
Y285000D01*
Y285666D01*
X101334Y286333D01*
X100667D01*
X100001Y285666D01*
Y284334D01*
X100667Y283667D01*
X100001Y290332D02*
Y287666D01*
X102666Y290332D01*
X103333D01*
X103999Y289665D01*
Y288332D01*
X103333Y287666D01*
X118999Y279668D02*
X115001D01*
Y281668D01*
X115667Y282334D01*
X118333D01*
X118999Y281668D01*
Y279668D01*
X118333Y283667D02*
X118999Y284333D01*
Y285666D01*
X118333Y286333D01*
X117666D01*
X117000Y285666D01*
Y285000D01*
Y285666D01*
X116333Y286333D01*
X115667D01*
X115001Y285666D01*
Y284333D01*
X115667Y283667D01*
X118999Y290332D02*
Y287666D01*
X117000D01*
X117666Y288999D01*
Y289665D01*
X117000Y290332D01*
X115667D01*
X115001Y289665D01*
Y288332D01*
X115667Y287666D01*
X133999Y279668D02*
X130001D01*
Y281668D01*
X130667Y282334D01*
X133333D01*
X133999Y281668D01*
Y279668D01*
X133333Y283667D02*
X133999Y284333D01*
Y285666D01*
X133333Y286333D01*
X132666D01*
X132000Y285666D01*
Y285000D01*
Y285666D01*
X131333Y286333D01*
X130667D01*
X130001Y285666D01*
Y284333D01*
X130667Y283667D01*
X133333Y287666D02*
X133999Y288332D01*
Y289665D01*
X133333Y290332D01*
X132666D01*
X132000Y289665D01*
X131333Y290332D01*
X130667D01*
X130001Y289665D01*
Y288332D01*
X130667Y287666D01*
X131333D01*
X132000Y288332D01*
X132666Y287666D01*
X133333D01*
X132000Y288332D02*
Y289665D01*
X322498Y321399D02*
X321165D01*
X321832D01*
Y317401D01*
X322498D01*
X321165D01*
X316500Y320733D02*
X317167Y321399D01*
X318500D01*
X319166Y320733D01*
Y318067D01*
X318500Y317401D01*
X317167D01*
X316500Y318067D01*
X312502Y317401D02*
X315167D01*
X312502Y320066D01*
Y320733D01*
X313168Y321399D01*
X314501D01*
X315167Y320733D01*
X261832Y321399D02*
X260499D01*
X261165D01*
Y317401D01*
X261832D01*
X260499D01*
X255834Y320733D02*
X256500Y321399D01*
X257833D01*
X258500Y320733D01*
Y318067D01*
X257833Y317401D01*
X256500D01*
X255834Y318067D01*
X254501Y317401D02*
X253168D01*
X253835D01*
Y321399D01*
X254501Y320733D01*
X47498Y321399D02*
X46165D01*
X46832D01*
Y317401D01*
X47498D01*
X46165D01*
X41500Y320733D02*
X42167Y321399D01*
X43500D01*
X44166Y320733D01*
Y318067D01*
X43500Y317401D01*
X42167D01*
X41500Y318067D01*
X37502Y321399D02*
X40167D01*
Y319400D01*
X38835Y320066D01*
X38168D01*
X37502Y319400D01*
Y318067D01*
X38168Y317401D01*
X39501D01*
X40167Y318067D01*
X107498Y321399D02*
X106166D01*
X106832D01*
Y317401D01*
X107498D01*
X106166D01*
X101500Y320733D02*
X102167Y321399D01*
X103500D01*
X104166Y320733D01*
Y318067D01*
X103500Y317401D01*
X102167D01*
X101500Y318067D01*
X97502Y321399D02*
X98835Y320733D01*
X100167Y319400D01*
Y318067D01*
X99501Y317401D01*
X98168D01*
X97502Y318067D01*
Y318734D01*
X98168Y319400D01*
X100167D01*
X43999Y170668D02*
X40001D01*
Y172668D01*
X40667Y173334D01*
X43333D01*
X43999Y172668D01*
Y170668D01*
X43333Y174667D02*
X43999Y175333D01*
Y176666D01*
X43333Y177333D01*
X42666D01*
X42000Y176666D01*
Y176000D01*
Y176666D01*
X41333Y177333D01*
X40667D01*
X40001Y176666D01*
Y175333D01*
X40667Y174667D01*
X43999Y181332D02*
X43333Y179999D01*
X42000Y178666D01*
X40667D01*
X40001Y179332D01*
Y180665D01*
X40667Y181332D01*
X41333D01*
X42000Y180665D01*
Y178666D01*
X58999Y170668D02*
X55001D01*
Y172668D01*
X55667Y173334D01*
X58333D01*
X58999Y172668D01*
Y170668D01*
X58333Y174667D02*
X58999Y175333D01*
Y176666D01*
X58333Y177333D01*
X57666D01*
X57000Y176666D01*
Y176000D01*
Y176666D01*
X56334Y177333D01*
X55667D01*
X55001Y176666D01*
Y175333D01*
X55667Y174667D01*
X58333Y178666D02*
X58999Y179332D01*
Y180665D01*
X58333Y181332D01*
X57666D01*
X57000Y180665D01*
Y179999D01*
Y180665D01*
X56334Y181332D01*
X55667D01*
X55001Y180665D01*
Y179332D01*
X55667Y178666D01*
X73999Y170668D02*
X70001D01*
Y172668D01*
X70667Y173334D01*
X73333D01*
X73999Y172668D01*
Y170668D01*
X70001Y177333D02*
Y174667D01*
X72666Y177333D01*
X73333D01*
X73999Y176666D01*
Y175333D01*
X73333Y174667D01*
X73999Y178666D02*
Y181332D01*
X73333D01*
X70667Y178666D01*
X70001D01*
X88999Y171335D02*
X85001D01*
Y173334D01*
X85667Y174001D01*
X88333D01*
X88999Y173334D01*
Y171335D01*
X85001Y177999D02*
Y175333D01*
X87666Y177999D01*
X88333D01*
X88999Y177333D01*
Y176000D01*
X88333Y175333D01*
X85001Y179332D02*
Y180665D01*
Y179999D01*
X88999D01*
X88333Y179332D01*
X103999Y171002D02*
X100001D01*
Y173001D01*
X100667Y173667D01*
X103333D01*
X103999Y173001D01*
Y171002D01*
X100001Y175000D02*
Y176333D01*
Y175667D01*
X103999D01*
X103333Y175000D01*
X103999Y180998D02*
Y178333D01*
X102000D01*
X102666Y179666D01*
Y180332D01*
X102000Y180998D01*
X100667D01*
X100001Y180332D01*
Y178999D01*
X100667Y178333D01*
X118999Y171002D02*
X115001D01*
Y173001D01*
X115667Y173667D01*
X118333D01*
X118999Y173001D01*
Y171002D01*
X115001Y175000D02*
Y176333D01*
Y175667D01*
X118999D01*
X118333Y175000D01*
X115001Y180998D02*
Y178333D01*
X117666Y180998D01*
X118333D01*
X118999Y180332D01*
Y178999D01*
X118333Y178333D01*
X133999Y172668D02*
X130001D01*
Y174667D01*
X130667Y175333D01*
X133333D01*
X133999Y174667D01*
Y172668D01*
Y179332D02*
X133333Y177999D01*
X132000Y176666D01*
X130667D01*
X130001Y177333D01*
Y178666D01*
X130667Y179332D01*
X131333D01*
X132000Y178666D01*
Y176666D01*
X133999Y142668D02*
X130001D01*
Y144667D01*
X130667Y145334D01*
X133333D01*
X133999Y144667D01*
Y142668D01*
X133333Y146667D02*
X133999Y147333D01*
Y148666D01*
X133333Y149332D01*
X132667D01*
X132000Y148666D01*
Y147999D01*
Y148666D01*
X131333Y149332D01*
X130667D01*
X130001Y148666D01*
Y147333D01*
X130667Y146667D01*
X118999Y142668D02*
X115001D01*
Y144667D01*
X115667Y145334D01*
X118333D01*
X118999Y144667D01*
Y142668D01*
X115667Y146667D02*
X115001Y147333D01*
Y148666D01*
X115667Y149332D01*
X118333D01*
X118999Y148666D01*
Y147333D01*
X118333Y146667D01*
X117666D01*
X117000Y147333D01*
Y149332D01*
X103999Y141002D02*
X100001D01*
Y143001D01*
X100667Y143667D01*
X103333D01*
X103999Y143001D01*
Y141002D01*
X100001Y145000D02*
Y146333D01*
Y145667D01*
X103999D01*
X103333Y145000D01*
Y148333D02*
X103999Y148999D01*
Y150332D01*
X103333Y150998D01*
X102666D01*
X102000Y150332D01*
X101334Y150998D01*
X100667D01*
X100001Y150332D01*
Y148999D01*
X100667Y148333D01*
X101334D01*
X102000Y148999D01*
X102666Y148333D01*
X103333D01*
X102000Y148999D02*
Y150332D01*
X88999Y140668D02*
X85001D01*
Y142668D01*
X85667Y143334D01*
X88333D01*
X88999Y142668D01*
Y140668D01*
X85001Y147333D02*
Y144667D01*
X87666Y147333D01*
X88333D01*
X88999Y146667D01*
Y145334D01*
X88333Y144667D01*
X85001Y150665D02*
X88999D01*
X87000Y148666D01*
Y151332D01*
X73999Y140668D02*
X70001D01*
Y142668D01*
X70667Y143334D01*
X73333D01*
X73999Y142668D01*
Y140668D01*
X70001Y147333D02*
Y144667D01*
X72666Y147333D01*
X73333D01*
X73999Y146667D01*
Y145334D01*
X73333Y144667D01*
X73999Y151332D02*
Y148666D01*
X72000D01*
X72666Y149999D01*
Y150665D01*
X72000Y151332D01*
X70667D01*
X70001Y150665D01*
Y149332D01*
X70667Y148666D01*
X58999Y140668D02*
X55001D01*
Y142668D01*
X55667Y143334D01*
X58333D01*
X58999Y142668D01*
Y140668D01*
X58333Y144667D02*
X58999Y145334D01*
Y146667D01*
X58333Y147333D01*
X57666D01*
X57000Y146667D01*
Y146000D01*
Y146667D01*
X56334Y147333D01*
X55667D01*
X55001Y146667D01*
Y145334D01*
X55667Y144667D01*
X58333Y148666D02*
X58999Y149332D01*
Y150665D01*
X58333Y151332D01*
X55667D01*
X55001Y150665D01*
Y149332D01*
X55667Y148666D01*
X58333D01*
X43999Y140668D02*
X40001D01*
Y142668D01*
X40667Y143334D01*
X43333D01*
X43999Y142668D01*
Y140668D01*
X43333Y144667D02*
X43999Y145334D01*
Y146666D01*
X43333Y147333D01*
X42666D01*
X42000Y146666D01*
Y146000D01*
Y146666D01*
X41333Y147333D01*
X40667D01*
X40001Y146666D01*
Y145334D01*
X40667Y144667D01*
Y148666D02*
X40001Y149332D01*
Y150665D01*
X40667Y151332D01*
X43333D01*
X43999Y150665D01*
Y149332D01*
X43333Y148666D01*
X42666D01*
X42000Y149332D01*
Y151332D01*
X28999Y171335D02*
X25001D01*
Y173334D01*
X25667Y174001D01*
X28333D01*
X28999Y173334D01*
Y171335D01*
X25001Y177333D02*
X28999D01*
X27000Y175333D01*
Y177999D01*
X25001Y179332D02*
Y180665D01*
Y179999D01*
X28999D01*
X28333Y179332D01*
X28999Y140668D02*
X25001D01*
Y142668D01*
X25667Y143334D01*
X28333D01*
X28999Y142668D01*
Y140668D01*
X25001Y146666D02*
X28999D01*
X27000Y144667D01*
Y147333D01*
X28333Y148666D02*
X28999Y149332D01*
Y150665D01*
X28333Y151332D01*
X27666D01*
X27000Y150665D01*
Y149999D01*
Y150665D01*
X26333Y151332D01*
X25667D01*
X25001Y150665D01*
Y149332D01*
X25667Y148666D01*
X47498Y112599D02*
X46165D01*
X46832D01*
Y108601D01*
X47498D01*
X46165D01*
X41500Y111933D02*
X42167Y112599D01*
X43500D01*
X44166Y111933D01*
Y109267D01*
X43500Y108601D01*
X42167D01*
X41500Y109267D01*
X38168Y108601D02*
Y112599D01*
X40167Y110600D01*
X37502D01*
X107498Y112599D02*
X106166D01*
X106832D01*
Y108601D01*
X107498D01*
X106166D01*
X101500Y111933D02*
X102167Y112599D01*
X103500D01*
X104166Y111933D01*
Y109267D01*
X103500Y108601D01*
X102167D01*
X101500Y109267D01*
X100167Y111933D02*
X99501Y112599D01*
X98168D01*
X97502Y111933D01*
Y111267D01*
X98168Y110600D01*
X98835D01*
X98168D01*
X97502Y109933D01*
Y109267D01*
X98168Y108601D01*
X99501D01*
X100167Y109267D01*
X288999Y279668D02*
X285001D01*
Y281668D01*
X285667Y282334D01*
X288333D01*
X288999Y281668D01*
Y279668D01*
X285001Y286333D02*
Y283667D01*
X287666Y286333D01*
X288333D01*
X288999Y285666D01*
Y284333D01*
X288333Y283667D01*
X285001Y290332D02*
Y287666D01*
X287666Y290332D01*
X288333D01*
X288999Y289665D01*
Y288332D01*
X288333Y287666D01*
M02*
