G04*
G04 #@! TF.GenerationSoftware,Altium Limited,Altium Designer,21.3.2 (30)*
G04*
G04 Layer_Color=128*
%FSLAX25Y25*%
%MOIN*%
G70*
G04*
G04 #@! TF.SameCoordinates,0941D6B8-9053-4ACA-ABC4-2B4951EE2B0C*
G04*
G04*
G04 #@! TF.FilePolarity,Positive*
G04*
G01*
G75*
%ADD82C,0.00200*%
D82*
X48300Y16000D02*
X51700D01*
X50000Y14300D02*
Y17700D01*
X58300Y16000D02*
X61700D01*
X60000Y14300D02*
Y17700D01*
X68800Y16000D02*
X72200D01*
X70500Y14300D02*
Y17700D01*
X256004Y18465D02*
X258169D01*
X257087Y17382D02*
Y19547D01*
X271752Y18465D02*
X273917D01*
X272835Y17382D02*
Y19547D01*
X338032Y180000D02*
X341968D01*
X340000Y178032D02*
Y181968D01*
X338032Y120000D02*
X341968D01*
X340000Y118032D02*
Y121968D01*
X338032Y130000D02*
X341968D01*
X340000Y128032D02*
Y131968D01*
X338032Y140000D02*
X341968D01*
X340000Y138031D02*
Y141969D01*
X338032Y150000D02*
X341968D01*
X340000Y148031D02*
Y151969D01*
X338032Y160000D02*
X341968D01*
X340000Y158031D02*
Y161969D01*
X338032Y170000D02*
X341968D01*
X340000Y168032D02*
Y171968D01*
X338032Y190000D02*
X341968D01*
X340000Y188031D02*
Y191969D01*
X337835Y65000D02*
X342165D01*
X340000Y62835D02*
Y67165D01*
X337835Y45000D02*
X342165D01*
X340000Y42835D02*
Y47165D01*
X337835Y55000D02*
X342165D01*
X340000Y52835D02*
Y57165D01*
X337835Y75000D02*
X342165D01*
X340000Y72835D02*
Y77165D01*
X337835Y85000D02*
X342165D01*
X340000Y82835D02*
Y87165D01*
X337835Y95000D02*
X342165D01*
X340000Y92835D02*
Y97165D01*
X337835Y105000D02*
X342165D01*
X340000Y102835D02*
Y107165D01*
X193228Y145000D02*
X196772D01*
X195000Y143228D02*
Y146772D01*
X193228Y195000D02*
X196772D01*
X195000Y193228D02*
Y196772D01*
X193228Y155000D02*
X196772D01*
X195000Y153228D02*
Y156772D01*
X193228Y165000D02*
X196772D01*
X195000Y163228D02*
Y166772D01*
X193228Y175000D02*
X196772D01*
X195000Y173228D02*
Y176772D01*
X193228Y185000D02*
X196772D01*
X195000Y183228D02*
Y186772D01*
X193228Y205000D02*
X196772D01*
X195000Y203228D02*
Y206772D01*
X193228Y235000D02*
X196772D01*
X195000Y233228D02*
Y236772D01*
X193228Y215000D02*
X196772D01*
X195000Y213228D02*
Y216772D01*
X193228Y225000D02*
X196772D01*
X195000Y223228D02*
Y226772D01*
X48228Y215000D02*
X51772D01*
X50000Y213228D02*
Y216772D01*
X33228Y195000D02*
X36772D01*
X35000Y193228D02*
Y196772D01*
X18228Y225000D02*
X21772D01*
X20000Y223228D02*
Y226772D01*
X48228Y225000D02*
X51772D01*
X50000Y223228D02*
Y226772D01*
X18228Y215000D02*
X21772D01*
X20000Y213228D02*
Y216772D01*
X63228Y195000D02*
X66772D01*
X65000Y193228D02*
Y196772D01*
X48228Y195000D02*
X51772D01*
X50000Y193228D02*
Y196772D01*
X18228Y205000D02*
X21772D01*
X20000Y203228D02*
Y206772D01*
X33228Y205000D02*
X36772D01*
X35000Y203228D02*
Y206772D01*
X48228Y205000D02*
X51772D01*
X50000Y203228D02*
Y206772D01*
X63228Y205000D02*
X66772D01*
X65000Y203228D02*
Y206772D01*
X63228Y225000D02*
X66772D01*
X65000Y223228D02*
Y226772D01*
X33228Y225000D02*
X36772D01*
X35000Y223228D02*
Y226772D01*
X63228Y215000D02*
X66772D01*
X65000Y213228D02*
Y216772D01*
X33228Y215000D02*
X36772D01*
X35000Y213228D02*
Y216772D01*
X18228Y195000D02*
X21772D01*
X20000Y193228D02*
Y196772D01*
X183228Y175000D02*
X186772D01*
X185000Y173228D02*
Y176772D01*
X173228Y185000D02*
X176772D01*
X175000Y183228D02*
Y186772D01*
X173228Y165000D02*
X176772D01*
X175000Y163228D02*
Y166772D01*
X183228Y155000D02*
X186772D01*
X185000Y153228D02*
Y156772D01*
X173228Y155000D02*
X176772D01*
X175000Y153228D02*
Y156772D01*
X173228Y175000D02*
X176772D01*
X175000Y173228D02*
Y176772D01*
X183228Y185000D02*
X186772D01*
X185000Y183228D02*
Y186772D01*
X183228Y145000D02*
X186772D01*
X185000Y143228D02*
Y146772D01*
X183228Y165000D02*
X186772D01*
X185000Y163228D02*
Y166772D01*
X173228Y145000D02*
X176772D01*
X175000Y143228D02*
Y146772D01*
X163228Y195000D02*
X166772D01*
X165000Y193228D02*
Y196772D01*
X163228Y185000D02*
X166772D01*
X165000Y183228D02*
Y186772D01*
X163228Y165000D02*
X166772D01*
X165000Y163228D02*
Y166772D01*
X163228Y175000D02*
X166772D01*
X165000Y173228D02*
Y176772D01*
X163228Y155000D02*
X166772D01*
X165000Y153228D02*
Y156772D01*
X108228Y205000D02*
X111772D01*
X110000Y203228D02*
Y206772D01*
X78228Y195000D02*
X81772D01*
X80000Y193228D02*
Y196772D01*
X108228Y195000D02*
X111772D01*
X110000Y193228D02*
Y196772D01*
X123228Y195000D02*
X126772D01*
X125000Y193228D02*
Y196772D01*
X123228Y205000D02*
X126772D01*
X125000Y203228D02*
Y206772D01*
X93228Y205000D02*
X96772D01*
X95000Y203228D02*
Y206772D01*
X93228Y195000D02*
X96772D01*
X95000Y193228D02*
Y196772D01*
X78228Y205000D02*
X81772D01*
X80000Y203228D02*
Y206772D01*
X183228Y235000D02*
X186772D01*
X185000Y233228D02*
Y236772D01*
X173228Y225000D02*
X176772D01*
X175000Y223228D02*
Y226772D01*
X183228Y225000D02*
X186772D01*
X185000Y223228D02*
Y226772D01*
X183228Y215000D02*
X186772D01*
X185000Y213228D02*
Y216772D01*
X173228Y235000D02*
X176772D01*
X175000Y233228D02*
Y236772D01*
X173228Y215000D02*
X176772D01*
X175000Y213228D02*
Y216772D01*
X183228Y205000D02*
X186772D01*
X185000Y203228D02*
Y206772D01*
X173228Y205000D02*
X176772D01*
X175000Y203228D02*
Y206772D01*
X173228Y195000D02*
X176772D01*
X175000Y193228D02*
Y196772D01*
X183228Y195000D02*
X186772D01*
X185000Y193228D02*
Y196772D01*
X78228Y225000D02*
X81772D01*
X80000Y223228D02*
Y226772D01*
X93228Y235000D02*
X96772D01*
X95000Y233228D02*
Y236772D01*
X108228Y225000D02*
X111772D01*
X110000Y223228D02*
Y226772D01*
X93228Y225000D02*
X96772D01*
X95000Y223228D02*
Y226772D01*
X78228Y235000D02*
X81772D01*
X80000Y233228D02*
Y236772D01*
X108228Y235000D02*
X111772D01*
X110000Y233228D02*
Y236772D01*
X123228Y235000D02*
X126772D01*
X125000Y233228D02*
Y236772D01*
X123228Y225000D02*
X126772D01*
X125000Y223228D02*
Y226772D01*
X278228Y205000D02*
X281772D01*
X280000Y203228D02*
Y206772D01*
X308228Y215000D02*
X311772D01*
X310000Y213228D02*
Y216772D01*
X308228Y235000D02*
X311772D01*
X310000Y233228D02*
Y236772D01*
X278228Y235000D02*
X281772D01*
X280000Y233228D02*
Y236772D01*
X308228Y205000D02*
X311772D01*
X310000Y203228D02*
Y206772D01*
X293228Y225000D02*
X296772D01*
X295000Y223228D02*
Y226772D01*
X293228Y235000D02*
X296772D01*
X295000Y233228D02*
Y236772D01*
X293228Y215000D02*
X296772D01*
X295000Y213228D02*
Y216772D01*
X293228Y205000D02*
X296772D01*
X295000Y203228D02*
Y206772D01*
X308228Y225000D02*
X311772D01*
X310000Y223228D02*
Y226772D01*
X278228Y225000D02*
X281772D01*
X280000Y223228D02*
Y226772D01*
X278228Y215000D02*
X281772D01*
X280000Y213228D02*
Y216772D01*
X163228Y205000D02*
X166772D01*
X165000Y203228D02*
Y206772D01*
X163228Y215000D02*
X166772D01*
X165000Y213228D02*
Y216772D01*
X163228Y225000D02*
X166772D01*
X165000Y223228D02*
Y226772D01*
X163228Y235000D02*
X166772D01*
X165000Y233228D02*
Y236772D01*
X163228Y145000D02*
X166772D01*
X165000Y143228D02*
Y146772D01*
X78228Y215000D02*
X81772D01*
X80000Y213228D02*
Y216772D01*
X93228Y215000D02*
X96772D01*
X95000Y213228D02*
Y216772D01*
X108228Y215000D02*
X111772D01*
X110000Y213228D02*
Y216772D01*
X123228Y215000D02*
X126772D01*
X125000Y213228D02*
Y216772D01*
X233228Y205000D02*
X236772D01*
X235000Y203228D02*
Y206772D01*
X263228Y205000D02*
X266772D01*
X265000Y203228D02*
Y206772D01*
X263228Y235000D02*
X266772D01*
X265000Y233228D02*
Y236772D01*
X248228Y235000D02*
X251772D01*
X250000Y233228D02*
Y236772D01*
X248228Y225000D02*
X251772D01*
X250000Y223228D02*
Y226772D01*
X248228Y215000D02*
X251772D01*
X250000Y213228D02*
Y216772D01*
X248228Y205000D02*
X251772D01*
X250000Y203228D02*
Y206772D01*
X233228Y235000D02*
X236772D01*
X235000Y233228D02*
Y236772D01*
X233228Y225000D02*
X236772D01*
X235000Y223228D02*
Y226772D01*
X233228Y215000D02*
X236772D01*
X235000Y213228D02*
Y216772D01*
X263228Y215000D02*
X266772D01*
X265000Y213228D02*
Y216772D01*
X263228Y225000D02*
X266772D01*
X265000Y223228D02*
Y226772D01*
X323228Y235000D02*
X326772D01*
X325000Y233228D02*
Y236772D01*
X323228Y205000D02*
X326772D01*
X325000Y203228D02*
Y206772D01*
X338228Y205000D02*
X341772D01*
X340000Y203228D02*
Y206772D01*
X323228Y215000D02*
X326772D01*
X325000Y213228D02*
Y216772D01*
X323228Y225000D02*
X326772D01*
X325000Y223228D02*
Y226772D01*
X338228Y235000D02*
X341772D01*
X340000Y233228D02*
Y236772D01*
X338228Y215000D02*
X341772D01*
X340000Y213228D02*
Y216772D01*
X338228Y225000D02*
X341772D01*
X340000Y223228D02*
Y226772D01*
X93272Y16079D02*
X98193D01*
X95732Y13618D02*
Y18539D01*
X125555Y16079D02*
X130476D01*
X128016Y13618D02*
Y18539D01*
X102425Y21000D02*
X105575D01*
X104000Y19425D02*
Y22575D01*
X102425Y11157D02*
X105575D01*
X104000Y9583D02*
Y12732D01*
X110299Y21000D02*
X113449D01*
X111874Y19425D02*
Y22575D01*
X118173Y21000D02*
X121323D01*
X119748Y19425D02*
Y22575D01*
X110299Y11157D02*
X113449D01*
X111874Y9583D02*
Y12732D01*
X118173Y11157D02*
X121323D01*
X119748Y9583D02*
Y12732D01*
X197992Y5000D02*
X202008D01*
X200000Y2992D02*
Y7008D01*
X207992Y5000D02*
X212008D01*
X210000Y2992D02*
Y7008D01*
X217992Y5000D02*
X222008D01*
X220000Y2992D02*
Y7008D01*
X227992Y5000D02*
X232008D01*
X230000Y2992D02*
Y7008D01*
X327992Y5000D02*
X332008D01*
X330000Y2992D02*
Y7008D01*
X317992Y5000D02*
X322008D01*
X320000Y2992D02*
Y7008D01*
X307992Y5000D02*
X312008D01*
X310000Y2992D02*
Y7008D01*
X297992Y5000D02*
X302008D01*
X300000Y2992D02*
Y7008D01*
X147992Y5000D02*
X152008D01*
X150000Y2992D02*
Y7008D01*
X157992Y5000D02*
X162008D01*
X160000Y2992D02*
Y7008D01*
X167992Y5000D02*
X172008D01*
X170000Y2992D02*
Y7008D01*
X177992Y5000D02*
X182008D01*
X180000Y2992D02*
Y7008D01*
X347311Y140500D02*
X348689D01*
X348000Y139811D02*
Y141189D01*
X327811Y125000D02*
X329189D01*
X328500Y124311D02*
Y125689D01*
X320811Y158000D02*
X322189D01*
X321500Y157311D02*
Y158689D01*
X308811Y142000D02*
X310189D01*
X309500Y141311D02*
Y142689D01*
X254811Y65000D02*
X256189D01*
X255500Y64311D02*
Y65689D01*
X253311Y70000D02*
X254689D01*
X254000Y69311D02*
Y70689D01*
X271311Y69500D02*
X272689D01*
X272000Y68811D02*
Y70189D01*
X322811Y49500D02*
X324189D01*
X323500Y48811D02*
Y50189D01*
X328311Y39000D02*
X329689D01*
X329000Y38311D02*
Y39689D01*
X162311Y100000D02*
X163689D01*
X163000Y99311D02*
Y100689D01*
X181811Y121500D02*
X183189D01*
X182500Y120811D02*
Y122189D01*
X101099Y268237D02*
X102477D01*
X101788Y267548D02*
Y268926D01*
X129311Y256000D02*
X130689D01*
X130000Y255311D02*
Y256689D01*
X86811Y236000D02*
X88189D01*
X87500Y235311D02*
Y236689D01*
X101811Y223500D02*
X103189D01*
X102500Y222811D02*
Y224189D01*
X120311Y187500D02*
X121689D01*
X121000Y186811D02*
Y188189D01*
X101811Y199500D02*
X103189D01*
X102500Y198811D02*
Y200189D01*
X83811Y187000D02*
X85189D01*
X84500Y186311D02*
Y187689D01*
X59811Y187500D02*
X61189D01*
X60500Y186811D02*
Y188189D01*
X23311Y188000D02*
X24689D01*
X24000Y187311D02*
Y188689D01*
X359911Y358700D02*
X361289D01*
X360600Y358011D02*
Y359389D01*
X358811Y362000D02*
X360189D01*
X359500Y361311D02*
Y362689D01*
X356811Y365100D02*
X358189D01*
X357500Y364411D02*
Y365789D01*
X354011Y367800D02*
X355389D01*
X354700Y367111D02*
Y368489D01*
X350911Y369600D02*
X352289D01*
X351600Y368911D02*
Y370289D01*
X347711Y370600D02*
X349089D01*
X348400Y369911D02*
Y371289D01*
X340611Y370600D02*
X341989D01*
X341300Y369911D02*
Y371289D01*
X337311Y369500D02*
X338689D01*
X338000Y368811D02*
Y370189D01*
X334211Y367500D02*
X335589D01*
X334900Y366811D02*
Y368189D01*
X331511Y364700D02*
X332889D01*
X332200Y364011D02*
Y365389D01*
X329711Y361600D02*
X331089D01*
X330400Y360911D02*
Y362289D01*
X328711Y358400D02*
X330089D01*
X329400Y357711D02*
Y359089D01*
X344311Y371000D02*
X345689D01*
X345000Y370311D02*
Y371689D01*
X328711Y351300D02*
X330089D01*
X329400Y350611D02*
Y351989D01*
X329811Y348000D02*
X331189D01*
X330500Y347311D02*
Y348689D01*
X331811Y344900D02*
X333189D01*
X332500Y344211D02*
Y345589D01*
X334611Y342200D02*
X335989D01*
X335300Y341511D02*
Y342889D01*
X337711Y340400D02*
X339089D01*
X338400Y339711D02*
Y341089D01*
X340911Y339400D02*
X342289D01*
X341600Y338711D02*
Y340089D01*
X328311Y355000D02*
X329689D01*
X329000Y354311D02*
Y355689D01*
X359911Y351600D02*
X361289D01*
X360600Y350911D02*
Y352289D01*
X348011Y339400D02*
X349389D01*
X348700Y338711D02*
Y340089D01*
X351311Y340500D02*
X352689D01*
X352000Y339811D02*
Y341189D01*
X344311Y339000D02*
X345689D01*
X345000Y338311D02*
Y339689D01*
X360311Y355000D02*
X361689D01*
X361000Y354311D02*
Y355689D01*
X357111Y345300D02*
X358489D01*
X357800Y344611D02*
Y345989D01*
X354411Y342500D02*
X355789D01*
X355100Y341811D02*
Y343189D01*
X358911Y348400D02*
X360289D01*
X359600Y347711D02*
Y349089D01*
X34911Y358700D02*
X36289D01*
X35600Y358011D02*
Y359389D01*
X33811Y362000D02*
X35189D01*
X34500Y361311D02*
Y362689D01*
X31811Y365100D02*
X33189D01*
X32500Y364411D02*
Y365789D01*
X29011Y367800D02*
X30389D01*
X29700Y367111D02*
Y368489D01*
X25911Y369600D02*
X27289D01*
X26600Y368911D02*
Y370289D01*
X22711Y370600D02*
X24089D01*
X23400Y369911D02*
Y371289D01*
X15611Y370600D02*
X16989D01*
X16300Y369911D02*
Y371289D01*
X12311Y369500D02*
X13689D01*
X13000Y368811D02*
Y370189D01*
X9211Y367500D02*
X10589D01*
X9900Y366811D02*
Y368189D01*
X6511Y364700D02*
X7889D01*
X7200Y364011D02*
Y365389D01*
X4711Y361600D02*
X6089D01*
X5400Y360911D02*
Y362289D01*
X3711Y358400D02*
X5089D01*
X4400Y357711D02*
Y359089D01*
X19311Y371000D02*
X20689D01*
X20000Y370311D02*
Y371689D01*
X3711Y351300D02*
X5089D01*
X4400Y350611D02*
Y351989D01*
X4811Y348000D02*
X6189D01*
X5500Y347311D02*
Y348689D01*
X6811Y344900D02*
X8189D01*
X7500Y344211D02*
Y345589D01*
X9611Y342200D02*
X10989D01*
X10300Y341511D02*
Y342889D01*
X12711Y340400D02*
X14089D01*
X13400Y339711D02*
Y341089D01*
X15911Y339400D02*
X17289D01*
X16600Y338711D02*
Y340089D01*
X3311Y355000D02*
X4689D01*
X4000Y354311D02*
Y355689D01*
X34911Y351600D02*
X36289D01*
X35600Y350911D02*
Y352289D01*
X19311Y339000D02*
X20689D01*
X20000Y338311D02*
Y339689D01*
X35311Y355000D02*
X36689D01*
X36000Y354311D02*
Y355689D01*
X34911Y23700D02*
X36289D01*
X35600Y23011D02*
Y24389D01*
X33811Y27000D02*
X35189D01*
X34500Y26311D02*
Y27689D01*
X31811Y30100D02*
X33189D01*
X32500Y29411D02*
Y30789D01*
X29011Y32800D02*
X30389D01*
X29700Y32111D02*
Y33489D01*
X25911Y34600D02*
X27289D01*
X26600Y33911D02*
Y35289D01*
X22711Y35600D02*
X24089D01*
X23400Y34911D02*
Y36289D01*
X15611Y35600D02*
X16989D01*
X16300Y34911D02*
Y36289D01*
X12311Y34500D02*
X13689D01*
X13000Y33811D02*
Y35189D01*
X9211Y32500D02*
X10589D01*
X9900Y31811D02*
Y33189D01*
X6511Y29700D02*
X7889D01*
X7200Y29011D02*
Y30389D01*
X4711Y26600D02*
X6089D01*
X5400Y25911D02*
Y27289D01*
X3711Y23400D02*
X5089D01*
X4400Y22711D02*
Y24089D01*
X19311Y36000D02*
X20689D01*
X20000Y35311D02*
Y36689D01*
X3711Y16300D02*
X5089D01*
X4400Y15611D02*
Y16989D01*
X4811Y13000D02*
X6189D01*
X5500Y12311D02*
Y13689D01*
X6811Y9900D02*
X8189D01*
X7500Y9211D02*
Y10589D01*
X9611Y7200D02*
X10989D01*
X10300Y6511D02*
Y7889D01*
X12711Y5400D02*
X14089D01*
X13400Y4711D02*
Y6089D01*
X15911Y4400D02*
X17289D01*
X16600Y3711D02*
Y5089D01*
X3311Y20000D02*
X4689D01*
X4000Y19311D02*
Y20689D01*
X34911Y16600D02*
X36289D01*
X35600Y15911D02*
Y17289D01*
X23011Y4400D02*
X24389D01*
X23700Y3711D02*
Y5089D01*
X26311Y5500D02*
X27689D01*
X27000Y4811D02*
Y6189D01*
X19311Y4000D02*
X20689D01*
X20000Y3311D02*
Y4689D01*
X35311Y20000D02*
X36689D01*
X36000Y19311D02*
Y20689D01*
X32111Y10300D02*
X33489D01*
X32800Y9611D02*
Y10989D01*
X29411Y7500D02*
X30789D01*
X30100Y6811D02*
Y8189D01*
X33911Y13400D02*
X35289D01*
X34600Y12711D02*
Y14089D01*
X358911Y13400D02*
X360289D01*
X359600Y12711D02*
Y14089D01*
X354411Y7500D02*
X355789D01*
X355100Y6811D02*
Y8189D01*
X357111Y10300D02*
X358489D01*
X357800Y9611D02*
Y10989D01*
X360311Y20000D02*
X361689D01*
X361000Y19311D02*
Y20689D01*
X344311Y4000D02*
X345689D01*
X345000Y3311D02*
Y4689D01*
X351311Y5500D02*
X352689D01*
X352000Y4811D02*
Y6189D01*
X348011Y4400D02*
X349389D01*
X348700Y3711D02*
Y5089D01*
X359911Y16600D02*
X361289D01*
X360600Y15911D02*
Y17289D01*
X328311Y20000D02*
X329689D01*
X329000Y19311D02*
Y20689D01*
X340911Y4400D02*
X342289D01*
X341600Y3711D02*
Y5089D01*
X337711Y5400D02*
X339089D01*
X338400Y4711D02*
Y6089D01*
X334611Y7200D02*
X335989D01*
X335300Y6511D02*
Y7889D01*
X331811Y9900D02*
X333189D01*
X332500Y9211D02*
Y10589D01*
X329811Y13000D02*
X331189D01*
X330500Y12311D02*
Y13689D01*
X328711Y16300D02*
X330089D01*
X329400Y15611D02*
Y16989D01*
X344311Y36000D02*
X345689D01*
X345000Y35311D02*
Y36689D01*
X328711Y23400D02*
X330089D01*
X329400Y22711D02*
Y24089D01*
X329711Y26600D02*
X331089D01*
X330400Y25911D02*
Y27289D01*
X331511Y29700D02*
X332889D01*
X332200Y29011D02*
Y30389D01*
X334211Y32500D02*
X335589D01*
X334900Y31811D02*
Y33189D01*
X337311Y34500D02*
X338689D01*
X338000Y33811D02*
Y35189D01*
X340611Y35600D02*
X341989D01*
X341300Y34911D02*
Y36289D01*
X347711Y35600D02*
X349089D01*
X348400Y34911D02*
Y36289D01*
X350911Y34600D02*
X352289D01*
X351600Y33911D02*
Y35289D01*
X354011Y32800D02*
X355389D01*
X354700Y32111D02*
Y33489D01*
X356811Y30100D02*
X358189D01*
X357500Y29411D02*
Y30789D01*
X358811Y27000D02*
X360189D01*
X359500Y26311D02*
Y27689D01*
X359911Y23700D02*
X361289D01*
X360600Y23011D02*
Y24389D01*
X203311Y47000D02*
X204689D01*
X204000Y46311D02*
Y47689D01*
X42311Y53500D02*
X43689D01*
X43000Y52811D02*
Y54189D01*
X51311Y53500D02*
X52689D01*
X52000Y52811D02*
Y54189D01*
X11811Y210500D02*
X13189D01*
X12500Y209811D02*
Y211189D01*
X226811Y37500D02*
X228189D01*
X227500Y36811D02*
Y38189D01*
X269811Y4500D02*
X271189D01*
X270500Y3811D02*
Y5189D01*
X258811Y4500D02*
X260189D01*
X259500Y3811D02*
Y5189D01*
X204263Y99738D02*
X205641D01*
X204952Y99049D02*
Y100427D01*
X223311Y99500D02*
X224689D01*
X224000Y98811D02*
Y100189D01*
X41811Y227500D02*
X43189D01*
X42500Y226811D02*
Y228189D01*
X60311Y234500D02*
X61689D01*
X61000Y233811D02*
Y235189D01*
X22811Y234500D02*
X24189D01*
X23500Y233811D02*
Y235189D01*
X184311Y138500D02*
X185689D01*
X185000Y137811D02*
Y139189D01*
X174811Y138500D02*
X176189D01*
X175500Y137811D02*
Y139189D01*
X164311Y138500D02*
X165689D01*
X165000Y137811D02*
Y139189D01*
X158811Y141000D02*
X160189D01*
X159500Y140311D02*
Y141689D01*
X153811Y240000D02*
X155189D01*
X154500Y239311D02*
Y240689D01*
X159311Y240000D02*
X160689D01*
X160000Y239311D02*
Y240689D01*
X164311Y242500D02*
X165689D01*
X165000Y241811D02*
Y243189D01*
X184311Y242500D02*
X185689D01*
X185000Y241811D02*
Y243189D01*
X174311Y242500D02*
X175689D01*
X175000Y241811D02*
Y243189D01*
X194311Y242500D02*
X195689D01*
X195000Y241811D02*
Y243189D01*
X201811Y235000D02*
X203189D01*
X202500Y234311D02*
Y235689D01*
X199311Y240000D02*
X200689D01*
X200000Y239311D02*
Y240689D01*
X189311Y240000D02*
X190689D01*
X190000Y239311D02*
Y240689D01*
X179311Y240000D02*
X180689D01*
X180000Y239311D02*
Y240689D01*
X169311Y240000D02*
X170689D01*
X170000Y239311D02*
Y240689D01*
X189311Y140500D02*
X190689D01*
X190000Y139811D02*
Y141189D01*
X179311Y140500D02*
X180689D01*
X180000Y139811D02*
Y141189D01*
X169311Y141000D02*
X170689D01*
X170000Y140311D02*
Y141689D01*
X249311Y149000D02*
X250689D01*
X250000Y148311D02*
Y149689D01*
X245311Y153000D02*
X246689D01*
X246000Y152311D02*
Y153689D01*
X258606Y124705D02*
X259984D01*
X259295Y124016D02*
Y125394D01*
X288911Y94700D02*
X290289D01*
X289600Y94011D02*
Y95389D01*
X353311Y332000D02*
X354689D01*
X354000Y331311D02*
Y332689D01*
X347311Y320000D02*
X348689D01*
X348000Y319311D02*
Y320689D01*
X353311Y308000D02*
X354689D01*
X354000Y307311D02*
Y308689D01*
X347311Y296000D02*
X348689D01*
X348000Y295311D02*
Y296689D01*
X353311Y284000D02*
X354689D01*
X354000Y283311D02*
Y284689D01*
X347311Y272000D02*
X348689D01*
X348000Y271311D02*
Y272689D01*
X353311Y260000D02*
X354689D01*
X354000Y259311D02*
Y260689D01*
X347311Y200000D02*
X348689D01*
X348000Y199311D02*
Y200689D01*
X347311Y176000D02*
X348689D01*
X348000Y175311D02*
Y176689D01*
X347311Y152000D02*
X348689D01*
X348000Y151311D02*
Y152689D01*
X353311Y116000D02*
X354689D01*
X354000Y115311D02*
Y116689D01*
X347311Y104000D02*
X348689D01*
X348000Y103311D02*
Y104689D01*
X353311Y92000D02*
X354689D01*
X354000Y91311D02*
Y92689D01*
X347311Y80000D02*
X348689D01*
X348000Y79311D02*
Y80689D01*
X353311Y68000D02*
X354689D01*
X354000Y67311D02*
Y68689D01*
X347311Y56000D02*
X348689D01*
X348000Y55311D02*
Y56689D01*
X353311Y44000D02*
X354689D01*
X354000Y43311D02*
Y44689D01*
X341311Y332000D02*
X342689D01*
X342000Y331311D02*
Y332689D01*
X341311Y284000D02*
X342689D01*
X342000Y283311D02*
Y284689D01*
X335311Y200000D02*
X336689D01*
X336000Y199311D02*
Y200689D01*
X335311Y176000D02*
X336689D01*
X336000Y175311D02*
Y176689D01*
X323311Y320000D02*
X324689D01*
X324000Y319311D02*
Y320689D01*
X329311Y284000D02*
X330689D01*
X330000Y283311D02*
Y284689D01*
X329311Y212000D02*
X330689D01*
X330000Y211311D02*
Y212689D01*
X329311Y188000D02*
X330689D01*
X330000Y187311D02*
Y188689D01*
X323311Y176000D02*
X324689D01*
X324000Y175311D02*
Y176689D01*
X329311Y164000D02*
X330689D01*
X330000Y163311D02*
Y164689D01*
X329311Y116000D02*
X330689D01*
X330000Y115311D02*
Y116689D01*
X323311Y32000D02*
X324689D01*
X324000Y31311D02*
Y32689D01*
X311311Y320000D02*
X312689D01*
X312000Y319311D02*
Y320689D01*
X317311Y260000D02*
X318689D01*
X318000Y259311D02*
Y260689D01*
X311311Y200000D02*
X312689D01*
X312000Y199311D02*
Y200689D01*
X311311Y176000D02*
X312689D01*
X312000Y175311D02*
Y176689D01*
X317311Y164000D02*
X318689D01*
X318000Y163311D02*
Y164689D01*
X311311Y152000D02*
X312689D01*
X312000Y151311D02*
Y152689D01*
X299311Y320000D02*
X300689D01*
X300000Y319311D02*
Y320689D01*
X305311Y284000D02*
X306689D01*
X306000Y283311D02*
Y284689D01*
X305311Y188000D02*
X306689D01*
X306000Y187311D02*
Y188689D01*
X299311Y152000D02*
X300689D01*
X300000Y151311D02*
Y152689D01*
X299311Y56000D02*
X300689D01*
X300000Y55311D02*
Y56689D01*
X305311Y44000D02*
X306689D01*
X306000Y43311D02*
Y44689D01*
X293311Y332000D02*
X294689D01*
X294000Y331311D02*
Y332689D01*
X287311Y320000D02*
X288689D01*
X288000Y319311D02*
Y320689D01*
X287311Y296000D02*
X288689D01*
X288000Y295311D02*
Y296689D01*
X293311Y284000D02*
X294689D01*
X294000Y283311D02*
Y284689D01*
X287311Y200000D02*
X288689D01*
X288000Y199311D02*
Y200689D01*
X293311Y188000D02*
X294689D01*
X294000Y187311D02*
Y188689D01*
X287311Y176000D02*
X288689D01*
X288000Y175311D02*
Y176689D01*
X293311Y68000D02*
X294689D01*
X294000Y67311D02*
Y68689D01*
X287311Y32000D02*
X288689D01*
X288000Y31311D02*
Y32689D01*
X293311Y20000D02*
X294689D01*
X294000Y19311D02*
Y20689D01*
X287311Y8000D02*
X288689D01*
X288000Y7311D02*
Y8689D01*
X281311Y332000D02*
X282689D01*
X282000Y331311D02*
Y332689D01*
X281311Y284000D02*
X282689D01*
X282000Y283311D02*
Y284689D01*
X275311Y200000D02*
X276689D01*
X276000Y199311D02*
Y200689D01*
X275311Y56000D02*
X276689D01*
X276000Y55311D02*
Y56689D01*
X281311Y44000D02*
X282689D01*
X282000Y43311D02*
Y44689D01*
X275311Y32000D02*
X276689D01*
X276000Y31311D02*
Y32689D01*
X281311Y20000D02*
X282689D01*
X282000Y19311D02*
Y20689D01*
X269311Y212000D02*
X270689D01*
X270000Y211311D02*
Y212689D01*
X263311Y176000D02*
X264689D01*
X264000Y175311D02*
Y176689D01*
X269311Y44000D02*
X270689D01*
X270000Y43311D02*
Y44689D01*
X257311Y260000D02*
X258689D01*
X258000Y259311D02*
Y260689D01*
X257311Y236000D02*
X258689D01*
X258000Y235311D02*
Y236689D01*
X257311Y212000D02*
X258689D01*
X258000Y211311D02*
Y212689D01*
X251311Y200000D02*
X252689D01*
X252000Y199311D02*
Y200689D01*
X257311Y188000D02*
X258689D01*
X258000Y187311D02*
Y188689D01*
X245311Y284000D02*
X246689D01*
X246000Y283311D02*
Y284689D01*
X239311Y176000D02*
X240689D01*
X240000Y175311D02*
Y176689D01*
X239311Y56000D02*
X240689D01*
X240000Y55311D02*
Y56689D01*
X245311Y20000D02*
X246689D01*
X246000Y19311D02*
Y20689D01*
X239311Y8000D02*
X240689D01*
X240000Y7311D02*
Y8689D01*
X233311Y68000D02*
X234689D01*
X234000Y67311D02*
Y68689D01*
X227311Y56000D02*
X228689D01*
X228000Y55311D02*
Y56689D01*
X233311Y44000D02*
X234689D01*
X234000Y43311D02*
Y44689D01*
X221311Y92000D02*
X222689D01*
X222000Y91311D02*
Y92689D01*
X221311Y44000D02*
X222689D01*
X222000Y43311D02*
Y44689D01*
X203311Y320000D02*
X204689D01*
X204000Y319311D02*
Y320689D01*
X203311Y296000D02*
X204689D01*
X204000Y295311D02*
Y296689D01*
X203311Y272000D02*
X204689D01*
X204000Y271311D02*
Y272689D01*
X203311Y200000D02*
X204689D01*
X204000Y199311D02*
Y200689D01*
X203311Y152000D02*
X204689D01*
X204000Y151311D02*
Y152689D01*
X209311Y92000D02*
X210689D01*
X210000Y91311D02*
Y92689D01*
X203311Y56000D02*
X204689D01*
X204000Y55311D02*
Y56689D01*
X209311Y20000D02*
X210689D01*
X210000Y19311D02*
Y20689D01*
X197311Y332000D02*
X198689D01*
X198000Y331311D02*
Y332689D01*
X191311Y320000D02*
X192689D01*
X192000Y319311D02*
Y320689D01*
X197311Y308000D02*
X198689D01*
X198000Y307311D02*
Y308689D01*
X191311Y296000D02*
X192689D01*
X192000Y295311D02*
Y296689D01*
X197311Y284000D02*
X198689D01*
X198000Y283311D02*
Y284689D01*
X191311Y272000D02*
X192689D01*
X192000Y271311D02*
Y272689D01*
X197311Y260000D02*
X198689D01*
X198000Y259311D02*
Y260689D01*
X191311Y200000D02*
X192689D01*
X192000Y199311D02*
Y200689D01*
X197311Y92000D02*
X198689D01*
X198000Y91311D02*
Y92689D01*
X191311Y8000D02*
X192689D01*
X192000Y7311D02*
Y8689D01*
X185311Y332000D02*
X186689D01*
X186000Y331311D02*
Y332689D01*
X179311Y320000D02*
X180689D01*
X180000Y319311D02*
Y320689D01*
X185311Y308000D02*
X186689D01*
X186000Y307311D02*
Y308689D01*
X179311Y296000D02*
X180689D01*
X180000Y295311D02*
Y296689D01*
X185311Y284000D02*
X186689D01*
X186000Y283311D02*
Y284689D01*
X179311Y272000D02*
X180689D01*
X180000Y271311D02*
Y272689D01*
X185311Y260000D02*
X186689D01*
X186000Y259311D02*
Y260689D01*
X179311Y200000D02*
X180689D01*
X180000Y199311D02*
Y200689D01*
X179311Y152000D02*
X180689D01*
X180000Y151311D02*
Y152689D01*
X173311Y332000D02*
X174689D01*
X174000Y331311D02*
Y332689D01*
X167311Y320000D02*
X168689D01*
X168000Y319311D02*
Y320689D01*
X173311Y308000D02*
X174689D01*
X174000Y307311D02*
Y308689D01*
X167311Y296000D02*
X168689D01*
X168000Y295311D02*
Y296689D01*
X173311Y284000D02*
X174689D01*
X174000Y283311D02*
Y284689D01*
X167311Y272000D02*
X168689D01*
X168000Y271311D02*
Y272689D01*
X173311Y260000D02*
X174689D01*
X174000Y259311D02*
Y260689D01*
X167311Y200000D02*
X168689D01*
X168000Y199311D02*
Y200689D01*
X167311Y128000D02*
X168689D01*
X168000Y127311D02*
Y128689D01*
X167311Y56000D02*
X168689D01*
X168000Y55311D02*
Y56689D01*
X173311Y44000D02*
X174689D01*
X174000Y43311D02*
Y44689D01*
X173311Y20000D02*
X174689D01*
X174000Y19311D02*
Y20689D01*
X161311Y332000D02*
X162689D01*
X162000Y331311D02*
Y332689D01*
X155311Y320000D02*
X156689D01*
X156000Y319311D02*
Y320689D01*
X161311Y308000D02*
X162689D01*
X162000Y307311D02*
Y308689D01*
X155311Y296000D02*
X156689D01*
X156000Y295311D02*
Y296689D01*
X161311Y284000D02*
X162689D01*
X162000Y283311D02*
Y284689D01*
X155311Y272000D02*
X156689D01*
X156000Y271311D02*
Y272689D01*
X161311Y260000D02*
X162689D01*
X162000Y259311D02*
Y260689D01*
X155311Y200000D02*
X156689D01*
X156000Y199311D02*
Y200689D01*
X155311Y128000D02*
X156689D01*
X156000Y127311D02*
Y128689D01*
X161311Y116000D02*
X162689D01*
X162000Y115311D02*
Y116689D01*
X161311Y20000D02*
X162689D01*
X162000Y19311D02*
Y20689D01*
X155311Y8000D02*
X156689D01*
X156000Y7311D02*
Y8689D01*
X149311Y332000D02*
X150689D01*
X150000Y331311D02*
Y332689D01*
X143311Y320000D02*
X144689D01*
X144000Y319311D02*
Y320689D01*
X149311Y308000D02*
X150689D01*
X150000Y307311D02*
Y308689D01*
X143311Y296000D02*
X144689D01*
X144000Y295311D02*
Y296689D01*
X149311Y284000D02*
X150689D01*
X150000Y283311D02*
Y284689D01*
X143311Y272000D02*
X144689D01*
X144000Y271311D02*
Y272689D01*
X149311Y260000D02*
X150689D01*
X150000Y259311D02*
Y260689D01*
X143311Y200000D02*
X144689D01*
X144000Y199311D02*
Y200689D01*
X149311Y140000D02*
X150689D01*
X150000Y139311D02*
Y140689D01*
X143311Y128000D02*
X144689D01*
X144000Y127311D02*
Y128689D01*
X149311Y116000D02*
X150689D01*
X150000Y115311D02*
Y116689D01*
X143311Y104000D02*
X144689D01*
X144000Y103311D02*
Y104689D01*
X149311Y44000D02*
X150689D01*
X150000Y43311D02*
Y44689D01*
X143311Y32000D02*
X144689D01*
X144000Y31311D02*
Y32689D01*
X143311Y8000D02*
X144689D01*
X144000Y7311D02*
Y8689D01*
X131311Y320000D02*
X132689D01*
X132000Y319311D02*
Y320689D01*
X131311Y296000D02*
X132689D01*
X132000Y295311D02*
Y296689D01*
X131311Y272000D02*
X132689D01*
X132000Y271311D02*
Y272689D01*
X131311Y224000D02*
X132689D01*
X132000Y223311D02*
Y224689D01*
X131311Y152000D02*
X132689D01*
X132000Y151311D02*
Y152689D01*
X137311Y140000D02*
X138689D01*
X138000Y139311D02*
Y140689D01*
X131311Y128000D02*
X132689D01*
X132000Y127311D02*
Y128689D01*
X137311Y116000D02*
X138689D01*
X138000Y115311D02*
Y116689D01*
X131311Y32000D02*
X132689D01*
X132000Y31311D02*
Y32689D01*
X137311Y20000D02*
X138689D01*
X138000Y19311D02*
Y20689D01*
X131311Y8000D02*
X132689D01*
X132000Y7311D02*
Y8689D01*
X125311Y332000D02*
X126689D01*
X126000Y331311D02*
Y332689D01*
X119311Y320000D02*
X120689D01*
X120000Y319311D02*
Y320689D01*
X125311Y308000D02*
X126689D01*
X126000Y307311D02*
Y308689D01*
X125311Y284000D02*
X126689D01*
X126000Y283311D02*
Y284689D01*
X119311Y272000D02*
X120689D01*
X120000Y271311D02*
Y272689D01*
X119311Y200000D02*
X120689D01*
X120000Y199311D02*
Y200689D01*
X125311Y116000D02*
X126689D01*
X126000Y115311D02*
Y116689D01*
X119311Y56000D02*
X120689D01*
X120000Y55311D02*
Y56689D01*
X119311Y32000D02*
X120689D01*
X120000Y31311D02*
Y32689D01*
X107311Y320000D02*
X108689D01*
X108000Y319311D02*
Y320689D01*
X113311Y284000D02*
X114689D01*
X114000Y283311D02*
Y284689D01*
X113311Y260000D02*
X114689D01*
X114000Y259311D02*
Y260689D01*
X113311Y188000D02*
X114689D01*
X114000Y187311D02*
Y188689D01*
X95311Y320000D02*
X96689D01*
X96000Y319311D02*
Y320689D01*
X101311Y284000D02*
X102689D01*
X102000Y283311D02*
Y284689D01*
X101311Y260000D02*
X102689D01*
X102000Y259311D02*
Y260689D01*
X101311Y236000D02*
X102689D01*
X102000Y235311D02*
Y236689D01*
X101311Y212000D02*
X102689D01*
X102000Y211311D02*
Y212689D01*
X101311Y188000D02*
X102689D01*
X102000Y187311D02*
Y188689D01*
X101311Y164000D02*
X102689D01*
X102000Y163311D02*
Y164689D01*
X95311Y32000D02*
X96689D01*
X96000Y31311D02*
Y32689D01*
X83311Y320000D02*
X84689D01*
X84000Y319311D02*
Y320689D01*
X89311Y284000D02*
X90689D01*
X90000Y283311D02*
Y284689D01*
X83311Y272000D02*
X84689D01*
X84000Y271311D02*
Y272689D01*
X89311Y260000D02*
X90689D01*
X90000Y259311D02*
Y260689D01*
X83311Y200000D02*
X84689D01*
X84000Y199311D02*
Y200689D01*
X83311Y32000D02*
X84689D01*
X84000Y31311D02*
Y32689D01*
X89311Y20000D02*
X90689D01*
X90000Y19311D02*
Y20689D01*
X77311Y332000D02*
X78689D01*
X78000Y331311D02*
Y332689D01*
X71311Y296000D02*
X72689D01*
X72000Y295311D02*
Y296689D01*
X77311Y284000D02*
X78689D01*
X78000Y283311D02*
Y284689D01*
X71311Y272000D02*
X72689D01*
X72000Y271311D02*
Y272689D01*
X71311Y32000D02*
X72689D01*
X72000Y31311D02*
Y32689D01*
X77311Y20000D02*
X78689D01*
X78000Y19311D02*
Y20689D01*
X65311Y332000D02*
X66689D01*
X66000Y331311D02*
Y332689D01*
X65311Y284000D02*
X66689D01*
X66000Y283311D02*
Y284689D01*
X59311Y200000D02*
X60689D01*
X60000Y199311D02*
Y200689D01*
X65311Y116000D02*
X66689D01*
X66000Y115311D02*
Y116689D01*
X59311Y56000D02*
X60689D01*
X60000Y55311D02*
Y56689D01*
X53311Y236000D02*
X54689D01*
X54000Y235311D02*
Y236689D01*
X47311Y200000D02*
X48689D01*
X48000Y199311D02*
Y200689D01*
X53311Y188000D02*
X54689D01*
X54000Y187311D02*
Y188689D01*
X47311Y176000D02*
X48689D01*
X48000Y175311D02*
Y176689D01*
X41311Y356000D02*
X42689D01*
X42000Y355311D02*
Y356689D01*
X35311Y320000D02*
X36689D01*
X36000Y319311D02*
Y320689D01*
X41311Y236000D02*
X42689D01*
X42000Y235311D02*
Y236689D01*
X41311Y212000D02*
X42689D01*
X42000Y211311D02*
Y212689D01*
X41311Y188000D02*
X42689D01*
X42000Y187311D02*
Y188689D01*
X41311Y164000D02*
X42689D01*
X42000Y163311D02*
Y164689D01*
X41311Y44000D02*
X42689D01*
X42000Y43311D02*
Y44689D01*
X41311Y20000D02*
X42689D01*
X42000Y19311D02*
Y20689D01*
X35311Y8000D02*
X36689D01*
X36000Y7311D02*
Y8689D01*
X23311Y320000D02*
X24689D01*
X24000Y319311D02*
Y320689D01*
X29311Y284000D02*
X30689D01*
X30000Y283311D02*
Y284689D01*
X29311Y212000D02*
X30689D01*
X30000Y211311D02*
Y212689D01*
X23311Y200000D02*
X24689D01*
X24000Y199311D02*
Y200689D01*
X23311Y176000D02*
X24689D01*
X24000Y175311D02*
Y176689D01*
X11311Y296000D02*
X12689D01*
X12000Y295311D02*
Y296689D01*
X17311Y284000D02*
X18689D01*
X18000Y283311D02*
Y284689D01*
X11311Y128000D02*
X12689D01*
X12000Y127311D02*
Y128689D01*
X11311Y104000D02*
X12689D01*
X12000Y103311D02*
Y104689D01*
X11311Y80000D02*
X12689D01*
X12000Y79311D02*
Y80689D01*
X11311Y56000D02*
X12689D01*
X12000Y55311D02*
Y56689D01*
X274311Y60000D02*
X275689D01*
X275000Y59311D02*
Y60689D01*
X272311Y141000D02*
X273689D01*
X273000Y140311D02*
Y141689D01*
X276811Y135000D02*
X278189D01*
X277500Y134311D02*
Y135689D01*
X314311Y121000D02*
X315689D01*
X315000Y120311D02*
Y121689D01*
X283138Y126673D02*
X284713D01*
X283925Y125886D02*
Y127461D01*
X254370Y146693D02*
X255945D01*
X255157Y145905D02*
Y147480D01*
X134622Y160000D02*
X137378D01*
X136000Y158622D02*
Y161378D01*
X3622Y88000D02*
X6378D01*
X5000Y86622D02*
Y89378D01*
X49311Y85000D02*
X50689D01*
X50000Y84311D02*
Y85689D01*
X26540Y88146D02*
X29296D01*
X27918Y86768D02*
Y89524D01*
X275622Y70000D02*
X278378D01*
X277000Y68622D02*
Y71378D01*
X254622Y40000D02*
X257378D01*
X256000Y38622D02*
Y41378D01*
X298622Y40000D02*
X301378D01*
X300000Y38622D02*
Y41378D01*
X288622Y87000D02*
X291378D01*
X290000Y85622D02*
Y88378D01*
X228622Y95000D02*
X231378D01*
X230000Y93622D02*
Y96378D01*
X228622Y65000D02*
X231378D01*
X230000Y63622D02*
Y66378D01*
X78622Y67000D02*
X81378D01*
X80000Y65622D02*
Y68378D01*
X99311Y73000D02*
X100689D01*
X100000Y72311D02*
Y73689D01*
X169311Y73000D02*
X170689D01*
X170000Y72311D02*
Y73689D01*
X3622Y300000D02*
X6378D01*
X5000Y298622D02*
Y301378D01*
X289622Y314000D02*
X292378D01*
X291000Y312622D02*
Y315378D01*
X74622Y314000D02*
X77378D01*
X76000Y312622D02*
Y315378D01*
X229622Y314000D02*
X232378D01*
X231000Y312622D02*
Y315378D01*
X259311Y357000D02*
X260689D01*
X260000Y356311D02*
Y357689D01*
X264311Y361000D02*
X265689D01*
X265000Y360311D02*
Y361689D01*
X244311Y341000D02*
X245689D01*
X245000Y340311D02*
Y341689D01*
X249311Y345000D02*
X250689D01*
X250000Y344311D02*
Y345689D01*
X254311Y353000D02*
X255689D01*
X255000Y352311D02*
Y353689D01*
X239311Y337000D02*
X240689D01*
X240000Y336311D02*
Y337689D01*
X189311Y134843D02*
X190689D01*
X190000Y134153D02*
Y135531D01*
X34311Y77000D02*
X35689D01*
X35000Y76311D02*
Y77689D01*
X29311Y341000D02*
X30689D01*
X30000Y340311D02*
Y341689D01*
X14095Y355000D02*
X25905D01*
X20000Y349095D02*
Y360906D01*
X339094Y355000D02*
X350905D01*
X345000Y349095D02*
Y360906D01*
X59311Y93000D02*
X60689D01*
X60000Y92311D02*
Y93689D01*
X39311Y73000D02*
X40689D01*
X40000Y72311D02*
Y73689D01*
X189311Y93000D02*
X190689D01*
X190000Y92311D02*
Y93689D01*
X181311Y85000D02*
X182689D01*
X182000Y84311D02*
Y85689D01*
X185311Y89000D02*
X186689D01*
X186000Y88311D02*
Y89689D01*
X239311Y349000D02*
X240689D01*
X240000Y348311D02*
Y349689D01*
X173311Y77000D02*
X174689D01*
X174000Y76311D02*
Y77689D01*
X177311Y81000D02*
X178689D01*
X178000Y80311D02*
Y81689D01*
X104311Y361000D02*
X105689D01*
X105000Y360311D02*
Y361689D01*
X44311Y353000D02*
X45689D01*
X45000Y352311D02*
Y353689D01*
X39311Y349000D02*
X40689D01*
X40000Y348311D02*
Y349689D01*
X49311Y357000D02*
X50689D01*
X50000Y356311D02*
Y357689D01*
X34311Y345000D02*
X35689D01*
X35000Y344311D02*
Y345689D01*
X24311Y337000D02*
X25689D01*
X25000Y336311D02*
Y337689D01*
X109311Y349000D02*
X110689D01*
X110000Y348311D02*
Y349689D01*
X94311Y345000D02*
X95689D01*
X95000Y344311D02*
Y345689D01*
X84311Y337000D02*
X85689D01*
X85000Y336311D02*
Y337689D01*
X89311Y341000D02*
X90689D01*
X90000Y340311D02*
Y341689D01*
X99311Y353000D02*
X100689D01*
X100000Y352311D02*
Y353689D01*
X324311Y349000D02*
X325689D01*
X325000Y348311D02*
Y349689D01*
X319311Y357000D02*
X320689D01*
X320000Y356311D02*
Y357689D01*
X309311Y345000D02*
X310689D01*
X310000Y344311D02*
Y345689D01*
X299311Y337000D02*
X300689D01*
X300000Y336311D02*
Y337689D01*
X304311Y341000D02*
X305689D01*
X305000Y340311D02*
Y341689D01*
X314311Y353000D02*
X315689D01*
X315000Y352311D02*
Y353689D01*
X104311Y81000D02*
X105689D01*
X105000Y80311D02*
Y81689D01*
X109311Y85000D02*
X110689D01*
X110000Y84311D02*
Y85689D01*
X94311Y77000D02*
X95689D01*
X95000Y76311D02*
Y77689D01*
X119311Y93000D02*
X120689D01*
X120000Y92311D02*
Y93689D01*
X114311Y89000D02*
X115689D01*
X115000Y88311D02*
Y89689D01*
X54311Y89000D02*
X55689D01*
X55000Y88311D02*
Y89689D01*
X249311Y79000D02*
X250689D01*
X250000Y78311D02*
Y79689D01*
X245311Y75000D02*
X246689D01*
X246000Y74311D02*
Y75689D01*
X217311Y108000D02*
X218689D01*
X218000Y107311D02*
Y108689D01*
X213311Y104000D02*
X214689D01*
X214000Y103311D02*
Y104689D01*
X339094Y20000D02*
X350905D01*
X345000Y14095D02*
Y25905D01*
X14095Y20000D02*
X25905D01*
X20000Y14095D02*
Y25905D01*
M02*
