M48
;Layer_Color=9474304
;FILE_FORMAT=2:4
INCH,TZ
;TYPE=PLATED
T1F00S00C0.0138
T2F00S00C0.0157
T3F00S00C0.0217
T4F00S00C0.0276
T5F00S00C0.0315
T6F00S00C0.0340
T7F00S00C0.0354
T8F00S00C0.0394
T9F00S00C0.0402
T10F00S00C0.0433
T11F00S00C0.0492
T12F00S00C0.1181
%
T01
X750Y990
X550Y1300
X440Y1630
X400Y2000
X440Y2340
X540Y2660
X720Y2970
X990Y3250
X1300Y3450
X1630Y3560
X2000Y3600
X2340Y3560
X2660Y3460
X2970Y3280
X3250Y3010
X3450Y2700
X3560Y2370
X3600Y2000
X3560Y1660
X3460Y1340
X3280Y1030
X3010Y750
X2700Y550
X2370Y440
X2000Y400
X1660Y440
X1340Y540
X1030Y720
X3600Y800
X4200Y2000
Y4400
X4300Y5350
X5200
X6000Y5600
X7200Y3200
X1200Y5600
X8400Y3200
X9600
X9000Y2000
X7800
X12000Y3200
X13200
X14400
X15000Y4400
X17400
X16800Y5600
X20400
Y4700
X22200Y4400
X22750Y3750
X22800Y5600
X21000Y2000
X19200Y800
X17400Y2000
X16200
X15600Y800
X14400
X13200
X13800Y2000
X12000Y5600
X24000
X23400Y4400
X27000
X28200
X28800Y3200
X27600
X28200Y2000
X29400
X28800Y800
X27050Y450
X25950
X24000Y800
X24600Y2000
X27600Y5600
X30000
X30600Y4400
X32350Y4950
X32900Y3900
X32400Y3200
X33220Y2970
X33040Y2660
X32940Y2340
X32900Y2000
X32940Y1630
X33050Y1300
X33250Y990
X33530Y720
X33840Y540
X34160Y440
X34500Y400
X34870Y440
X35200Y550
X35510Y750
X35780Y1030
X35960Y1340
X36060Y1660
X36100Y2000
X36060Y2370
X35950Y2700
X35750Y3010
X35470Y3280
X35160Y3460
X34840Y3560
X34500Y3600
X34130Y3560
X33800Y3450
X33490Y3250
X35400Y4400
X34800Y5600
X35400Y6800
X34800Y8000
X35400Y9200
X34800Y10400
X35400Y11600
X33000
X32850Y12500
X31500Y12100
X30950Y14200
X31200Y15200
X30000
X32150Y15800
X31800Y16400
X33000
X33600Y17600
X34800
Y20000
X33600
X33000Y21200
Y18800
X32400Y17600
X31200
X30600Y18800
X29400
X28800Y20000
X27600
X27000Y21200
X25800
X25200Y20000
X25800Y18800
X26400Y17600
X28800
X31200Y20000
X34800Y15200
Y14050
X27300Y14100
X27750Y13500
X25930Y12470
X25000Y14900
X24600Y15300
X24000Y17600
X25000Y7900
X24600Y7500
X25400Y7000
X25550Y6500
X27200Y6950
X27500Y6000
X29400Y6800
X28960Y9470
X23400Y6800
X22200Y9200
X22400Y9950
X21800Y10800
X21400Y10400
X20495Y9974
X21000Y9200
X19800
X19000Y9300
X18600Y8900
X18200Y8500
X17800Y8100
X17400Y7700
X17000Y7300
X16300Y10000
X16200Y11600
X15000
X13800
X12600
X13200Y12800
X14400
X15600
X16800
X16500Y13850
X17000Y14100
X17550Y13850
X18000Y14050
X18500Y13850
X19000Y14050
Y13484
X18250Y12150
X18000Y15200
X20400
Y20000
X19200
X18000
X16800
X15600
X14400
X12000
X12100Y18750
X11400Y18800
X10200
X10250Y19950
X10200Y21200
X8400Y20000
X8450Y18700
X10200Y16400
X13200Y15200
X13800Y14000
X15000
X15950Y14100
X14400Y10400
X12000Y9300
X11500Y8900
X11000Y8500
X10500Y8100
X10000Y7300
X9500Y7700
X6000Y9300
X5500Y8900
X5000Y8500
X4000Y7300
X3500Y7700
X1200Y8000
Y10400
Y12800
X2400Y17600
Y18800
Y20000
X3000Y21200
X4200
X4800Y20000
X6000
X6050Y18750
X5400Y18800
X4200
X4800Y17600
X4200Y16400
X6600Y11600
X1250Y21050
X2350Y23450
X4200Y23600
X4250Y22750
X5400Y23600
X6100Y23450
X7200Y27200
X6600Y28400
X7200Y29600
X6600Y33200
X5000Y35700
X4200Y35600
X4500Y35300
X4000Y34900
X3560Y35160
X3600Y35500
X3560Y35870
X3450Y36200
X3250Y36510
X2970Y36780
X990Y36750
X720Y36470
X540Y36160
X440Y35840
X400Y35500
X440Y35130
X550Y34800
X750Y34490
X1030Y34220
X1340Y34040
X1660Y33940
X2000Y33900
X2500Y33700
X3000Y34100
X3500Y34500
X3600Y32000
X2400
X1200Y29600
X1800Y28400
X3000
X7800
X9000
X10200
X11400
X12600
X13200Y29600
X14400
X15600
X16800
X18000
X19200
X20400
X19800Y30800
X18600
X17400
X16200
X15000
X15600Y32000
X16800
X18000
X19200
X20400
X19800Y33200
X18600
X17400
X16200
X15000
X14400Y32000
X13200
X12000
X10800
X9600
X8400
X7800Y33200
X8500Y33700
X9000Y34100
X9500Y34500
X10000Y35300
X10500Y36100
X11000Y34900
X12600Y33200
Y30800
X13200Y27200
X14400
X15600
X16800
X18000
X19200
X20400
X19800Y28400
X18600
X17400
X16200
X15000
Y26000
X16200
X17400
X18600
X19800
X19500Y24250
X20000Y24000
X20250Y23500
X19000Y24000
X18500Y24250
X18000Y24000
X17500Y24250
X17000Y24000
X16500Y24250
X16000Y24000
X15450
X13200Y22400
X10250Y22350
X10200Y23600
X8750
X9000Y26000
X10200
X10179Y26824
X11400Y26000
X12000Y27200
X13000Y25600
X8400Y27200
X24600Y28400
X28200
X29400
X30600
X33000
X34200
X35400
X34800Y29600
X35400Y30800
X34800Y32000
X35400Y33200
X35200Y34050
X34870Y33940
X34500Y33900
X34160Y33940
X33840Y34040
X33530Y34220
X33250Y34490
X33050Y34800
X32940Y35130
X32900Y35500
X32940Y35840
X33040Y36160
X33220Y36470
X33490Y36750
X35470Y36780
X35750Y36510
X35950Y36200
X36060Y35870
X36100Y35500
X36060Y35160
X35960Y34840
X35780Y34530
X35510Y34250
X34200Y33200
X32400Y32000
X31200
X30000
X28800
X29400Y33200
X30000Y33700
X30500Y34100
X31000Y34500
X31500Y35300
X32000Y35700
X32500Y34900
X28200Y33200
X28800Y29600
X31800Y26000
X35400
X34800Y27200
X25800Y26000
Y23600
X25000Y34500
X24500Y34100
X24000Y33700
Y34900
X25500Y35300
X26000Y35700
X26500Y36100
X33800Y36950
X34130Y37060
X34500Y37100
X34840Y37060
X35160Y36960
X2660
X2340Y37060
X2000Y37100
X1630Y37060
X1300Y36950
T02
X25516Y14669
X28393Y12667
T03
X25709Y1846
X27283
T04
X25600Y4000
X30000
X27700Y7000
X29000Y8700
X23000Y9500
Y6500
X8000Y6700
X13600Y16000
X2792Y8815
X500Y8800
Y30000
X7600Y31400
X23100
X29100
T05
X10400Y1116
X11187
X11975
Y2100
X11187
X10400
T06
X5000Y1600
X6000
X7050
T07
X23500Y20500
X25000
X26500
X28000
X29500
X31000
X32500
X34000
X19500
Y19500
Y18500
Y17500
Y16500
Y15500
Y14500
X18500
Y15500
X17500
Y16500
Y17500
X18500
Y18500
X17500
X16500
Y19500
X17500
Y20500
X18500
Y19500
Y16500
X16500
Y17500
Y15500
Y14500
X17500
X16500Y20500
X12500
Y19500
X11000
Y20500
X9500
Y19500
X8000
Y20500
X6500
Y19500
X5000
Y20500
X3500
Y19500
X2000
Y20500
Y21500
Y22500
X3500
Y21500
X5000
Y22500
X6500
Y21500
X8000
Y22500
Y23500
X9500
Y22500
Y21500
X11000
Y22500
Y23500
X12500
Y22500
Y21500
X16500
X17500
Y22500
X18500
X19500
Y23500
X18500
X17500
X16500
Y22500
X18500Y21500
X19500
X23500
Y22500
Y23500
X25000
Y22500
Y21500
X26500
Y22500
Y23500
X28000
Y22500
Y21500
X29500
Y22500
Y23500
X31000
Y22500
Y21500
X32500
Y22500
Y23500
X34000
Y22500
Y21500
T08
X34000Y12000
Y13000
Y14000
Y15000
Y16000
Y17000
Y18000
Y19000
T09
X15000Y500
X16000
X17000
X18000
X20000
X21000
X22000
X23000
X30000
X31000
X32000
X33000
T10
X34000Y4500
Y5500
Y6500
Y7500
Y8500
Y9500
Y10500
T11
X9573Y1608
X12802
T12
X2000Y2000
X34500
X2000Y35500
X34500
M30
