G04*
G04 #@! TF.GenerationSoftware,Altium Limited,Altium Designer,21.3.2 (30)*
G04*
G04 Layer_Physical_Order=1*
G04 Layer_Color=255*
%FSLAX25Y25*%
%MOIN*%
G70*
G04*
G04 #@! TF.SameCoordinates,B7D7C0A0-A55D-4CC8-836F-116C6F14137B*
G04*
G04*
G04 #@! TF.FilePolarity,Positive*
G04*
G01*
G75*
%ADD10R,0.90551X0.11811*%
%ADD12C,0.01000*%
%ADD13C,0.02362*%
G36*
X63182Y10343D02*
X63302Y10346D01*
X63416Y10356D01*
X63524Y10372D01*
X63627Y10395D01*
X63723Y10424D01*
X63814Y10460D01*
X63898Y10503D01*
X63977Y10552D01*
X64050Y10607D01*
X64117Y10669D01*
Y9016D01*
X64050Y9078D01*
X63977Y9133D01*
X63898Y9182D01*
X63814Y9225D01*
X63723Y9261D01*
X63627Y9290D01*
X63524Y9313D01*
X63416Y9329D01*
X63302Y9339D01*
X63182Y9342D01*
Y10343D01*
D02*
G37*
D10*
X45276Y64961D02*
D03*
Y104331D02*
D03*
Y84646D02*
D03*
Y45276D02*
D03*
Y25591D02*
D03*
Y5906D02*
D03*
Y124016D02*
D03*
Y143701D02*
D03*
D12*
Y5906D02*
X49213Y9843D01*
X64961D01*
D13*
X48130Y41240D02*
D03*
X86614Y80709D02*
D03*
X55118Y100394D02*
D03*
X35433Y120079D02*
D03*
X64961Y9843D02*
D03*
X52165Y29528D02*
D03*
X15748Y139764D02*
D03*
X14764Y61024D02*
D03*
M02*
